<svg class="icon" viewBox="0 0 1024 1024" xmlns="http://www.w3.org/2000/svg" width="200" height="200"><path d="M424.442 712.582v-53.735H315.147V614.04l115.849-169.592h42.99v169.404h33.153v44.988h-33.152v53.734h-49.545zm0-98.722v-91.264l-61.38 91.264h61.38zm193.63-169.413c25.865 0 46.089 9.233 60.655 27.691 17.365 21.862 26.052 58.103 26.052 108.74 0 50.526-8.738 86.835-26.231 108.937-14.447 18.218-34.611 27.315-60.476 27.315-25.984 0-46.933-9.984-62.84-29.96s-23.858-55.595-23.858-106.838c0-50.278 8.738-86.46 26.222-108.57 14.447-18.21 34.612-27.315 60.476-27.315zm0 42.445c-6.195 0-11.716 1.971-16.572 5.914-4.855 3.95-8.627 11.025-11.29 21.222-3.523 13.235-5.281 35.524-5.281 66.85 0 31.335 1.578 52.856 4.744 64.572 3.149 11.725 7.126 19.524 11.921 23.407a25.438 25.438 0 0 0 16.487 5.828c6.203 0 11.725-1.963 16.58-5.913 4.847-3.943 8.619-11.017 11.29-21.214 3.515-13.116 5.282-35.345 5.282-66.671 0-31.326-1.587-52.847-4.745-64.572-3.157-11.716-7.134-19.55-11.92-23.5a25.276 25.276 0 0 0-16.496-5.923zm251.921 225.69H818.81V519.677c-18.705 17.485-40.738 30.413-66.124 38.801v-46.447c13.354-4.377 27.87-12.663 43.537-24.866s26.419-26.445 32.239-42.71h41.531v268.127z"/><path d="M893.844 198.039H135.939V822.84H352.71v-46.95H183.905V244.997h661.982v103.808h47.957z"/></svg>