<svg class="icon" viewBox="0 0 1024 1024" xmlns="http://www.w3.org/2000/svg" width="200" height="200"><path d="M620.256 806.176A32 32 0 0 1 592 774.4v-80.736a32 32 0 0 1 13.216-25.92c52.864-38.272 99.168-99.68 124.736-169.152a32 32 0 0 1 19.584-19.2c9.76-3.36 21.536-24.224 32.416-70.72 5.92-25.152-1.024-40.96-16.576-50.4a32 32 0 0 1-15.264-24.48C736.448 181.312 650.144 96 514.24 96 376 96 286.304 184.064 273.568 338.432a32 32 0 0 1-15.04 24.544c-16.416 10.24-22.272 23.36-16.224 44.032 11.392 38.88 23.84 60.352 36.8 68.48a32 32 0 0 1 13.12 16.384c25.088 70.496 72.224 133.536 126.72 173.504A32 32 0 0 1 432 691.168V774.4a32 32 0 0 1-28.256 31.776c-125.12 14.72-212.608 54.4-225.952 88.672 2.304 1.056 5.12 2.176 8.384 3.296 17.184 6.016 43.52 11.52 77.12 16.096C328.8 923.136 418.464 928 512 928s183.2-4.864 248.704-13.76c33.6-4.576 59.936-10.08 77.12-16.096 3.296-1.12 6.08-2.24 8.384-3.296-13.344-34.272-100.832-73.92-225.92-88.64zM656 746.4c151.36 22.656 256 79.168 256 157.376C912 970.784 755.84 992 512 992s-400-21.216-400-88.224c0-78.208 104.64-134.72 256-157.376v-39.52c-56.64-45.536-104.576-110.944-132.576-184.128-23.936-19.392-40.928-51.296-54.528-97.792-12.8-43.648.064-81.344 30.336-106.592C231.456 140.48 346.336 32 514.24 32c165.6 0 276.992 105.728 298.08 281.44 29.44 24.864 42.72 63.904 31.968 109.856-13.312 56.768-30.848 92.512-58.976 109.632C756.864 603.552 710.336 666.112 656 709.504V746.4z"/></svg>
