<svg class="icon" viewBox="0 0 1024 1024" xmlns="http://www.w3.org/2000/svg" width="200" height="200"><path d="M585.232 587.373l2.14 1.8 310.304 310.302a15.515 15.515 0 0 1-19.798 23.708l-2.172-1.77-310.303-310.302a15.515 15.515 0 0 1 19.829-23.738zm6.95-442.772a46.545 46.545 0 0 1 7.758 28.89l-9.061 138.488a46.545 46.545 0 0 0 17.625 39.594l108.979 85.954a46.545 46.545 0 0 1-17.377 81.641l-134.517 34.226a46.545 46.545 0 0 0-32.178 28.983L485.314 712.58a46.545 46.545 0 0 1-83.006 8.72l-74.1-117.357a46.545 46.545 0 0 0-37.516-21.66l-138.706-5.492a46.545 46.545 0 0 1-33.947-76.272l88.747-106.744a46.545 46.545 0 0 0 8.999-42.357l-37.671-133.585a46.545 46.545 0 0 1 62.06-55.855l128.9 51.386a46.545 46.545 0 0 0 43.07-4.53l115.433-77.08a46.545 46.545 0 0 1 64.543 12.847zm-44.87 11.606l-2.482 1.334-115.433 77.08a77.576 77.576 0 0 1-66.653 9.401l-5.12-1.862-128.93-51.355a15.515 15.515 0 0 0-21.194 15.888l.496 2.73 37.64 133.617a77.576 77.576 0 0 1-11.42 65.97l-3.599 4.655-88.715 106.744a15.515 15.515 0 0 0 8.564 25.042l2.793.372 138.674 5.492a77.576 77.576 0 0 1 59.206 31.248l3.32 4.84 74.07 117.357a15.515 15.515 0 0 0 26.5-.372l1.179-2.545 48.096-130.203a77.576 77.576 0 0 1 48.035-46.638l5.586-1.645 134.547-34.226a15.515 15.515 0 0 0 7.82-25.29l-2.048-1.924-108.979-85.954a77.576 77.576 0 0 1-29.51-60.509l.156-5.461 9.03-138.489a15.515 15.515 0 0 0-1.335-7.416l-1.24-2.203a15.515 15.515 0 0 0-19.054-5.647z"/></svg>
