<svg class="icon" viewBox="0 0 1024 1024" xmlns="http://www.w3.org/2000/svg" width="128" height="128"><path d="M678.613 413.83l-33.552 21.124c-29-38.523-68.765-57.784-119.296-57.784-39.765 0-73.113 12.737-100.033 38.212-26.93 25.476-40.388 57.067-40.388 94.755 0 37.697 13.252 70.007 39.766 96.928 26.503 26.93 60.054 40.387 100.655 40.387 48.464 0 88.23-19.26 119.296-57.783l33.552 22.367c-16.572 24.028-38.834 42.463-66.793 55.298s-58.095 19.261-90.404 19.261c-50.95 0-93.51-16.776-127.684-50.328s-51.26-74.346-51.26-122.403c0-48.872 17.29-90.61 51.881-125.199 34.58-34.582 79.006-51.882 133.275-51.882 31.892 0 61.405 6.836 88.54 20.504 27.127 13.67 47.94 32.523 62.445 56.542zm-168.07-221.546c-176.402 0-319.404 143.003-319.404 319.405 0 176.404 143.002 319.403 319.403 319.403 176.405 0 319.405-143 319.405-319.403 0-176.402-143-319.405-319.405-319.405zm0 590.169c-149.54 0-270.764-121.224-270.764-270.764 0-149.538 121.224-270.765 270.764-270.765 149.54 0 270.764 121.227 270.764 270.765 0 149.54-121.225 270.764-270.764 270.764z"/></svg>