<svg class="icon" viewBox="0 0 1024 1024" xmlns="http://www.w3.org/2000/svg" width="200" height="200"><path d="M516.984 580.887h-.633M648.034 482.527l171.885 71.098c5.207 2.152 8.424 6.965 8.424 12.599v29.279c0 5.633-3.217 10.444-8.422 12.598l-171.885 71.146c-4.337 1.795-8.89 1.346-12.791-1.262-3.904-2.609-6.06-6.643-6.06-11.337v-21.063c0-5.656 3.245-10.485 8.48-12.625l96.081-39.234c5.234-2.135 8.477-6.961 8.48-12.615.005-5.655-3.235-10.484-8.467-12.627l-96.107-39.368c-5.23-2.143-8.467-6.967-8.467-12.62v-21.368c0-4.692 2.156-8.728 6.058-11.335 3.9-2.608 8.455-3.059 12.79-1.266zM466.642 716.66h-2.817c-4.514 0-8.4-1.984-11.048-5.643-2.645-3.658-3.315-7.97-1.902-12.258l80.436-244.274c1.875-5.688 6.963-9.37 12.952-9.37h3.076c4.519 0 8.406 1.986 11.052 5.648 2.646 3.66 3.312 7.976 1.897 12.266L479.59 707.3c-1.878 5.682-6.963 9.36-12.947 9.36zm-71.827-221.532v21.368c0 5.65-3.237 10.477-8.467 12.62l-96.11 39.368c-5.23 2.143-8.469 6.97-8.467 12.625.004 5.654 3.247 10.478 8.483 12.616l96.08 39.235c5.236 2.14 8.481 6.97 8.481 12.625v21.063c0 4.694-2.156 8.728-6.06 11.337-3.9 2.608-8.454 3.057-12.79 1.262l-171.886-71.146c-5.205-2.154-8.422-6.965-8.422-12.598v-29.28c0-5.633 3.217-10.446 8.424-12.598l171.885-71.098c4.336-1.793 8.89-1.342 12.79 1.266 3.903 2.607 6.06 6.643 6.06 11.335z"/><path d="M425.398 148.143H801.44c25.915 0 49.467 10.594 66.525 27.652 17.061 17.061 27.653 40.613 27.653 66.526v579.502c0 25.919-10.592 49.47-27.65 66.529-17.058 17.058-40.61 27.65-66.528 27.65H221.938c-25.918 0-49.47-10.592-66.528-27.65-17.058-17.058-27.65-40.61-27.65-66.529V439.56c0-5.121 1.016-10.094 3.027-14.87 1.977-4.695 4.848-8.888 8.59-12.54l259.315-253.093c3.662-3.577 7.76-6.287 12.275-8.125 4.561-1.856 9.376-2.789 14.43-2.789zm376.042 39.411H425.762L167.171 439.942v381.881c0 15.04 6.168 28.73 16.103 38.665 9.934 9.934 23.624 16.103 38.664 16.103H801.44c15.04 0 28.73-6.169 38.664-16.103 9.935-9.935 16.103-23.625 16.103-38.665V242.321c0-15.034-6.17-28.726-16.106-38.662-9.935-9.935-23.623-16.105-38.66-16.105z"/></svg>
