<svg class="icon" viewBox="0 0 1024 1024" xmlns="http://www.w3.org/2000/svg" width="200" height="200"><path d="M449.53 577.163l290.103-289.022c9.39-9.356 24.585-9.326 33.94.062 9.356 9.391 9.326 24.587-.062 33.942L466.685 627.83l-.031.03c-9.318 9.283-24.351 9.326-33.723.154l-180.54-175.97c-9.492-9.251-9.687-24.445-.434-33.938 9.251-9.491 24.445-9.687 33.938-.434l163.634 159.492zm511.516-65.278c.037.726.042 1.461.013 2.202-2.094 53.195-11.216 100.028-27.513 140.446-.954 2.365-5.717 14.504-7.205 18.213-3.452 8.604-6.694 16.271-10.288 24.18-9.487 20.873-20.396 41.023-33.852 61.557-35.042 53.483-83.863 104.044-150.857 151.296-57.744 40.728-127.466 77.768-210.525 110.562a23.938 23.938 0 0 1-8.758 1.683 23.934 23.934 0 0 1-8.946-1.682c-83.058-32.793-152.78-69.835-210.525-110.563-66.995-47.251-115.814-97.813-150.857-151.294-13.455-20.535-24.364-40.686-33.852-61.56-3.593-7.908-6.835-15.574-10.286-24.179-1.489-3.71-6.251-15.847-7.206-18.212-16.252-40.304-25.367-86.988-27.495-140a24.075 24.075 0 0 1-.608-5.391v-400c0-3.02.557-5.909 1.576-8.572 1.823-9.385 9.193-17.158 19.16-19.02L488.298 5.877a129.143 129.143 0 0 1 47.408 0L940.978 81.55c11.32 2.114 19.288 11.851 19.59 22.913.377 1.69.576 3.447.576 5.25v400c0 .732-.033 1.456-.097 2.172zm-47.871-.912a24.393 24.393 0 0 1-.032-1.259V125.183l-386.25-72.12a81.143 81.143 0 0 0-29.787 0l-386.82 72.227v382.627c.307 1.384.496 2.816.553 4.282 1.888 47.954 9.96 89.396 24.067 124.384 1.06 2.628 5.846 14.823 7.24 18.295 3.2 7.98 6.17 15.002 9.435 22.186 8.514 18.731 18.26 36.737 30.301 55.113 31.736 48.434 76.323 94.612 138.374 138.377 52.514 37.04 115.992 71.1 191.71 101.64 75.72-30.54 139.197-64.6 191.713-101.64 62.051-43.765 106.639-89.943 138.374-138.377 12.04-18.377 21.788-36.383 30.302-55.113 3.266-7.184 6.235-14.207 9.435-22.186 1.394-3.475 6.18-15.667 7.239-18.295 14.107-34.988 22.179-76.431 24.068-124.384.015-.412.041-.82.078-1.226z"/></svg>