<svg class="icon" viewBox="0 0 1279 1024" xmlns="http://www.w3.org/2000/svg" width="159.875" height="128"><path d="M250.321 769.126c-80.907 23.555-166.934-16.386-200.73-94.22-3.585-5.633-9.218-27.14-10.754-32.773C-66.65 92.173 486.897 0 486.897 0c-191.514 101.39-296.488 294.951-140.82 532.039 5.633 9.217 9.218 19.97 12.802 30.724 26.628 87.051-22.019 179.224-108.558 206.363zm643.67-144.915c63.496 56.328 72.201 150.036 23.555 219.165-3.585 3.585-19.97 21.507-23.555 25.092-415.8 376.37-781.416-48.647-781.416-48.647 186.392 112.143 407.094 101.39 529.99-153.62 5.633-9.218 12.802-17.923 19.97-27.14 59.4-69.13 162.838-74.25 231.456-14.85zM664.072 25.091c535.623 164.886 356.4 696.925 354.351 698.461 2.048-217.117-117.776-401.973-401.461-376.37-10.754 0-21.507-2.048-32.773-3.584-88.075-17.923-147.987-104.974-129.553-193.562A163.964 163.964 0 0 1 629.763 17.922c5.633 2.049 29.188 5.633 34.309 7.17zm0 0"/></svg>