<svg class="icon" viewBox="0 0 1024 1024" xmlns="http://www.w3.org/2000/svg" width="200" height="200"><path d="M862.71 116.043a32 32 0 1 1 45.247 45.248L455.445 613.813a32 32 0 1 1-45.258-45.258l452.522-452.502zM853.332 448a32 32 0 0 1 64 0v352c0 64.8-52.533 117.333-117.333 117.333H224c-64.8 0-117.333-52.533-117.333-117.333V224c0-64.8 52.533-117.333 117.333-117.333h341.333a32 32 0 0 1 0 64H224A53.333 53.333 0 0 0 170.667 224v576A53.333 53.333 0 0 0 224 853.333h576A53.333 53.333 0 0 0 853.333 800V448z"/></svg>
