<svg class="icon" viewBox="0 0 1024 1024" xmlns="http://www.w3.org/2000/svg" width="200" height="200"><path d="M476.7 550.4v368h-368v-368h368m40-40h-448v448h448v-448zM161.4 877.6l110.7-149.2-97.7-137.1h45.1l52 73.4c10.8 15.2 18.5 27 23 35.2 6.4-10.4 13.9-21.3 22.7-32.6l57.6-76H416l-100.6 135 108.4 151.4H377l-72-102.3c-4-5.9-8.2-12.2-12.5-19.1-6.4 10.4-10.9 17.6-13.7 21.5l-71.9 99.8h-45.5zm633.9-349.4H580.6v40h214.8v-40zm0 144.4H580.6v40h214.8v-40zM683.1 64H215.3v397h40V104h411.2l16.6 16.6v215.6h215.6l16.6 16.6V920H580.6v40h374.8V336.2L683.1 64zm40 232.2V160.6l135.6 135.6H723.1zm72.2 87.6h-420v40h420v-40z"/></svg>
