<svg class="icon" viewBox="0 0 1024 1024" xmlns="http://www.w3.org/2000/svg" width="200" height="200"><path d="M929.96 452.562L591.094 100.128c-21.062-21.88-49.21-33.924-79.375-33.924s-58.313 12.044-79.375 33.924L93.48 452.562c-34.96 36.376-30.464 67.821-24.687 80.956 4.114 9.319 18.038 34.932 58.094 34.932h49.674v271.124c0 61.555 44.252 119.514 107.115 119.514h144.254V672.159c0-30.763-4.66-47.903 26.785-47.903h114.01c31.445 0 26.784 17.14 26.784 47.903v286.929h144.255c62.864 0 107.115-57.959 107.115-119.513V568.45h49.674c40.055 0 53.98-25.614 58.095-34.932 5.775-13.135 10.272-44.58-24.687-80.956zm-33.408 60.083H791.018v326.93c0 30.764-19.836 63.708-51.254 63.708h-88.396V672.159c0-61.554-19.753-103.708-82.644-103.708H454.715c-62.889 0-82.644 42.154-82.644 103.708v231.124h-88.394c-31.418 0-51.256-32.944-51.256-63.709V512.645H126.887c-.981 0-1.88-3.842-2.697-3.896 1.934-3.378 5.259-11.935 10.79-17.685l338.92-352.19c10.11-10.543 24.386-17.002 38.256-16.865 13.843-.137 27.278 6.322 37.386 16.866l338.891 352.19c5.56 5.75 8.884 14.306 10.818 17.684-.82.054-1.718 3.896-2.7 3.896z"/></svg>
