<svg class="icon" viewBox="0 0 1024 1024" xmlns="http://www.w3.org/2000/svg" width="128" height="128"><path d="M307.87 580.044c-40.158 0-79.199-15.617-109.317-45.735L45.734 382.606c-60.235-60.236-60.235-159.512 0-219.748L162.858 45.734c60.236-60.235 159.512-60.235 219.748 0l152.819 152.82c60.235 60.235 60.235 159.511 0 219.747L418.3 535.425c-30.118 30.117-70.275 44.619-110.432 44.619zm-35.696-485.23c-15.616 0-31.233 5.578-42.388 17.848L112.662 229.786c-11.154 11.155-17.847 26.772-17.847 42.388s6.693 31.233 17.847 42.388l152.82 153.935c23.424 23.425 62.466 23.425 85.89 0l117.125-117.124c23.425-23.425 23.425-62.467 0-85.892L314.562 112.662c-11.155-12.27-26.771-17.847-42.388-17.847zM751.826 1024c-41.273 0-80.314-15.617-109.316-45.734l-152.82-152.82c-29.002-29.002-45.734-68.043-45.734-109.315s15.617-80.314 45.735-109.316L606.815 489.69c60.235-60.236 159.512-60.236 219.747 0l152.82 152.819c60.235 60.235 60.235 159.512 0 219.747L862.256 979.381C832.14 1008.383 793.098 1024 751.826 1024zM716.13 538.771c-15.617 0-31.233 5.578-42.388 17.848L556.619 673.743c-11.155 11.155-17.848 26.771-17.848 42.388s6.693 31.233 17.848 42.388l152.819 152.819c11.155 11.154 26.771 17.847 42.388 17.847s31.233-6.693 42.388-17.847l117.124-117.124c11.154-11.155 17.847-26.772 17.847-42.388s-6.693-31.233-17.847-42.388l-152.82-152.82c-11.154-12.27-26.77-17.847-42.387-17.847z"/><path d="M614.623 690.475l-275.52-275.52c-21.195-21.195-21.195-54.659 0-75.853 21.193-21.194 54.657-21.194 75.851 0l275.52 275.521c21.195 21.194 21.195 54.658 0 75.852-21.193 21.194-54.657 21.194-75.85 0z"/></svg>