<svg class="icon" viewBox="0 0 1312 1024" xmlns="http://www.w3.org/2000/svg" width="256.25" height="200"><path d="M295.648 1021.664c.288.192.672.096.96.288A16.32 16.32 0 0 0 304 1024a16 16 0 0 0 4.224-.576L656 928.512l347.776 94.912a16 16 0 0 0 4.224.576 15.744 15.744 0 0 0 7.36-2.08c.32-.16.672-.096.96-.288l288-176a16.032 16.032 0 0 0 7.04-18.016l-159.488-560a15.968 15.968 0 0 0-23.232-9.6l-158.784 89.088a16.032 16.032 0 0 0 15.712 27.904l141.088-79.2L1277.28 824.64 1020.8 981.408l-60.928-487.392a16 16 0 0 0-31.776 3.968l61.024 488.288L672 899.712v-87.36a16 16 0 0 0-32 0v87.36l-317.152 86.56 61.024-488.288a16 16 0 1 0-31.776-3.968L291.2 981.408 34.72 824.672l150.624-528.8 141.088 79.2a16.032 16.032 0 0 0 15.712-27.904l-158.816-89.12a15.872 15.872 0 0 0-23.2 9.6L.64 827.648a15.936 15.936 0 0 0 7.04 18.016l287.968 176z" /><path d="M645.152 747.776a16 16 0 0 0 21.6.096C677.408 738.176 928 508.224 928 272 928 119.456 808.544 0 656 0S384 119.456 384 272c0 232.128 250.496 465.92 261.152 475.776zM656 32c136.8 0 240 103.168 240 240 0 195.104-191.776 394.784-239.904 441.824C608.064 666.24 416 463.936 416 272c0-136.832 103.2-240 240-240z" /><path d="M800 272c0-79.392-64.608-144-144-144s-144 64.608-144 144 64.608 144 144 144 144-64.608 144-144zM656 384c-61.76 0-112-50.24-112-112s50.24-112 112-112 112 50.24 112 112-50.24 112-112 112z" /></svg>
