<svg class="icon" viewBox="0 0 1024 1024" xmlns="http://www.w3.org/2000/svg" width="200" height="200"><path d="M585.6 905.6c25.6-32 38.4-44.8 41.6-44.8 208-38.4 345.6-198.4 345.6-396.8C976 236.8 768 57.6 512 57.6S48 236.8 48 464c0 198.4 140.8 358.4 345.6 396.8 3.2 0 16 12.8 41.6 44.8 32 41.6 51.2 64 73.6 64s41.6-22.4 76.8-64m35.2-102.4c-19.2 3.2-32 19.2-67.2 64C531.2 892.8 512 912 512 912l-9.6-9.6c-6.4-6.4-16-19.2-25.6-32-38.4-48-51.2-64-70.4-67.2-185.6-32-307.2-172.8-307.2-345.6 0-192 185.6-352 416-352s416 160 416 352c-3.2 176-124.8 313.6-310.4 345.6z"/><path d="M281.6 470.4a1.4 1.5 0 1 0 89.6 0 1.4 1.5 0 1 0-89.6 0zM467.2 470.4a1.4 1.5 0 1 0 89.6 0 1.4 1.5 0 1 0-89.6 0zM652.8 470.4a1.4 1.5 0 1 0 89.6 0 1.4 1.5 0 1 0-89.6 0z"/></svg>
