<svg class="icon" viewBox="0 0 1024 1024" xmlns="http://www.w3.org/2000/svg" width="200" height="200"><path d="M85.333 512C85.333 276.352 276.31 85.333 512 85.333c235.648 0 426.667 190.976 426.667 426.667 0 235.648-190.976 426.667-426.667 426.667C276.352 938.667 85.333 747.69 85.333 512zm376.64 74.325L356.331 480.683a21.248 21.248 0 0 0-30.123.042c-8.32 8.32-8.213 21.974-.064 30.102l120.81 120.832a21.248 21.248 0 0 0 30.123-.086l211.158-211.157a21.29 21.29 0 0 0 0-30.187 21.397 21.397 0 0 0-30.251.107l-196.01 195.99z" /></svg>

