<svg class="icon" viewBox="0 0 1137 1024" xmlns="http://www.w3.org/2000/svg" width="222.07" height="200"><path d="M739.554 1024h-455.11a284.444 284.444 0 1 1 0-568.888 281.03 281.03 0 0 1 88.889 14.45A398.221 398.221 0 1 1 739.554 1024zm-455.11-455.11a170.666 170.666 0 1 0 0 341.332h455.11A284.444 284.444 0 1 0 462.79 561.324a56.889 56.889 0 0 1-86.215 34.986 170.069 170.069 0 0 0-92.131-27.42zM113.778 398.223a56.889 56.889 0 0 1-56.89-56.888A341.333 341.333 0 0 1 603.022 68.269a56.889 56.889 0 1 1-68.266 91.022 227.555 227.555 0 0 0-364.089 182.044 56.889 56.889 0 0 1-56.888 56.888z"/></svg>
