<svg class="icon" viewBox="0 0 1024 1024" xmlns="http://www.w3.org/2000/svg" width="200" height="200"><path d="M816.528 288.394C787.789 119.492 641.07 0 475.194 0c-19.663 0-39.326 1.513-58.99 5.042C227.64 37.31 100.585 216.8 132.854 405.365c19.663 114.954 94.282 207.22 192.094 254.11-151.76 54.451-265.705 186.043-295.956 346.374-1.513 8.067 4.033 16.134 12.1 17.647 1.008 0 2.017.504 3.025.504 7.059 0 13.613-5.042 14.622-12.1C88.988 850.56 211 719.976 369.316 677.625c33.276 10.588 68.569 16.134 104.87 16.134 19.663 0 39.327-1.513 58.99-5.042 189.07-32.772 315.62-211.758 283.352-400.323zM528.134 658.466c-17.647 3.025-35.797 4.537-53.948 4.537-32.268 0-64.031-5.041-94.787-14.62-2.016-1.513-5.042-2.522-7.562-2.522-36.302-12.604-70.082-31.26-100.333-56.469-56.973-47.897-95.795-114.954-108.4-189.069-14.621-83.695 4.538-167.39 53.444-236.463S338.056 48.906 421.247 34.79c17.646-3.025 35.797-4.538 53.947-4.538 73.612 0 145.71 26.218 202.683 73.611 57.477 47.898 96.3 115.459 108.904 189.574 29.747 171.927-86.216 335.787-258.647 365.03zm201.674 37.31c0 8.57 7.059 15.125 15.126 15.125h234.95c8.067 0 15.125-6.554 15.125-15.126s-7.058-15.125-15.125-15.125h-234.95c-8.067 0-15.126 7.059-15.126 15.125zm250.076 133.609h-346.88c-8.57 0-15.125 6.554-15.125 15.125 0 8.067 6.554 15.126 15.125 15.126h346.88c8.067 0 15.125-7.059 15.125-15.126s-7.058-15.125-15.125-15.125zm0 148.734h-346.88c-8.57 0-15.125 6.555-15.125 15.126 0 8.067 6.554 15.125 15.125 15.125h346.88c8.067 0 15.125-7.058 15.125-15.125 0-8.571-7.058-15.126-15.125-15.126z"/></svg>
