<svg class="icon" viewBox="0 0 1024 1024" xmlns="http://www.w3.org/2000/svg" width="200" height="200"><path d="M932.986 1024H69.662c-17.617 0-31.942-14.325-31.942-31.942V460.57c0-17.616 14.325-31.941 31.942-31.941h863.333c17.617 0 31.942 14.325 31.942 31.941v531.49c-.01 17.616-14.335 31.941-31.951 31.941zM93.86 967.86h814.937V484.767H93.86V967.86z"/><path d="M770.945 470.936c-15.506 0-28.07-12.564-28.07-28.07v-145.18c0-133.187-108.36-241.546-241.546-241.546-133.187 0-241.547 108.36-241.547 241.546v145.18c0 15.506-12.564 28.07-28.07 28.07s-28.07-12.564-28.07-28.07v-145.18c0-79.515 30.964-154.268 87.191-210.495S421.813 0 501.33 0s154.268 30.964 210.495 87.19 87.19 130.981 87.19 210.496v145.18c0 15.506-12.573 28.07-28.07 28.07zM439.101 726.314a62.218 62.218 0 1 0 124.436 0 62.218 62.218 0 1 0-124.436 0z"/><path d="M501.319 858.078c-15.506 0-28.07-12.564-28.07-28.07V622.61c0-15.506 12.564-28.07 28.07-28.07s28.07 12.564 28.07 28.07v207.398c0 15.506-12.564 28.07-28.07 28.07z"/></svg>