<svg class="icon" viewBox="0 0 1024 1024" xmlns="http://www.w3.org/2000/svg" width="200" height="200"><path d="M481.13 729.685a32 32 0 0 1 22.614 39.211l-49.685 185.45a32 32 0 0 1-61.824-16.575L441.94 752.32a32 32 0 0 1 39.19-22.613zm256.043 0a32 32 0 0 1 22.614 39.211L710.1 954.346a32 32 0 0 1-61.824-16.575l49.707-185.451a32 32 0 0 1 39.19-22.613zm-139.05-1.45a32 32 0 0 1 22.613 39.189l-27.584 103.04a32 32 0 1 1-61.824-16.555l27.605-103.04a32 32 0 0 1 39.19-22.613zm-256.043 0a32 32 0 0 1 22.613 39.189l-27.584 103.04a32 32 0 1 1-61.824-16.555l27.606-103.04a32 32 0 0 1 39.189-22.613zM512 53.333c98.987 0 185.003 64.726 213.867 157.12l.832 2.88h24.042c118.166 0 219.03 88.171 229.632 203.179l.47 5.973c8.405 129.75-94.23 238.848-223.51 238.848H273.28c-120.213 0-222.507-91.221-230.101-209.152-8.448-129.749 94.208-238.848 223.466-238.848h30.635l.853-2.88A224.128 224.128 0 0 1 505.813 53.42zm0 64a160.085 160.085 0 0 0-155.093 120.47c-5.952 23.616-27.52 39.53-51.52 39.53h-38.72c-92.331 0-165.654 77.91-159.638 170.71 5.398 83.584 79.083 149.29 166.208 149.29h484.096c92.374 0 165.675-77.909 159.659-170.709-5.419-83.541-79.147-149.29-166.272-149.29h-32.15c-23.935 0-45.482-15.894-51.455-39.467a160.107 160.107 0 0 0-155.136-120.534z" /></svg>
