<svg class="icon" viewBox="0 0 1024 1024" xmlns="http://www.w3.org/2000/svg" width="200" height="200"><path d="M520.265.585h-9.435C234.496.512 5.632 225.28.512 501.541c-5.12 281.6 219.721 514.633 501.248 519.826h9.509c276.187 0 505.197-224.841 510.244-501.102A511.195 511.195 0 0 0 520.265.585zm283.502 391.753l-330.533 340.26a30.5 30.5 0 0 1-20.626 8.12c-8.558 2.194-15.872-3.219-21.577-8.924L265.143 531.09c-11.484-11.703-11.922-44.47 0-55.515 11.776-11.191 46.08-11.703 57.417 0l130.706 167.278 293.01-306.03c11.923-11.045 46.007-11.484 57.564 0 11.337 11.556 11.85 44.47 0 55.588z"/></svg>