<svg class="icon" viewBox="0 0 1024 1024" xmlns="http://www.w3.org/2000/svg" width="200" height="200"><path d="M480 341.29h320l10.24.342a138.667 138.667 0 0 1 128.213 130.432l.214 7.893v320A138.667 138.667 0 0 1 807.85 938.411l-7.851.213H480a138.667 138.667 0 0 1-138.453-130.816l-.214-7.808V480A138.667 138.667 0 0 1 472.15 341.547l7.851-.214zm-74.667 458.667l.214 5.419.768 6.699a74.667 74.667 0 0 0 67.584 62.293l6.101.256h320a74.667 74.667 0 0 0 74.41-68.565l.257-6.102v-320A74.667 74.667 0 0 0 800 405.291H480a74.667 74.667 0 0 0-74.41 68.522l-.257 6.144v320zM672 213.333a138.752 138.752 0 0 1 128 85.248h-75.861A74.41 74.41 0 0 0 678.1 277.59l-6.101-.256H352a74.667 74.667 0 0 0-74.41 68.523l-.257 6.144v320l.427 8.363c1.92 17.024 9.557 32.298 20.907 43.904v75.776a138.752 138.752 0 0 1-85.12-120.192l-.214-7.851V352A138.667 138.667 0 0 1 344.15 213.547l7.851-.214h320zm-128-128c55.467 0 103.296 32.555 125.483 79.616l2.517 5.718-75.819-.043a74.41 74.41 0 0 0-46.08-21.035l-6.101-.256H224a74.667 74.667 0 0 0-74.41 68.523l-.257 6.144v320c0 20.352 8.107 38.827 21.334 52.267v75.776a138.752 138.752 0 0 1-85.12-120.192L85.333 544V224A138.667 138.667 0 0 1 216.15 85.547l7.851-.214h320z"/></svg>
