<svg class="icon" viewBox="0 0 1024 1024" xmlns="http://www.w3.org/2000/svg" width="200" height="200"><path d="M767.23 482.61c35.1-31.02 57.35-75.93 57.35-126 0-86.84-65.08-158.94-151.38-167.72-17.47-1.77-33.28 11.03-35.08 28.61-1.78 17.58 11.03 33.28 28.61 35.06 53.5 5.45 93.84 50.17 93.84 104.05 0 53.31-39.88 97.98-92.75 103.92-11.64 1.3-20.63 8.96-25.12 18.91-.04.08-.08.15-.12.22-1.24 2.8-1.94 5.7-2.33 8.82-.2 1.16-.82 2.15-.88 3.35-.05.89.35 1.66.37 2.53.03.53-.19 1-.13 1.53.09.8.53 1.44.68 2.21 2.18 14.73 13.84 26.58 29.28 27.44 119.3 6.59 216.69 101.45 226.55 220.66 1.38 16.72 15.38 29.36 31.86 29.36.88 0 1.77-.03 2.67-.11 17.61-1.45 30.7-16.91 29.25-34.53-9.75-117.84-87.27-216.63-192.67-258.31z"/><path d="M536.12 499.11c44.15-35.34 72.55-89.57 72.55-150.39 0-106.25-86.44-192.69-192.67-192.69s-192.67 86.44-192.67 192.69c0 60.81 28.4 115.05 72.55 150.39C170 545.37 75.68 661.55 64.11 801.33c-1.45 17.61 11.64 33.08 29.25 34.53 18.06 1.56 33.08-11.66 34.53-29.25C140.19 657.89 266.75 541.39 416 541.39s275.81 116.5 288.11 265.22c1.38 16.72 15.38 29.36 31.86 29.36.88 0 1.77-.03 2.67-.11 17.61-1.45 30.7-16.92 29.25-34.53C756.32 661.55 662 545.37 536.12 499.11zM287.33 348.72c0-70.95 57.72-128.69 128.67-128.69s128.67 57.73 128.67 128.69S486.95 477.39 416 477.39s-128.67-57.72-128.67-128.67z"/></svg>
