<svg class="icon" viewBox="0 0 1024 1024" xmlns="http://www.w3.org/2000/svg" width="200" height="200"><path d="M0 327.51c0-117.675 95.516-213.05 213.333-213.05h359.254a213.22 213.22 0 0 1 212.992 200.25l175.786-92.929A42.724 42.724 0 0 1 1024 259.413v497.494a42.61 42.61 0 0 1-62.635 37.66l-177.834-94.066a213.276 213.276 0 0 1-210.916 180.907H213.333c-56.604 0-110.848-22.443-150.84-62.407A212.907 212.907 0 0 1 0 668.388V592.64a42.61 42.61 0 0 1 64-36.92 42.623 42.623 0 0 1 21.333 36.92v75.748a127.915 127.915 0 0 0 128 127.829h359.254c70.684 0 128-57.23 128-127.83v-37.375a42.61 42.61 0 0 1 62.691-37.66l175.389 92.813V330.24l-175.389 92.729a42.724 42.724 0 0 1-62.663-37.632v-57.828a127.915 127.915 0 0 0-128-127.829H213.333a127.915 127.915 0 0 0-128 127.83v90.453a42.638 42.638 0 0 1-85.333 0v-90.454z"/><path d="M150.955 384.284a118.443 118.443 0 0 1 118.528-118.328h112.526A118.443 118.443 0 0 1 498.26 384.313 118.443 118.443 0 0 1 382.01 502.67H269.483a118.443 118.443 0 0 1-118.528-118.357zm118.528-33.08a33.195 33.195 0 0 0-29.725 50.062c6.173 10.41 17.579 16.611 29.725 16.185h112.526a33.166 33.166 0 0 0 0-66.276H269.483z"/></svg>