<svg class="icon" viewBox="0 0 1024 1024" xmlns="http://www.w3.org/2000/svg" width="200" height="200"><path d="M921.6 704.512l-358.4 179.2V819.2H460.8v64.512l-358.4-179.2V614.4H0V768l512 256 512-256V614.4H921.6v90.112zM512 0L0 256v153.6h102.4v-90.112l358.4-179.2V204.8h102.4v-64.512l358.4 179.2V409.6H1024V256L512 0z"/><path d="M349.696 637.952a65.024 65.024 0 0 1-45.568-16.896 102.4 102.4 0 0 1-26.624-54.784l-45.056 5.632a111.616 111.616 0 0 0 36.864 74.752 114.688 114.688 0 0 0 79.872 28.672 124.416 124.416 0 0 0 88.576-33.28 110.08 110.08 0 0 0 34.816-78.848 94.208 94.208 0 0 0-17.92-59.392 83.456 83.456 0 0 0-51.2-30.72 86.016 86.016 0 0 0 37.888-31.232 75.776 75.776 0 0 0 12.8-43.008 92.672 92.672 0 0 0-13.312-47.616 90.624 90.624 0 0 0-38.4-34.816 118.784 118.784 0 0 0-55.296-12.8 108.544 108.544 0 0 0-72.704 24.576 113.664 113.664 0 0 0-37.888 70.144l45.056 8.192a83.456 83.456 0 0 1 22.528-51.2 62.464 62.464 0 0 1 44.032-16.384 57.856 57.856 0 0 1 43.008 16.384 51.2 51.2 0 0 1 16.896 40.96 51.2 51.2 0 0 1-23.04 46.08 95.232 95.232 0 0 1-51.2 14.848h-7.168l-5.12 39.424a138.752 138.752 0 0 1 31.744-4.608A69.12 69.12 0 0 1 404.48 512a67.584 67.584 0 0 1 20.48 51.2 72.704 72.704 0 0 1-22.016 51.2 71.168 71.168 0 0 1-53.248 23.552zm372.736 24.576a122.88 122.88 0 0 0 77.312-51.2 177.664 177.664 0 0 0 25.088-51.2 268.8 268.8 0 0 0 9.728-74.24 244.224 244.224 0 0 0-15.36-89.6 145.92 145.92 0 0 0-43.008-62.464 120.32 120.32 0 0 0-53.248-26.624 296.96 296.96 0 0 0-65.536-5.632H531.456V668.16H665.6a256 256 0 0 0 56.832-5.632zm-142.336-36.864V345.6h76.8a183.296 183.296 0 0 1 62.464 7.68 90.112 90.112 0 0 1 46.08 40.96 169.984 169.984 0 0 1 18.944 88.576 220.16 220.16 0 0 1-9.728 70.656 111.616 111.616 0 0 1-26.624 46.08 84.48 84.48 0 0 1-33.28 19.456 200.192 200.192 0 0 1-56.832 6.656z"/></svg>