<svg class="icon" viewBox="0 0 1024 1024" xmlns="http://www.w3.org/2000/svg" width="200" height="200"><path d="M604.16 604.201c62.275.005 114.693 46.592 122.025 108.426 7.332 61.834-32.748 119.378-93.286 133.945-60.544 14.566-122.415-18.453-144.01-76.852a30.72 30.72 0 0 1 57.195-22.41l.43 1.096a61.45 61.45 0 1 0 59.197-82.745l-1.551-.02H174.08a30.72 30.72 0 0 1-1.152-61.42l1.152-.02h430.08zm-238.152-349.84c21.596-58.403 83.467-91.417 144.005-76.85 60.544 14.566 100.624 72.11 93.292 133.944-7.255 61.2-58.675 107.458-120.1 108.41l-1.925.016H112.64a30.72 30.72 0 0 1-1.152-61.42l1.152-.02h368.64a61.45 61.45 0 1 0-57.088-84.24l-.563 1.475a30.72 30.72 0 1 1-57.626-21.314z"/><path d="M703.928 377.242c21.596-58.404 83.467-91.418 144.005-76.852 60.544 14.567 100.624 72.11 93.292 133.945-7.255 61.2-58.675 107.458-120.1 108.41l-1.925.016H143.36a30.72 30.72 0 0 1-1.152-61.42l1.152-.02H819.2a61.45 61.45 0 1 0-57.083-84.24l-.563 1.475a30.72 30.72 0 1 1-57.626-21.314z"/></svg>