<!--
<svg data-v-2cb57da0="" version="1.0" xmlns="http://www.w3.org/2000/svg" xmlns:xlink="http://www.w3.org/1999/xlink"
     width="100%" height="100%" viewBox="0 0 340.000000 250.000000" preserveAspectRatio="xMidYMid meet"
     color-interpolation-filters="sRGB" style="margin: auto;">
  <rect data-v-2cb57da0="" x="0" y="0" width="100%" height="100%" fill="#feffff" fill-opacity="1"
        class="background"></rect>
  <rect data-v-2cb57da0="" x="0" y="0" width="100%" height="100%" fill="url(#watermark)" fill-opacity="1"
        class="watermarklayer"></rect>
  <g data-v-2cb57da0="" fill="#333" class="iconlinesvg-g iconlinesvg"
     transform="translate(73.44181823730469,105.60275459289551)">
    <g class="tp-name" transform="translate(0,0)">
      <g transform="translate(0, 1.5840382729186775)">
        <g>
          <g class="imagesvg">
            <g>
              <rect fill="#333" fill-opacity="0" stroke-width="2" x="0" y="0" width="24.275612903225806"
                    height="21.050105272344464" class="image-rect"></rect>
              <svg x="0" y="0" width="24.275612903225806" height="21.050105272344464" filtersec="colorsb2628067129"
                   class="image-svg-svg primary" style="overflow: visible;">
                <svg xmlns="http://www.w3.org/2000/svg" viewBox="0 0 71.5 62">
                  <title>资源 186</title>
                  <path
                      d="M35.75 62c-2.45-4.24-4.72-8.22-7-12.16-.5-.85.06-1.36.39-1.93q9.56-16.59 19.15-33.19c.35-.61.69-1.22 1.23-2.19H9.23a3.11 3.11 0 0 1-3.16-1.88C4.18 7.14 2.13 3.69 0 0h71.5C59.59 20.64 47.77 41.11 35.75 62z"
                      fill="#191a1c"></path>
                  <path
                      d="M32.12 22.29c-.11.21-.22.44-.35.67-3.05 5.27-6.11 10.54-9.13 15.82-.69 1.2-1.19 1.27-1.91 0Q16.32 31 11.8 23.28c-.76-1.3-.81-1.91 1-1.89 5.9.07 11.81 0 17.71 0 .63.04 1.56-.33 1.61.9z"
                      fill="#fbe00e"></path>
                </svg>
              </svg> &lt;!&ndash;&ndash;&gt;
            </g>
          </g>
        </g>
      </g>
      <g transform="translate(28, 0)">
        <g data-gra="path-name" fill="#333" transform="scale(1)">
          <path
              d="M2.23-17.54L5.24-17.54L5.24 0L2.23 0L2.23-17.54ZM5.24-23.96L5.24-20.68L2.23-20.68L2.23-23.96L5.24-23.96Z"
              transform="translate(-2.2254545454545456, 23.956363636363637)"></path>
        </g>
      </g>
      <g transform="translate(35, 0)">
        <g data-gra="path-name" fill="#333" transform="scale(1)">
          <path
              d="M8.64-17.54L8.64-15.05L5.76-15.05L5.76-3.67Q5.76-2.23 7.46-2.23L7.46-2.23L8.64-2.23L8.64 0Q7.85 0 6.81 0L6.81 0Q6.55 0 6.41 0L6.41 0Q2.62 0 2.75-3.40L2.75-3.40L2.75-15.05L0.52-15.05L0.52-17.54L2.75-17.54L2.75-22.39L5.76-22.39L5.76-17.54L8.64-17.54Z"
              transform="translate(-0.5236363636363636, 23.956363636363637)"></path>
        </g>
      </g>
      <g transform="translate(47, 0)">
        <g data-gra="path-name" fill="#333" transform="scale(1)">
          <path
              d="M14.14-5.50L14.14-5.50L17.02-5.50Q16.49-2.49 13.88-0.65L13.88-0.65Q12.44 0.26 9.16 0.26L9.16 0.26Q1.70 0 1.31-8.25L1.31-8.25Q1.57-17.80 9.69-18.07L9.69-18.07Q17.15-17.93 17.28-7.72L17.28-7.72L4.45-7.72Q4.45-1.96 9.56-1.96L9.56-1.96Q13.22-2.23 14.14-5.50ZM4.45-10.08L4.45-10.08L14.27-10.08Q13.88-15.32 9.29-15.32L9.29-15.32Q4.97-14.92 4.45-10.08Z"
              transform="translate(-1.3090909090909089, 23.956363636363637)"></path>
        </g>
      </g>
      <g transform="translate(66, 0)">
        <g data-gra="path-name" fill="#333" transform="scale(1)">
          <path d="" transform="translate(0, 23.956363636363637)"></path>
        </g>
      </g>
      <g transform="translate(76, 0)">
        <g data-gra="path-name" fill="#333" transform="scale(1)">
          <path
              d="M14.14-5.50L14.14-5.50L17.02-5.50Q16.49-2.49 13.88-0.65L13.88-0.65Q12.44 0.26 9.16 0.26L9.16 0.26Q1.70 0 1.31-8.25L1.31-8.25Q1.57-17.80 9.69-18.07L9.69-18.07Q17.15-17.93 17.28-7.72L17.28-7.72L4.45-7.72Q4.45-1.96 9.56-1.96L9.56-1.96Q13.22-2.23 14.14-5.50ZM4.45-10.08L4.45-10.08L14.27-10.08Q13.88-15.32 9.29-15.32L9.29-15.32Q4.97-14.92 4.45-10.08Z"
              transform="translate(-1.3090909090909089, 23.956363636363637)"></path>
        </g>
      </g>
      <g transform="translate(95, 0)">
        <g data-gra="path-name" fill="#333" transform="scale(1)">
          <path d="M2.23-23.96L5.24-23.96L5.24 0L2.23 0L2.23-23.96Z"
                transform="translate(-2.2254545454545456, 23.956363636363637)"></path>
        </g>
      </g>
      <g transform="translate(102, 0)">
        <g data-gra="path-name" fill="#333" transform="scale(1)">
          <path
              d="M14.14-5.50L14.14-5.50L17.02-5.50Q16.49-2.49 13.88-0.65L13.88-0.65Q12.44 0.26 9.16 0.26L9.16 0.26Q1.70 0 1.31-8.25L1.31-8.25Q1.57-17.80 9.69-18.07L9.69-18.07Q17.15-17.93 17.28-7.72L17.28-7.72L4.45-7.72Q4.45-1.96 9.56-1.96L9.56-1.96Q13.22-2.23 14.14-5.50ZM4.45-10.08L4.45-10.08L14.27-10.08Q13.88-15.32 9.29-15.32L9.29-15.32Q4.97-14.92 4.45-10.08Z"
              transform="translate(-1.3090909090909089, 23.956363636363637)"></path>
        </g>
      </g>
      <g transform="translate(121, 0)">
        <g data-gra="path-name" fill="#333" transform="scale(1)">
          <path
              d="M5.11 0L2.09 0L2.09-17.54L4.97-17.54L4.97-15.05Q6.94-18.07 10.34-18.07L10.34-18.07Q13.35-18.07 14.79-15.32L14.79-15.32Q14.92-15.19 14.92-15.19L14.92-15.19Q17.28-18.20 20.29-18.07L20.29-18.07Q25.66-17.67 25.79-12.04L25.79-12.04L25.79 0L22.78 0L22.78-11.26Q22.91-15.45 19.51-15.32L19.51-15.32Q15.84-14.92 15.45-10.60L15.45-10.60L15.45 0L12.44 0L12.44-12.04Q12.44-15.32 9.69-15.32L9.69-15.32Q5.24-15.05 5.11-9.56L5.11-9.56L5.11 0Z"
              transform="translate(-2.0945454545454543, 23.956363636363637)"></path>
        </g>
      </g>
      <g transform="translate(148, 0)">
        <g data-gra="path-name" fill="#333" transform="scale(1)">
          <path
              d="M14.14-5.50L14.14-5.50L17.02-5.50Q16.49-2.49 13.88-0.65L13.88-0.65Q12.44 0.26 9.16 0.26L9.16 0.26Q1.70 0 1.31-8.25L1.31-8.25Q1.57-17.80 9.69-18.07L9.69-18.07Q17.15-17.93 17.28-7.72L17.28-7.72L4.45-7.72Q4.45-1.96 9.56-1.96L9.56-1.96Q13.22-2.23 14.14-5.50ZM4.45-10.08L4.45-10.08L14.27-10.08Q13.88-15.32 9.29-15.32L9.29-15.32Q4.97-14.92 4.45-10.08Z"
              transform="translate(-1.3090909090909089, 23.956363636363637)"></path>
        </g>
      </g>
      <g transform="translate(167, 0)">
        <g data-gra="path-name" fill="#333" transform="scale(1)">
          <path
              d="M16.36-11.91L16.36-11.91L16.36 0L13.48 0L13.48-10.73Q13.75-15.58 9.69-15.32L9.69-15.32Q5.24-15.05 5.11-9.56L5.11-9.56L5.11 0L2.09 0L2.09-17.54L4.97-17.54L4.97-15.05Q7.07-18.07 10.34-18.07L10.34-18.07Q16.23-17.93 16.36-11.91Z"
              transform="translate(-2.0945454545454543, 23.956363636363637)"></path>
        </g>
      </g>
      <g transform="translate(185, 0)">
        <g data-gra="path-name" fill="#333" transform="scale(1)">
          <path
              d="M8.64-17.54L8.64-15.05L5.76-15.05L5.76-3.67Q5.76-2.23 7.46-2.23L7.46-2.23L8.64-2.23L8.64 0Q7.85 0 6.81 0L6.81 0Q6.55 0 6.41 0L6.41 0Q2.62 0 2.75-3.40L2.75-3.40L2.75-15.05L0.52-15.05L0.52-17.54L2.75-17.54L2.75-22.39L5.76-22.39L5.76-17.54L8.64-17.54Z"
              transform="translate(-0.5236363636363636, 23.956363636363637)"></path>
        </g>
      </g>
    </g>
    <g data-gra="path-slogan" fill-rule="" class="tp-slogan" fill="#333" transform="translate(5,30.219999313354492)">
      <rect x="0" height="1" y="3.7899999618530273" width="19.088180541992188"></rect>
      <rect height="1" y="3.7899999618530273" width="19.088180541992188" x="164.02818298339844"></rect>
      <g transform="translate(22.088180541992188,0)">
        <g transform="scale(1)">
          <path
              d="M6.56 0L5.72-2.48L2.25-2.48L1.36 0L0.19 0L3.42-8.58L4.73-8.58L7.83 0L6.56 0ZM3.98-7.31L2.63-3.52L5.30-3.52L4.03-7.31L3.98-7.31ZM12.38 0L8.91 0L8.91-8.58L12.42-8.58Q15.89-8.39 16.03-4.41L16.03-4.41Q15.84-0.09 12.38 0L12.38 0ZM12.23-7.64L10.08-7.64L10.08-0.98L12.33-0.98Q14.77-1.13 14.86-4.31L14.86-4.31Q14.81-7.55 12.23-7.64L12.23-7.64ZM25.73-8.58L25.73 0L24.61 0L24.61-5.06Q24.61-5.77 24.61-7.22L24.61-7.22L22.17 0L21 0L18.61-7.22L18.56-7.22Q18.56-6.70 18.61-5.67L18.61-5.67Q18.61-5.16 18.61-5.06L18.61-5.06L18.61 0L17.44 0L17.44-8.58L19.13-8.58L21.61-1.31L24.05-8.58L25.73-8.58ZM27.61-8.58L28.78-8.58L28.78 0L27.61 0L27.61-8.58ZM32.16-8.58L36.47-1.64L36.47-8.58L37.59-8.58L37.59 0L36.28 0L31.92-6.94L31.88-6.94L31.88 0L30.75 0L30.75-8.58L32.16-8.58ZM44.02-1.03L49.17-1.03L49.17 0L42.84 0L42.84-8.58L49.08-8.58L49.08-7.59L44.02-7.59L44.02-4.92L48.70-4.92L48.70-3.89L44.02-3.89L44.02-1.03ZM50.67-8.58L51.84-8.58L51.84-1.03L56.20-1.03L56.20 0L50.67 0L50.67-8.58ZM58.64-1.03L63.80-1.03L63.80 0L57.47 0L57.47-8.58L63.70-8.58L63.70-7.59L58.64-7.59L58.64-4.92L63.33-4.92L63.33-3.89L58.64-3.89L58.64-1.03ZM73.55-8.58L73.55 0L72.42 0L72.42-5.06Q72.42-5.77 72.42-7.22L72.42-7.22L69.98 0L68.81 0L66.42-7.22L66.38-7.22Q66.38-6.70 66.42-5.67L66.42-5.67Q66.42-5.16 66.42-5.06L66.42-5.06L66.42 0L65.25 0L65.25-8.58L66.94-8.58L69.42-1.31L71.86-8.58L73.55-8.58ZM76.55-1.03L81.70-1.03L81.70 0L75.38 0L75.38-8.58L81.61-8.58L81.61-7.59L76.55-7.59L76.55-4.92L81.23-4.92L81.23-3.89L76.55-3.89L76.55-1.03ZM84.61-8.58L88.92-1.64L88.92-8.58L90.05-8.58L90.05 0L88.73 0L84.38-6.94L84.33-6.94L84.33 0L83.20 0L83.20-8.58L84.61-8.58ZM94.03-7.59L91.13-7.59L91.13-8.58L98.06-8.58L98.06-7.59L95.16-7.59L95.16 0L94.03 0L94.03-7.59ZM108.09 0L107.25-2.48L103.78-2.48L102.89 0L101.72 0L104.95-8.58L106.27-8.58L109.36 0L108.09 0ZM105.52-7.31L104.16-3.52L106.83-3.52L105.56-7.31L105.52-7.31ZM113.91 0L110.44 0L110.44-8.58L113.95-8.58Q117.42-8.39 117.56-4.41L117.56-4.41Q117.38-0.09 113.91 0L113.91 0ZM113.77-7.64L111.61-7.64L111.61-0.98L113.86-0.98Q116.30-1.13 116.39-4.31L116.39-4.31Q116.34-7.55 113.77-7.64L113.77-7.64ZM127.27-8.58L127.27 0L126.14 0L126.14-5.06Q126.14-5.77 126.14-7.22L126.14-7.22L123.70 0L122.53 0L120.14-7.22L120.09-7.22Q120.09-6.70 120.14-5.67L120.14-5.67Q120.14-5.16 120.14-5.06L120.14-5.06L120.14 0L118.97 0L118.97-8.58L120.66-8.58L123.14-1.31L125.58-8.58L127.27-8.58ZM129.14-8.58L130.31-8.58L130.31 0L129.14 0L129.14-8.58ZM133.69-8.58L138-1.64L138-8.58L139.13-8.58L139.13 0L137.81 0L133.45-6.94L133.41-6.94L133.41 0L132.28 0L132.28-8.58L133.69-8.58Z"
              transform="translate(-0.1875, 8.578125)"></path>
        </g>
      </g>
    </g>
  </g>
  <defs v-gra="od"></defs>
</svg>
-->


<svg data-v-2cb57da0="" version="1.0" xmlns="http://www.w3.org/2000/svg" xmlns:xlink="http://www.w3.org/1999/xlink"
     width="100%" height="100%" viewBox="0 0 340.000000 250.000000" preserveAspectRatio="xMidYMid meet"
     color-interpolation-filters="sRGB" style="margin: auto;">
<!--<rect data-v-2cb57da0="" x="0" y="0" width="100%" height="100%" fill="#ffffff" fill-opacity="0"-->
<!--      class="background __web-inspector-hide-shortcut__"></rect>-->
<!--<rect data-v-2cb57da0="" x="0" y="0" width="100%" height="100%" fill="url(#watermark)" fill-opacity="1"-->
<!--      class="watermarklayer __web-inspector-hide-shortcut__"></rect>-->
<g data-v-2cb57da0="" fill="#5993d4" class="iconlinesvg-g iconlinesvg"
   transform="translate(64.04782104492188,100.00753211975098)">
  <g class="tp-name" transform="matrix(1,0,0,1,0,0)" opacity="1">
    <g transform="translate(0, 1.6714721012417506)">
      <g>
        <g class="imagesvg">
          <g>
            <rect fill="#5993d4" fill-opacity="0" stroke-width="2" x="0" y="0" width="24.275612903225806"
                  height="33.735339433880135" class="image-rect"></rect>
            <svg x="0" y="0" width="24.275612903225806" height="33.735339433880135" filtersec="colorsb1734549759"
                 class="image-svg-svg primary" style="overflow: visible;">
              <svg xmlns="http://www.w3.org/2000/svg" viewBox="0 0 150.7899932861328 209.5500030517578">
                <defs>
                  <filter id="a71261638-d185-491d-896e-25a8d370271b" x="18.21" y="36.98" width="120.23" height="147.52"
                          filterUnits="userSpaceOnUse" color-interpolation-filters="sRGB">
                    <feFlood flood-color="#fff" result="bg"></feFlood>
                    <feBlend in="SourceGraphic" in2="bg"></feBlend>
                  </filter>
                  <mask id="b93d8ac15-e914-4bee-be82-fc44b4e33de2" x="18.21" y="36.98" width="120.23" height="147.52"
                        maskUnits="userSpaceOnUse">
                    <path filter="url(#a71261638-d185-491d-896e-25a8d370271b)"
                          d="M89.05 36.98L69.32 109.1 49.6 36.98H18.21l35.43 129.51h31.39l35.4-129.51H89.05z"
                          fill="#000000"></path>
                  </mask>
                </defs>
                <title>资源 22</title>
                <path fill="none" d="M0 0h150.79v209.55H0z"></path>
                <g mask="url(#b93d8ac15-e914-4bee-be82-fc44b4e33de2)">
                  <path fill="#f7b634" d="M87.33 127.11L67.61 54.99 49.6 36.98l19.72 72.12 18.01 18.01z"></path>
                  <path fill="#f7b634"
                        d="M120.43 36.98l-35.4 129.51H53.64l18.01 18.01h31.39l35.4-129.51-18.01-18.01z"></path>
                </g>
                <path fill="#f7b634"
                      d="M82.97 30.91l-19.72 72.12-19.72-72.12H12.14l35.43 129.51h31.39l35.4-129.51H82.97z"></path>
              </svg>
            </svg> <!---->
          </g>
        </g>
      </g>
    </g>
    <g transform="translate(24, 0)">
      <g data-gra="path-name" fill="#5993d4" transform="scale(1)">
        <path
            d="M6.64-20.31L6.64-20.31Q6.64-19.60 6.15-19.12Q5.66-18.63 4.99-18.63L4.99-18.63Q4.32-18.63 3.84-19.12Q3.35-19.60 3.35-20.31L3.35-20.31Q3.35-20.98 3.84-21.46Q4.32-21.95 4.99-21.95L4.99-21.95Q5.66-21.95 6.15-21.46Q6.64-20.98 6.64-20.31L6.64-20.31L6.64-20.31ZM6.30-16.89L6.30 2.88L3.69 2.88L3.69-16.89L6.30-16.89Z"
            transform="translate(-3.351272727272727, 23.995112727272726)"></path>
      </g>
    </g>
    <g transform="translate(31, 0)">
      <g data-gra="path-name" fill="#5993d4" transform="scale(1)">
        <path
            d="M14.51-14.24L14.51-14.24L9.55-14.24L9.55 0.30L14.58 0.30L14.58 2.95L8.21 2.95Q7.67 2.95 7.29 2.56Q6.90 2.18 6.90 1.61L6.90 1.61L6.90-14.24L1.68-14.24L1.68-16.89L6.90-16.89L6.90-21.92L9.55-21.92L9.55-16.89L14.51-16.89L14.51-14.24Z"
            transform="translate(-1.6756363636363636, 23.995112727272726)"></path>
      </g>
    </g>
    <g transform="translate(47, 0)">
      <g data-gra="path-name" fill="#5993d4" transform="scale(1)">
        <path
            d="M18.70 2.82L18.70 2.82L3.02 2.82Q2.45 2.82 2.06 2.45Q1.68 2.08 1.68 1.51L1.68 1.51L1.68-15.58Q1.68-16.15 2.06-16.52Q2.45-16.89 3.02-16.89L3.02-16.89L17.46-16.89Q18.03-16.89 18.42-16.52Q18.80-16.15 18.80-15.58L18.80-15.58L18.80-6.13Q18.80-5.60 18.42-5.21Q18.03-4.83 17.46-4.83L17.46-4.83L4.32-4.83L4.32 0.17L18.70 0.17L18.70 2.82ZM4.32-14.28L4.32-7.47L16.15-7.47L16.15-14.28L4.32-14.28Z"
            transform="translate(-1.6756363636363636, 23.995112727272726)"></path>
      </g>
    </g>
    <g transform="translate(68, 0)">
      <g data-gra="path-name" fill="#5993d4" transform="scale(1)">
        <path d="" transform="translate(0, 23.995112727272726)"></path>
      </g>
    </g>
    <g transform="translate(79, 0)">
      <g data-gra="path-name" fill="#5993d4" transform="scale(1)">
        <path
            d="M23.96-9.12L23.96-9.12L3.65-9.12L3.65 0.44L24.77 0.44L24.77 3.08L2.31 3.08Q1.78 3.08 1.39 2.70Q1.01 2.31 1.01 1.78L1.01 1.78L1.01-22.69Q1.01-23.26 1.39-23.63Q1.78-24.00 2.31-24.00L2.31-24.00L24.77-24.00L24.77-21.35L3.65-21.35L3.65-11.76L23.96-11.76L23.96-9.12Z"
            transform="translate(-1.0053818181818182, 23.995112727272726)"></path>
      </g>
    </g>
    <g transform="translate(106, 0)">
      <g data-gra="path-name" fill="#5993d4" transform="scale(1)">
        <path d="M5.97-23.76L5.97 3.08L3.35 3.08L3.35-23.76L5.97-23.76Z"
              transform="translate(-3.351272727272727, 23.995112727272726)"></path>
      </g>
    </g>
    <g transform="translate(112, 0)">
      <g data-gra="path-name" fill="#5993d4" transform="scale(1)">
        <path
            d="M18.70 2.82L18.70 2.82L3.02 2.82Q2.45 2.82 2.06 2.45Q1.68 2.08 1.68 1.51L1.68 1.51L1.68-15.58Q1.68-16.15 2.06-16.52Q2.45-16.89 3.02-16.89L3.02-16.89L17.46-16.89Q18.03-16.89 18.42-16.52Q18.80-16.15 18.80-15.58L18.80-15.58L18.80-6.13Q18.80-5.60 18.42-5.21Q18.03-4.83 17.46-4.83L17.46-4.83L4.32-4.83L4.32 0.17L18.70 0.17L18.70 2.82ZM4.32-14.28L4.32-7.47L16.15-7.47L16.15-14.28L4.32-14.28Z"
            transform="translate(-1.6756363636363636, 23.995112727272726)"></path>
      </g>
    </g>
    <g transform="translate(133, 0)">
      <g data-gra="path-name" fill="#5993d4" transform="scale(1)">
        <path
            d="M23.53 2.92L23.53 2.92L20.88 2.92L20.88-14.24L13.91-14.24L13.91 2.92L11.29 2.92L11.29-14.24L4.32-14.24L4.32 2.92L1.68 2.92L1.68-15.55Q1.68-16.12 2.04-16.51Q2.41-16.89 2.98-16.89L2.98-16.89L12.43-16.89L12.60-16.89L22.22-16.89Q22.76-16.89 23.14-16.51Q23.53-16.12 23.53-15.55L23.53-15.55L23.53 2.92Z"
            transform="translate(-1.6756363636363636, 23.995112727272726)"></path>
      </g>
    </g>
    <g transform="translate(158, 0)">
      <g data-gra="path-name" fill="#5993d4" transform="scale(1)">
        <path
            d="M18.70 2.82L18.70 2.82L3.02 2.82Q2.45 2.82 2.06 2.45Q1.68 2.08 1.68 1.51L1.68 1.51L1.68-15.58Q1.68-16.15 2.06-16.52Q2.45-16.89 3.02-16.89L3.02-16.89L17.46-16.89Q18.03-16.89 18.42-16.52Q18.80-16.15 18.80-15.58L18.80-15.58L18.80-6.13Q18.80-5.60 18.42-5.21Q18.03-4.83 17.46-4.83L17.46-4.83L4.32-4.83L4.32 0.17L18.70 0.17L18.70 2.82ZM4.32-14.28L4.32-7.47L16.15-7.47L16.15-14.28L4.32-14.28Z"
            transform="translate(-1.6756363636363636, 23.995112727272726)"></path>
      </g>
    </g>
    <g transform="translate(179, 0)">
      <g data-gra="path-name" fill="#5993d4" transform="scale(1)">
        <path
            d="M18.60 2.92L18.60 2.92L15.95 2.92L15.95-14.24L4.32-14.24L4.32 2.92L1.68 2.92L1.68-15.55Q1.68-16.12 2.06-16.51Q2.45-16.89 3.02-16.89L3.02-16.89L17.29-16.89Q17.83-16.89 18.21-16.51Q18.60-16.12 18.60-15.55L18.60-15.55L18.60 2.92Z"
            transform="translate(-1.6756363636363636, 23.995112727272726)"></path>
      </g>
    </g>
    <g transform="translate(199, 0)">
      <g data-gra="path-name" fill="#5993d4" transform="scale(1)">
        <path
            d="M14.51-14.24L14.51-14.24L9.55-14.24L9.55 0.30L14.58 0.30L14.58 2.95L8.21 2.95Q7.67 2.95 7.29 2.56Q6.90 2.18 6.90 1.61L6.90 1.61L6.90-14.24L1.68-14.24L1.68-16.89L6.90-16.89L6.90-21.92L9.55-21.92L9.55-16.89L14.51-16.89L14.51-14.24Z"
            transform="translate(-1.6756363636363636, 23.995112727272726)"></path>
      </g>
    </g>
  </g>
  <g data-gra="path-slogan" fill-rule="" class="tp-slogan" fill="#5993d4"
     transform="matrix(1,0,0,1,5,41.41169738769531)" opacity="1">
    <rect x="0" height="1" y="3.7899999618530273" width="34.482181549072266"></rect>
    <rect height="1" y="3.7899999618530273" width="34.482181549072266" x="167.42217636108398"></rect>
    <g transform="translate(37.482181549072266,0)">
      <g transform="scale(1)">
        <path
            d="M1.55-8.58L3.98-1.27L6.47-8.58L7.78-8.58L4.64 0L3.38 0L0.23-8.58L1.55-8.58ZM9.05-8.58L10.22-8.58L10.22 0L9.05 0L9.05-8.58ZM14.39-7.59L11.48-7.59L11.48-8.58L18.42-8.58L18.42-7.59L15.52-7.59L15.52 0L14.39 0L14.39-7.59ZM20.77-1.03L25.92-1.03L25.92 0L19.59 0L19.59-8.58L25.83-8.58L25.83-7.59L20.77-7.59L20.77-4.92L25.45-4.92L25.45-3.89L20.77-3.89L20.77-1.03ZM32.06-1.03L37.22-1.03L37.22 0L30.89 0L30.89-8.58L37.13-8.58L37.13-7.59L32.06-7.59L32.06-4.92L36.75-4.92L36.75-3.89L32.06-3.89L32.06-1.03ZM38.72-8.58L39.89-8.58L39.89-1.03L44.25-1.03L44.25 0L38.72 0L38.72-8.58ZM46.69-1.03L51.84-1.03L51.84 0L45.52 0L45.52-8.58L51.75-8.58L51.75-7.59L46.69-7.59L46.69-4.92L51.38-4.92L51.38-3.89L46.69-3.89L46.69-1.03ZM61.59-8.58L61.59 0L60.47 0L60.47-5.06Q60.47-5.77 60.47-7.22L60.47-7.22L58.03 0L56.86 0L54.47-7.22L54.42-7.22Q54.42-6.70 54.47-5.67L54.47-5.67Q54.47-5.16 54.47-5.06L54.47-5.06L54.47 0L53.30 0L53.30-8.58L54.98-8.58L57.47-1.31L59.91-8.58L61.59-8.58ZM64.59-1.03L69.75-1.03L69.75 0L63.42 0L63.42-8.58L69.66-8.58L69.66-7.59L64.59-7.59L64.59-4.92L69.28-4.92L69.28-3.89L64.59-3.89L64.59-1.03ZM72.66-8.58L76.97-1.64L76.97-8.58L78.09-8.58L78.09 0L76.78 0L72.42-6.94L72.38-6.94L72.38 0L71.25 0L71.25-8.58L72.66-8.58ZM82.08-7.59L79.17-7.59L79.17-8.58L86.11-8.58L86.11-7.59L83.20-7.59L83.20 0L82.08 0L82.08-7.59ZM96.14 0L95.30-2.48L91.83-2.48L90.94 0L89.77 0L93-8.58L94.31-8.58L97.41 0L96.14 0ZM93.56-7.31L92.20-3.52L94.88-3.52L93.61-7.31L93.56-7.31ZM101.95 0L98.48 0L98.48-8.58L102-8.58Q105.47-8.39 105.61-4.41L105.61-4.41Q105.42-0.09 101.95 0L101.95 0ZM101.81-7.64L99.66-7.64L99.66-0.98L101.91-0.98Q104.34-1.13 104.44-4.31L104.44-4.31Q104.39-7.55 101.81-7.64L101.81-7.64ZM115.31-8.58L115.31 0L114.19 0L114.19-5.06Q114.19-5.77 114.19-7.22L114.19-7.22L111.75 0L110.58 0L108.19-7.22L108.14-7.22Q108.14-6.70 108.19-5.67L108.19-5.67Q108.19-5.16 108.19-5.06L108.19-5.06L108.19 0L107.02 0L107.02-8.58L108.70-8.58L111.19-1.31L113.63-8.58L115.31-8.58ZM117.19-8.58L118.36-8.58L118.36 0L117.19 0L117.19-8.58ZM121.73-8.58L126.05-1.64L126.05-8.58L127.17-8.58L127.17 0L125.86 0L121.50-6.94L121.45-6.94L121.45 0L120.33 0L120.33-8.58L121.73-8.58Z"
            transform="translate(-0.234375, 8.578125)"></path>
      </g>
    </g>
  </g>
</g>
<defs v-gra="od"></defs>
</svg>
