<svg xmlns="http://www.w3.org/2000/svg" xmlns:xlink="http://www.w3.org/1999/xlink"
     width="100%" height="100%" viewBox="0 0 340.000000 250.000000" preserveAspectRatio="xMidYMid meet"
     color-interpolation-filters="sRGB" style="margin: auto;">
<rect data-v-2cb57da0="" x="0" y="0" width="100%" height="100%" fill="#ffffff" fill-opacity="0"
      class="background __web-inspector-hide-shortcut__"></rect>
<rect data-v-2cb57da0="" x="0" y="0" width="100%" height="100%" fill="url(#watermark)" fill-opacity="1"
      class="watermarklayer __web-inspector-hide-shortcut__"></rect>
<g data-v-2cb57da0="" fill="#5993d4" class="iconlinesvg-g iconlinesvg"
   transform="translate(64.04782104492188,100.00753211975098)">
  <g class="tp-name" transform="matrix(1,0,0,1,0,0)" opacity="1">
    <g transform="translate(0, 1.6714721012417506)">
      <g>
        <g class="imagesvg">
          <g>
            <rect fill="#5993d4" fill-opacity="0" stroke-width="2" x="0" y="0" width="24.275612903225806"
                  height="33.735339433880135" class="image-rect"></rect>
            <svg x="0" y="0" width="24.275612903225806" height="33.735339433880135" filtersec="colorsb1734549759"
                 class="image-svg-svg primary" style="overflow: visible;">
              <svg xmlns="http://www.w3.org/2000/svg" viewBox="0 0 150.7899932861328 209.5500030517578">
                <defs>
                  <filter id="a71261638-d185-491d-896e-25a8d370271b" x="18.21" y="36.98" width="120.23" height="147.52"
                          filterUnits="userSpaceOnUse" color-interpolation-filters="sRGB">
                    <feFlood flood-color="#fff" result="bg"></feFlood>
                    <feBlend in="SourceGraphic" in2="bg"></feBlend>
                  </filter>
                  <mask id="b93d8ac15-e914-4bee-be82-fc44b4e33de2" x="18.21" y="36.98" width="120.23" height="147.52"
                        maskUnits="userSpaceOnUse">
                    <path filter="url(#a71261638-d185-491d-896e-25a8d370271b)"
                          d="M89.05 36.98L69.32 109.1 49.6 36.98H18.21l35.43 129.51h31.39l35.4-129.51H89.05z"
                          fill="#000000"></path>
                  </mask>
                </defs>
                <title>资源 22</title>
                <path fill="none" d="M0 0h150.79v209.55H0z"></path>
                <g mask="url(#b93d8ac15-e914-4bee-be82-fc44b4e33de2)">
                  <path fill="#f7b634" d="M87.33 127.11L67.61 54.99 49.6 36.98l19.72 72.12 18.01 18.01z"></path>
                  <path fill="#f7b634"
                        d="M120.43 36.98l-35.4 129.51H53.64l18.01 18.01h31.39l35.4-129.51-18.01-18.01z"></path>
                </g>
                <path fill="#f7b634"
                      d="M82.97 30.91l-19.72 72.12-19.72-72.12H12.14l35.43 129.51h31.39l35.4-129.51H82.97z"></path>
              </svg>
            </svg> <!---->
          </g>
        </g>
      </g>
    </g>
    <g transform="translate(24, 0)">
      <g data-gra="path-name" fill="#5993d4" transform="scale(1)">
        <path
            d="M6.64-20.31L6.64-20.31Q6.64-19.60 6.15-19.12Q5.66-18.63 4.99-18.63L4.99-18.63Q4.32-18.63 3.84-19.12Q3.35-19.60 3.35-20.31L3.35-20.31Q3.35-20.98 3.84-21.46Q4.32-21.95 4.99-21.95L4.99-21.95Q5.66-21.95 6.15-21.46Q6.64-20.98 6.64-20.31L6.64-20.31L6.64-20.31ZM6.30-16.89L6.30 2.88L3.69 2.88L3.69-16.89L6.30-16.89Z"
            transform="translate(-3.351272727272727, 23.995112727272726)"></path>
      </g>
    </g>
    <g transform="translate(31, 0)">
      <g data-gra="path-name" fill="#5993d4" transform="scale(1)">
        <path
            d="M14.51-14.24L14.51-14.24L9.55-14.24L9.55 0.30L14.58 0.30L14.58 2.95L8.21 2.95Q7.67 2.95 7.29 2.56Q6.90 2.18 6.90 1.61L6.90 1.61L6.90-14.24L1.68-14.24L1.68-16.89L6.90-16.89L6.90-21.92L9.55-21.92L9.55-16.89L14.51-16.89L14.51-14.24Z"
            transform="translate(-1.6756363636363636, 23.995112727272726)"></path>
      </g>
    </g>
    <g transform="translate(47, 0)">
      <g data-gra="path-name" fill="#5993d4" transform="scale(1)">
        <path
            d="M18.70 2.82L18.70 2.82L3.02 2.82Q2.45 2.82 2.06 2.45Q1.68 2.08 1.68 1.51L1.68 1.51L1.68-15.58Q1.68-16.15 2.06-16.52Q2.45-16.89 3.02-16.89L3.02-16.89L17.46-16.89Q18.03-16.89 18.42-16.52Q18.80-16.15 18.80-15.58L18.80-15.58L18.80-6.13Q18.80-5.60 18.42-5.21Q18.03-4.83 17.46-4.83L17.46-4.83L4.32-4.83L4.32 0.17L18.70 0.17L18.70 2.82ZM4.32-14.28L4.32-7.47L16.15-7.47L16.15-14.28L4.32-14.28Z"
            transform="translate(-1.6756363636363636, 23.995112727272726)"></path>
      </g>
    </g>
    <g transform="translate(68, 0)">
      <g data-gra="path-name" fill="#5993d4" transform="scale(1)">
        <path d="" transform="translate(0, 23.995112727272726)"></path>
      </g>
    </g>
    <g transform="translate(79, 0)">
      <g data-gra="path-name" fill="#5993d4" transform="scale(1)">
        <path
            d="M23.96-9.12L23.96-9.12L3.65-9.12L3.65 0.44L24.77 0.44L24.77 3.08L2.31 3.08Q1.78 3.08 1.39 2.70Q1.01 2.31 1.01 1.78L1.01 1.78L1.01-22.69Q1.01-23.26 1.39-23.63Q1.78-24.00 2.31-24.00L2.31-24.00L24.77-24.00L24.77-21.35L3.65-21.35L3.65-11.76L23.96-11.76L23.96-9.12Z"
            transform="translate(-1.0053818181818182, 23.995112727272726)"></path>
      </g>
    </g>
    <g transform="translate(106, 0)">
      <g data-gra="path-name" fill="#5993d4" transform="scale(1)">
        <path d="M5.97-23.76L5.97 3.08L3.35 3.08L3.35-23.76L5.97-23.76Z"
              transform="translate(-3.351272727272727, 23.995112727272726)"></path>
      </g>
    </g>
    <g transform="translate(112, 0)">
      <g data-gra="path-name" fill="#5993d4" transform="scale(1)">
        <path
            d="M18.70 2.82L18.70 2.82L3.02 2.82Q2.45 2.82 2.06 2.45Q1.68 2.08 1.68 1.51L1.68 1.51L1.68-15.58Q1.68-16.15 2.06-16.52Q2.45-16.89 3.02-16.89L3.02-16.89L17.46-16.89Q18.03-16.89 18.42-16.52Q18.80-16.15 18.80-15.58L18.80-15.58L18.80-6.13Q18.80-5.60 18.42-5.21Q18.03-4.83 17.46-4.83L17.46-4.83L4.32-4.83L4.32 0.17L18.70 0.17L18.70 2.82ZM4.32-14.28L4.32-7.47L16.15-7.47L16.15-14.28L4.32-14.28Z"
            transform="translate(-1.6756363636363636, 23.995112727272726)"></path>
      </g>
    </g>
    <g transform="translate(133, 0)">
      <g data-gra="path-name" fill="#5993d4" transform="scale(1)">
        <path
            d="M23.53 2.92L23.53 2.92L20.88 2.92L20.88-14.24L13.91-14.24L13.91 2.92L11.29 2.92L11.29-14.24L4.32-14.24L4.32 2.92L1.68 2.92L1.68-15.55Q1.68-16.12 2.04-16.51Q2.41-16.89 2.98-16.89L2.98-16.89L12.43-16.89L12.60-16.89L22.22-16.89Q22.76-16.89 23.14-16.51Q23.53-16.12 23.53-15.55L23.53-15.55L23.53 2.92Z"
            transform="translate(-1.6756363636363636, 23.995112727272726)"></path>
      </g>
    </g>
    <g transform="translate(158, 0)">
      <g data-gra="path-name" fill="#5993d4" transform="scale(1)">
        <path
            d="M18.70 2.82L18.70 2.82L3.02 2.82Q2.45 2.82 2.06 2.45Q1.68 2.08 1.68 1.51L1.68 1.51L1.68-15.58Q1.68-16.15 2.06-16.52Q2.45-16.89 3.02-16.89L3.02-16.89L17.46-16.89Q18.03-16.89 18.42-16.52Q18.80-16.15 18.80-15.58L18.80-15.58L18.80-6.13Q18.80-5.60 18.42-5.21Q18.03-4.83 17.46-4.83L17.46-4.83L4.32-4.83L4.32 0.17L18.70 0.17L18.70 2.82ZM4.32-14.28L4.32-7.47L16.15-7.47L16.15-14.28L4.32-14.28Z"
            transform="translate(-1.6756363636363636, 23.995112727272726)"></path>
      </g>
    </g>
    <g transform="translate(179, 0)">
      <g data-gra="path-name" fill="#5993d4" transform="scale(1)">
        <path
            d="M18.60 2.92L18.60 2.92L15.95 2.92L15.95-14.24L4.32-14.24L4.32 2.92L1.68 2.92L1.68-15.55Q1.68-16.12 2.06-16.51Q2.45-16.89 3.02-16.89L3.02-16.89L17.29-16.89Q17.83-16.89 18.21-16.51Q18.60-16.12 18.60-15.55L18.60-15.55L18.60 2.92Z"
            transform="translate(-1.6756363636363636, 23.995112727272726)"></path>
      </g>
    </g>
    <g transform="translate(199, 0)">
      <g data-gra="path-name" fill="#5993d4" transform="scale(1)">
        <path
            d="M14.51-14.24L14.51-14.24L9.55-14.24L9.55 0.30L14.58 0.30L14.58 2.95L8.21 2.95Q7.67 2.95 7.29 2.56Q6.90 2.18 6.90 1.61L6.90 1.61L6.90-14.24L1.68-14.24L1.68-16.89L6.90-16.89L6.90-21.92L9.55-21.92L9.55-16.89L14.51-16.89L14.51-14.24Z"
            transform="translate(-1.6756363636363636, 23.995112727272726)"></path>
      </g>
    </g>
  </g>
  <g data-gra="path-slogan" fill-rule="" class="tp-slogan" fill="#5993d4"
     transform="matrix(1,0,0,1,5,41.41169738769531)" opacity="1">
    <rect x="0" height="1" y="3.7899999618530273" width="34.482181549072266"></rect>
    <rect height="1" y="3.7899999618530273" width="34.482181549072266" x="167.42217636108398"></rect>
    <g transform="translate(37.482181549072266,0)">
      <g transform="scale(1)">
        <path
            d="M1.55-8.58L3.98-1.27L6.47-8.58L7.78-8.58L4.64 0L3.38 0L0.23-8.58L1.55-8.58ZM9.05-8.58L10.22-8.58L10.22 0L9.05 0L9.05-8.58ZM14.39-7.59L11.48-7.59L11.48-8.58L18.42-8.58L18.42-7.59L15.52-7.59L15.52 0L14.39 0L14.39-7.59ZM20.77-1.03L25.92-1.03L25.92 0L19.59 0L19.59-8.58L25.83-8.58L25.83-7.59L20.77-7.59L20.77-4.92L25.45-4.92L25.45-3.89L20.77-3.89L20.77-1.03ZM32.06-1.03L37.22-1.03L37.22 0L30.89 0L30.89-8.58L37.13-8.58L37.13-7.59L32.06-7.59L32.06-4.92L36.75-4.92L36.75-3.89L32.06-3.89L32.06-1.03ZM38.72-8.58L39.89-8.58L39.89-1.03L44.25-1.03L44.25 0L38.72 0L38.72-8.58ZM46.69-1.03L51.84-1.03L51.84 0L45.52 0L45.52-8.58L51.75-8.58L51.75-7.59L46.69-7.59L46.69-4.92L51.38-4.92L51.38-3.89L46.69-3.89L46.69-1.03ZM61.59-8.58L61.59 0L60.47 0L60.47-5.06Q60.47-5.77 60.47-7.22L60.47-7.22L58.03 0L56.86 0L54.47-7.22L54.42-7.22Q54.42-6.70 54.47-5.67L54.47-5.67Q54.47-5.16 54.47-5.06L54.47-5.06L54.47 0L53.30 0L53.30-8.58L54.98-8.58L57.47-1.31L59.91-8.58L61.59-8.58ZM64.59-1.03L69.75-1.03L69.75 0L63.42 0L63.42-8.58L69.66-8.58L69.66-7.59L64.59-7.59L64.59-4.92L69.28-4.92L69.28-3.89L64.59-3.89L64.59-1.03ZM72.66-8.58L76.97-1.64L76.97-8.58L78.09-8.58L78.09 0L76.78 0L72.42-6.94L72.38-6.94L72.38 0L71.25 0L71.25-8.58L72.66-8.58ZM82.08-7.59L79.17-7.59L79.17-8.58L86.11-8.58L86.11-7.59L83.20-7.59L83.20 0L82.08 0L82.08-7.59ZM96.14 0L95.30-2.48L91.83-2.48L90.94 0L89.77 0L93-8.58L94.31-8.58L97.41 0L96.14 0ZM93.56-7.31L92.20-3.52L94.88-3.52L93.61-7.31L93.56-7.31ZM101.95 0L98.48 0L98.48-8.58L102-8.58Q105.47-8.39 105.61-4.41L105.61-4.41Q105.42-0.09 101.95 0L101.95 0ZM101.81-7.64L99.66-7.64L99.66-0.98L101.91-0.98Q104.34-1.13 104.44-4.31L104.44-4.31Q104.39-7.55 101.81-7.64L101.81-7.64ZM115.31-8.58L115.31 0L114.19 0L114.19-5.06Q114.19-5.77 114.19-7.22L114.19-7.22L111.75 0L110.58 0L108.19-7.22L108.14-7.22Q108.14-6.70 108.19-5.67L108.19-5.67Q108.19-5.16 108.19-5.06L108.19-5.06L108.19 0L107.02 0L107.02-8.58L108.70-8.58L111.19-1.31L113.63-8.58L115.31-8.58ZM117.19-8.58L118.36-8.58L118.36 0L117.19 0L117.19-8.58ZM121.73-8.58L126.05-1.64L126.05-8.58L127.17-8.58L127.17 0L125.86 0L121.50-6.94L121.45-6.94L121.45 0L120.33 0L120.33-8.58L121.73-8.58Z"
            transform="translate(-0.234375, 8.578125)"></path>
      </g>
    </g>
  </g>
</g>
<defs v-gra="od"></defs>
</svg>
