<svg class="icon" viewBox="0 0 1024 1024" xmlns="http://www.w3.org/2000/svg" width="200" height="200"><path d="M423.128 711.528v-53.8H313.704v-44.864l115.992-169.792h43.04V612.68h33.192v45.048h-33.192v53.8h-49.608zm0-98.84V521.32l-61.456 91.368h61.456zM616.992 443.08c25.888 0 46.144 9.24 60.728 27.72 17.384 21.88 26.08 58.176 26.08 108.88 0 50.576-8.752 86.928-26.256 109.056-14.472 18.232-34.656 27.36-60.544 27.36-26.024 0-46.992-10-62.92-30s-23.888-55.656-23.888-106.96c0-50.336 8.76-86.568 26.264-108.696 14.448-18.24 34.64-27.36 60.536-27.36zm0 42.496c-6.2 0-11.736 1.976-16.6 5.928-4.856 3.952-8.632 11.032-11.304 21.248-3.528 13.256-5.288 35.56-5.288 66.936 0 31.368 1.576 52.912 4.744 64.648s7.144 19.544 11.944 23.44 10.304 5.832 16.504 5.832a25.6 25.6 0 0 0 16.592-5.928c4.856-3.952 8.632-11.032 11.304-21.248 3.52-13.128 5.288-35.376 5.288-66.744 0-31.376-1.576-52.92-4.744-64.656-3.168-11.736-7.144-19.576-11.944-23.528a25.232 25.232 0 0 0-16.496-5.928zm221.576 225.952v-53.8H729.152v-44.864l115.992-169.792h43.04V612.68h33.184v45.048h-33.184v53.8h-49.616zm0-98.84V521.32l-61.464 91.368h61.464z"/><path d="M893.84 198.04H135.936v624.808h216.776v-46.952H183.904V245h661.984v103.808h47.952V198.04z"/></svg>