<svg class="icon" viewBox="0 0 1024 1024" xmlns="http://www.w3.org/2000/svg" width="200" height="200"><path d="M291.008 649.784l46.896-4.848c1.336 10.608 5.304 19.008 11.888 25.2s14.176 9.296 22.776 9.296c9.824 0 18.144-3.992 24.952-11.976 6.808-7.984 10.216-20.016 10.216-36.096 0-15.072-3.376-26.376-10.136-33.912-6.752-7.528-15.544-11.304-26.376-11.304-13.512 0-25.624 5.976-36.344 17.92l-38.184-5.52 24.12-127.784h124.432v44.048h-88.752l-7.368 41.696c10.496-5.24 21.208-7.864 32.152-7.864 20.88 0 38.576 7.592 53.088 22.776 14.512 15.184 21.776 34.888 21.776 59.12 0 20.208-5.864 38.24-17.584 54.096-15.968 21.664-38.128 32.496-66.488 32.496-22.664 0-41.144-6.088-55.432-18.256-14.296-12.184-22.832-28.544-25.632-49.088zM560.648 466.4c23.784 0 42.368 8.488 55.768 25.456 15.968 20.096 23.952 53.424 23.952 99.984 0 46.456-8.04 79.832-24.12 100.152-13.288 16.752-31.824 25.128-55.6 25.128-23.896 0-43.16-9.176-57.776-27.544-14.632-18.368-21.944-51.112-21.944-98.224 0-46.224 8.04-79.496 24.12-99.816 13.28-16.76 31.816-25.136 55.6-25.136zm0 39.024a23.52 23.52 0 0 0-15.24 5.44c-4.472 3.632-7.928 10.136-10.384 19.512-3.24 12.168-4.856 32.656-4.856 61.464s1.456 48.6 4.36 59.376c2.896 10.776 6.552 17.944 10.968 21.512 4.408 3.576 9.464 5.36 15.16 5.36s10.776-1.816 15.24-5.448c4.464-3.624 7.92-10.128 10.384-19.504 3.232-12.056 4.848-32.496 4.848-61.296s-1.456-48.592-4.352-59.368c-2.904-10.776-6.56-17.976-10.968-21.608a23.216 23.216 0 0 0-15.16-5.44zM751.4 466.4c23.784 0 42.376 8.488 55.776 25.456 15.96 20.096 23.944 53.424 23.944 99.984 0 46.456-8.04 79.832-24.12 100.152-13.28 16.752-31.824 25.128-55.6 25.128-23.888 0-43.152-9.176-57.776-27.544-14.632-18.368-21.936-51.112-21.936-98.224 0-46.224 8.04-79.496 24.112-99.816 13.288-16.76 31.816-25.136 55.6-25.136zm0 39.024c-5.688 0-10.776 1.816-15.232 5.44-4.472 3.632-7.928 10.136-10.384 19.512-3.24 12.168-4.856 32.656-4.856 61.464s1.448 48.6 4.352 59.376 6.56 17.944 10.968 21.512c4.416 3.576 9.472 5.36 15.16 5.36 5.696 0 10.776-1.816 15.24-5.448 4.472-3.624 7.928-10.128 10.384-19.504 3.24-12.056 4.856-32.496 4.856-61.296s-1.456-48.592-4.352-59.368c-2.904-10.776-6.56-17.976-10.976-21.608a23.2 23.2 0 0 0-15.16-5.44z"/><path d="M893.232 249.024c0-13.904-13.128-25.176-29.32-25.176H160.096c-16.208 0-29.328 11.272-29.328 25.176v528.648c0 13.904 13.128 25.16 29.328 25.16h187.808v-34.816h-178.4V258.68h685V442.8h38.736V249.024z"/></svg>