<svg xmlns="http://www.w3.org/2000/svg" viewBox="0 0 32 32" width="18" height="18" style="border-color: rgba(0,0,0,0);border-width: bpx;border-style: undefined" filter="none"><path d="M22.912 0h-13.792c-1.537 0.001-2.783 1.247-2.784 2.784v26.432c0.001 1.537 1.247 2.783 2.784 2.784h13.792c1.537-0.001 2.783-1.247 2.784-2.784v-26.432c-0.001-1.537-1.247-2.783-2.784-2.784h-0zM13.728 1.152h4.544c0.256 0 0.416 0.128 0.416 0.288 0 0.128-0.16 0.256-0.416 0.256h-4.544c-0.224 0-0.416-0.128-0.416-0.256 0-0.16 0.192-0.288 0.416-0.288zM16 30.592c-1.184 0-2.144-0.96-2.144-2.144s0.96-2.176 2.144-2.176 2.176 0.992 2.176 2.176c0 1.184-0.992 2.144-2.176 2.144zM24.096 24c0 0.768-0.64 1.408-1.376 1.408h-13.408c-0.775-0.007-1.401-0.633-1.408-1.407v-19.841c0-0.768 0.64-1.376 1.408-1.376h13.408c0.736 0 1.376 0.608 1.376 1.376v19.84z"></path></svg>
