<svg class="icon" viewBox="0 0 1024 1024" xmlns="http://www.w3.org/2000/svg" width="128" height="128"><path d="M300.931 453.164c11.498-2.588 18.741-14.015 16.153-25.533-5.442-24.163-6.26-48.98-2.435-73.715C331.334 245.86 432.802 171.54 540.95 188.287c25.503 3.939 49.542 12.593 71.424 25.697 10.158 6.066 23.241 2.772 29.297-7.345 6.046-10.127 2.752-23.242-7.355-29.297-26.658-15.949-55.885-26.475-86.84-31.262-131.267-20.316-254.739 69.98-275.065 201.33-4.624 30.055-3.621 60.201 2.987 89.591 2.23 9.954 11.048 16.695 20.817 16.695 1.566-.01 3.14-.205 4.716-.532z"/><path d="M895.377 612.43c0-30.536-11.989-57.46-32.141-76.089 20.224-46.708 31.579-98.082 31.579-152.104C894.815 172.37 722.455 0 510.609 0 298.752 0 126.382 172.37 126.382 384.237c0 126.888 61.982 239.394 157.128 309.396a106.695 106.695 0 0 0 2.64 11.396c3.62 12.367 8.623 23.446 14.945 33.052 34.453 52.54 73.5 112.045 112.24 170.058 39.24 58.739 96.036 95.269 168.8 108.557 9.165 1.606 17.543 2.71 25.625 3.744 3.887.522 7.785 1.033 11.641 1.575 3.049.45 6.138.655 9.217.655h43.394c3.407 0 6.834-.235 10.21-.818 3.815-.624 7.631-1.207 11.488-1.8a2627.417 2627.417 0 0 0 19.702-3.151c91.924-15.867 161.291-84.999 176.84-176.217 3.182-18.229 4.829-36.714 4.9-54.77.215-68.456.215-77.039.205-104.73 0-14.2 0-33.523.02-68.754zM190.451 384.226c0-176.85 143.348-320.168 320.158-320.168s320.158 143.318 320.158 320.168c0 44.878-9.401 87.495-26.086 126.265-2.997-.286-5.995-.49-9.002-.49a99.295 99.295 0 0 0-26.955 3.712c-9.984-9.442-21.922-16.827-35.323-21.43-2.23-.727-4.45-1.371-6.65-1.955 10.537-21.318 18.179-44.509 21.984-69.265 8.255-53.245-1.146-106.255-27.18-153.332-5.698-10.312-18.69-14.066-29.022-8.358-10.311 5.708-14.045 18.7-8.347 29.022 21.41 38.709 29.144 82.338 22.352 126.132-4.297 27.64-14.22 52.918-28.337 75.096-1.268.296-2.598.43-3.846.777-8.777-8.071-19.314-14.72-31.374-19.784-9.197-4.9-19.498-7.447-29.994-7.447h-2.158c0-27.508 0-53.604-.03-74.534 0-52.007-34.526-92.425-85.95-100.506a92.302 92.302 0 0 0-14.373-1.146c-50.269 0-94.471 40.418-98.512 90.093-.48 6.383-.48 11.743-.48 16.05v162.58c-19.938-11.447-37.932-26.28-52.95-44.223-7.549-9.043-21.001-10.25-30.085-2.68-9.033 7.57-10.23 21.043-2.68 30.096 10.424 12.44 22.096 23.59 34.627 33.574-25.952 6.618-48.703 23.19-62.881 46.412-.553.9-.972 1.841-1.494 2.751-64.795-58.595-105.57-143.194-105.57-237.41zM831.094 785.7c-.072 14.72-1.463 29.645-3.99 44.213-10.976 64.426-59.792 112.68-124.433 123.82-10.158 1.718-20.44 3.242-30.648 4.9h-43.395c-11.63-1.72-23.374-2.936-34.965-5.003-53.337-9.728-96.64-35.579-127.021-81.08-37.666-56.366-74.81-112.956-111.964-169.598-3.14-4.777-5.38-10.332-7.007-15.825-6.946-23.927 7.16-48.663 30.71-53.215 3.416-.644 6.74-.992 9.891-.992 14.311 0 26.515 6.465 35.855 18.567 15.57 20.132 30.29 40.918 45.358 61.419a369.923 369.923 0 0 0 4.84 6.516c.388-.174.818-.297 1.216-.491v-5.75-320.065c0-3.642 0-7.243.277-10.874 1.38-16.89 17.86-31.19 34.658-31.19 1.452 0 2.956.122 4.43.358 19.875 3.13 31.844 16.94 31.844 37.266.051 56.97 0 152.32.082 209.34 0 2.957.194 6.056 1.064 8.86 1.463 4.613 4.94 7.078 9.882 7.456h1.053c4.716 0 8.205-2.363 10.056-6.587 1.187-2.62 1.258-5.831 1.258-8.818 0-19.61-.05-25.79-.05-25.79l-.072 18.23c0-.061 0-6.302.05-25.8 0-12.878 4.318-24.08 15.274-31.69 4.03-2.753 8.828-4.471 13.257-6.64h14.394c.511.368.92.839 1.473 1.044 18.72 6.444 27.425 18.577 27.425 38.258-.061 19.314-.061 25.462-.061 25.462l-.02-18.792v25.493c0 1.84-.062 3.62.132 5.4.778 6.149 5.514 10.23 11.478 10.23.389 0 .737 0 1.115-.02 6.312-.573 9.923-4.88 10.363-12.675v-.194c.03-.47.03-.961.03-1.432v-12.122c.277-8.389 2.343-16.296 7.744-23.13 7.09-8.991 17.411-13.881 28.183-13.881 3.908 0 7.877.655 11.734 1.954 14.792 5.104 24.254 19.446 24.254 36.591-.02 19.314-.051 25.482-.051 25.482-.01 0-.051-18.812-.072-18.812 0 0-.01 6.148-.01 25.503 0 2.199 0 4.429.235 6.608.706 5.8 4.47 8.797 9.862 9.861a7.59 7.59 0 0 0 1.677.164c4.256 0 8.788-2.967 10.23-7.243.92-2.772 1.177-5.861 1.177-8.859 0-2.618 0-4.88.01-6.772v12.982c.071 0 .112-3.887.153-15.16.072-6.25 1.197-12.92 3.673-18.629 5.636-12.787 18.597-20.52 31.957-20.52 2.466 0 4.9.286 7.355.818 17.32 3.785 28.265 18.485 28.265 37.522-.062 103.545.102 69.777-.215 173.332z"/></svg>