<svg class="icon" viewBox="0 0 1025 1024" xmlns="http://www.w3.org/2000/svg" width="128.125" height="128"><path d="M977.408 726.016c-6.144 0-12.8 1.024-18.432 3.584L513.024 919.552 67.072 729.6c-5.632-2.56-11.776-3.584-18.432-3.584-26.624 0-48.128 22.016-48.128 49.664 0 20.48 12.288 38.4 29.696 45.568L494.08 1018.88h.512a46.157 46.157 0 0 0 36.864 0l463.872-197.632c17.408-7.68 29.696-25.088 29.696-45.568.512-27.648-20.992-49.664-47.616-49.664z"/><path d="M977.408 511.488c-9.216 0-18.432 3.584-18.432 3.584L513.024 705.024 66.56 515.072s-11.776-3.584-18.432-3.584C21.504 511.488 0 533.504 0 561.152c0 20.48 12.288 38.4 29.696 45.568l463.872 197.632c5.632 2.56 11.776 3.584 18.432 3.584 6.656 0 12.8-1.536 18.432-3.584L994.304 606.72c17.408-7.168 29.696-25.088 29.696-45.568 1.536-27.648-19.968-49.664-46.592-49.664z"/><path d="M30.208 359.424L494.08 602.112c5.632 3.072 11.776 4.608 18.432 4.608 6.144 0 12.288-1.536 18.432-4.608l463.872-242.176c17.408-9.216 29.696-30.72 29.696-55.808 0-25.6-12.288-47.104-29.696-56.32L531.968 5.12c-11.776-6.144-25.088-6.144-36.864 0L30.208 247.296C12.8 256.512.512 278.016.512 303.616c0 25.088 12.288 46.592 29.696 55.808z"/></svg>