<svg class="icon" viewBox="0 0 1024 1024" xmlns="http://www.w3.org/2000/svg" width="128" height="128"><path d="M153.6 332.8h-45.2c-24.1 0-44.4 20-44.4 44.7v269.1c0 24.4 19.9 44.7 44.4 44.7h45.2V332.8zm716.8 0h45.2c24.6 0 44.4 20.3 44.4 44.7v269.1c0 24.7-20.4 44.7-44.4 44.7h-45.2V332.8zm-89.6-134.4H243.2c-24.7 0-44.8 20.1-44.8 44.8v537.6c0 24.8 20.1 44.8 44.8 44.8h537.6c24.8 0 44.8-20 44.8-44.8V243.2c0-24.7-20-44.8-44.8-44.8zM355.2 332.8c37.1 0 67.2 30.1 67.2 67.2s-30.1 67.2-67.2 67.2S288 437.1 288 400s30.1-67.2 67.2-67.2zm-112 442.6s36.7-223.1 109.9-223.1 64.4 62.3 119.4 62.3 77.7-192.1 151.7-192.1c73.9 0 156.7 353 156.7 353l-537.7-.1z"/></svg>