<svg class="icon" viewBox="0 0 1024 1024" xmlns="http://www.w3.org/2000/svg" width="200" height="200"><path d="M896 928H128a32 32 0 0 1-32-32V128a32 32 0 0 1 64 0v736h736a32 32 0 0 1 0 64z" /><path d="M352 896a32 32 0 0 1-32-32V544a32 32 0 0 1 64 0v320a32 32 0 0 1-32 32zm224 0a32 32 0 0 1-32-32V448a32 32 0 0 1 64 0v416a32 32 0 0 1-32 32zm224 0a32 32 0 0 1-32-32V384a32 32 0 0 1 64 0v480a32 32 0 0 1-32 32zM256 416a32.64 32.64 0 0 1-25.6-12.8 32 32 0 0 1 6.4-44.8l256-192a31.36 31.36 0 0 1 41.6 0l108.8 108.16L876.8 102.4a32 32 0 1 1 38.4 51.2l-256 192a31.36 31.36 0 0 1-41.6-3.2L512 234.24 275.2 409.6A31.36 31.36 0 0 1 256 416z" /></svg>
