<svg class="icon" viewBox="0 0 1024 1024" xmlns="http://www.w3.org/2000/svg" width="200" height="200"><path d="M241.493 844.8a157.056 157.056 0 0 1-35.285-309.845 189.184 189.184 0 0 1 184.533-148.267 178.261 178.261 0 0 1 85.334 20.523 169.344 169.344 0 0 1 123.05-54.699A166.955 166.955 0 0 1 728.96 623.659a167.765 167.765 0 0 1 13.696 63.786A157.483 157.483 0 0 1 585.515 844.8zm344.022-53.547a103.083 103.083 0 0 0 0-206.165h-51.2a7.253 7.253 0 0 1-6.827-5.717l-2.304-18.219a134.741 134.741 0 0 0-134.4-120.747 136.533 136.533 0 0 0-134.443 120.747l-2.261 17.067a5.376 5.376 0 0 1-5.717 5.674l-15.915 1.152a103.339 103.339 0 0 0 9.088 206.166zM359.979 317.184a27.392 27.392 0 0 1 38.741-38.699l19.37 20.48a26.24 26.24 0 0 1 0 38.742 25.6 25.6 0 0 1-37.589 0zm225.536 214.187a154.923 154.923 0 0 1 110.506 45.568 114.347 114.347 0 0 0 15.958-58.112A112.299 112.299 0 0 0 599.21 406.059a113.579 113.579 0 0 0-77.483 31.872 201.984 201.984 0 0 1 53.547 93.44zm41.045-260.864a26.368 26.368 0 0 1-27.35 27.349 26.07 26.07 0 0 1-26.197-27.35v-64.938a25.6 25.6 0 0 1 26.198-26.197 26.112 26.112 0 0 1 27.349 26.197zm167.424 92.16a27.35 27.35 0 0 1-38.784-38.4l46.933-45.782a26.837 26.837 0 0 1 37.59 0 28.203 28.203 0 0 1 0 38.699zm45.568 357.717a28.245 28.245 0 0 1 0 38.741 26.837 26.837 0 0 1-37.59 0l-20.48-20.522a28.245 28.245 0 0 1 0-38.742 26.837 26.837 0 0 1 37.59 0zm72.917-228.992a26.752 26.752 0 0 1 26.198 27.435 25.6 25.6 0 0 1-26.198 26.197h-64.938a26.752 26.752 0 0 1-27.35-26.197 27.733 27.733 0 0 1 27.35-27.35z" /></svg>
