<svg class="icon" viewBox="0 0 1024 1024" xmlns="http://www.w3.org/2000/svg" width="200" height="200"><path d="M697.856 32l-96 96H212.352c-27.744 0-49.792 19.616-52.16 43.712L160 176v672c0 24.576 20.48 45.536 47.52 47.808l4.832.192h599.296c27.744 0 49.792-19.616 52.16-43.712L864 848V454.112l95.168-95.104c.256 1.44.48 2.88.64 4.384L960 368v480c0 77.76-63.136 140.32-141.44 143.84l-6.912.16H212.352c-79.136 0-144.512-60.384-148.16-137.184L64 848V176c0-77.76 63.136-140.32 141.44-143.84l6.88-.16h485.504zm35.616 122.72l135.776 135.776-369.376 369.376L336 688l28.128-163.872L733.44 154.72zM944 80a96 96 0 0 1 4.32 131.168l-4.32 4.608-29.504 29.44-135.744-135.744L808.224 80A96 96 0 0 1 944 80z"/></svg>