<svg class="icon" viewBox="0 0 1024 1024" xmlns="http://www.w3.org/2000/svg" width="200" height="200"><path d="M314.134 723.953a18.74 18.74 0 0 1-13.264-5.478c-7.359-7.324-7.385-19.227-.06-26.586l423.915-425.835c7.327-7.36 19.23-7.384 26.587-.06 7.36 7.324 7.386 19.228.06 26.586L327.457 718.415a18.74 18.74 0 0 1-13.323 5.538z"/><path d="M738.5 724.334a18.744 18.744 0 0 1-13.322-5.534L300.365 292.202c-7.326-7.357-7.301-19.26.056-26.587 7.357-7.326 19.26-7.3 26.587.057l424.813 426.596c7.327 7.358 7.302 19.261-.055 26.587a18.744 18.744 0 0 1-13.266 5.479z"/><path d="M522.753 957.986c-62.757 0-123.646-12.295-180.977-36.545-55.364-23.418-105.085-56.938-147.775-99.63-42.692-42.693-76.212-92.413-99.63-147.778-24.247-57.331-36.544-118.221-36.544-180.978 0-62.756 12.295-123.645 36.545-180.975C117.79 256.715 151.309 206.995 194 164.304c42.691-42.692 92.41-76.212 147.775-99.63 57.331-24.25 118.22-36.545 180.977-36.545S646.4 40.424 703.731 64.673c55.365 23.418 105.085 56.938 147.777 99.63 42.692 42.691 76.213 92.412 99.631 147.776 24.25 57.33 36.545 118.22 36.545 180.975 0 62.757-12.295 123.647-36.545 180.978-23.418 55.365-56.938 105.085-99.63 147.777-42.693 42.692-92.413 76.213-147.778 99.631-57.331 24.25-118.221 36.546-180.978 36.546zm0-892.257c-57.697 0-113.659 11.295-166.33 33.573-50.883 21.523-96.585 52.337-135.836 91.588-39.25 39.25-70.065 84.953-91.587 135.837-22.278 52.671-33.573 108.632-33.573 166.329s11.295 113.66 33.573 166.33c21.522 50.884 52.336 96.586 91.587 135.838 39.251 39.251 84.952 70.066 135.837 91.588 52.67 22.278 108.632 33.574 166.329 33.574s113.659-11.296 166.331-33.574c50.884-21.523 96.586-52.337 135.838-91.588 39.251-39.252 70.066-84.954 91.588-135.838 22.278-52.671 33.574-108.633 33.574-166.33 0-57.696-11.296-113.658-33.574-166.328-21.523-50.884-52.337-96.586-91.588-135.837-39.252-39.25-84.954-70.066-135.838-91.588C636.412 77.024 580.45 65.73 522.753 65.73z"/></svg>
