<svg width="262" height="146" viewBox="0 0 262 146" xmlns="http://www.w3.org/2000/svg" xmlns:xlink="http://www.w3.org/1999/xlink"><defs><ellipse id="a" cx="42" cy="7.5" rx="42" ry="7.5"/></defs><g fill="none" fill-rule="evenodd"><g transform="translate(102 131)"><mask id="b" fill="#fff"><use xlink:href="#a"/></mask><use fill="#A3B1BF" fill-rule="nonzero" opacity=".249" xlink:href="#a"/></g><path d="M84 33v9.87a4.922 4.922 0 0 0-1.232-.156H60.934c-2.699 0-4.886-2.174-4.886-4.857 0-2.682 2.187-4.857 4.886-4.857H84zm0 19.273v19.201c0 8.916 4.054 16.741 9.877 23.382A36.26 36.26 0 0 0 96.833 101H80.478c-2.699 0-4.886-2.175-4.886-4.857 0-2.683 2.187-4.857 4.886-4.857h1.628c2.699 0 4.886-2.175 4.886-4.857 0-2.683-2.187-4.858-4.886-4.858h-37.22c-2.698 0-4.886-2.174-4.886-4.857 0-2.682 2.188-4.857 4.886-4.857h28.975c2.698 0 4.886-2.174 4.886-4.857 0-2.683-2.188-4.857-4.886-4.857h-4.225c-2.698 0-4.886-2.175-4.886-4.857 0-2.683 2.188-4.857 4.886-4.857h13.132c.425 0 .838-.055 1.232-.156zM194 33h4.827c2.699 0 4.886 2.175 4.886 4.857 0 2.683-2.187 4.857-4.886 4.857H194V33zm0 19.429h17.857c2.698 0 4.886 2.174 4.886 4.857 0 2.682-2.188 4.857-4.886 4.857H194v-9.714zm-.8 38.857h21.914c2.698 0 4.886 2.174 4.886 4.857 0 2.682-2.188 4.857-4.886 4.857h-25.947c1.822-3.045 3.22-6.285 4.032-9.714zM197.75 71h27.5c2.071 0 3.75 2.239 3.75 5s-1.679 5-3.75 5h-27.5c-2.071 0-3.75-2.239-3.75-5s1.679-5 3.75-5z" fill="#A3B1BF" fill-rule="nonzero" opacity=".15"/><g fill="#A3B1BF" fill-rule="nonzero"><path d="M167.664 85.834l-8.462 8.391-15.739-15.608-15.74 15.608-8.462-8.391 15.74-15.609-15.74-15.608 8.462-8.392 15.74 15.608 15.74-15.608 8.461 8.392-15.739 15.608z"/><path d="M159.202 42l-15.74 15.608L127.723 42 115 54.616l15.739 15.61-15.74 15.607 12.724 12.617 15.74-15.609 15.739 15.61 12.723-12.618-15.74-15.608 15.74-15.609L159.202 42zm0 4.225l8.463 8.391-15.74 15.61 15.74 15.607-8.463 8.391-15.74-15.607-15.74 15.607-8.461-8.39L135 70.224l-15.74-15.609 8.462-8.39 15.74 15.607 15.739-15.608z" opacity=".253"/><path d="M143 13l51 18.338v53.136C194 116.096 143 134 143 134s-51-17.904-51-49.526V31.338L143 13zm0 3.188L95 33.447v51.027c0 26.786 41.042 43.658 48.001 46.325C149.965 128.136 191 111.294 191 84.474V33.447l-48-17.26z"/><path d="M143 16.188l48 17.259v51.027c0 26.82-41.035 43.662-47.999 46.325C136.042 128.132 95 111.259 95 84.474V33.447l48-17.26zm0 3.188l-45 16.18v48.918c0 23.786 37.011 39.902 45.002 43.103 7.99-3.195 44.998-19.282 44.998-43.103V35.557l-45-16.181z" opacity=".248"/><path d="M135 0l51 18.338v10.123l-3-1.079v-6.935l-48-17.26-48 17.26v51.027c0 5.906 1.996 11.331 5.182 16.228a30.388 30.388 0 0 0 1.696 7.157c-5.616-6.406-9.588-13.914-9.863-22.44L84 71.474V18.338L135 0z"/><path d="M135 3.188l48 17.259v6.936L143 13 92 31.338v53.136c0 1.092.06 2.169.178 3.228C88.996 82.805 87 77.38 87 71.474V20.447l48-17.26z" opacity=".15"/></g><circle stroke="#A3B1BF" stroke-width="3" cx="226" cy="83" r="5.5"/><circle stroke="#A3B1BF" stroke-width="3" cx="61" cy="24" r="5.5"/><circle stroke="#A3B1BF" stroke-width="3" cx="72.5" cy="138.5" r="3"/><circle stroke="#A3B1BF" stroke-width="3" cx="226" cy="137" r="1.5"/><circle stroke="#A3B1BF" stroke-width="3" cx="61" cy="101" r="1.5"/><path d="M214.5 7a1.5 1.5 0 0 1 1.5 1.5V12h3.5a1.5 1.5 0 0 1 0 3H216v3.5a1.5 1.5 0 0 1-3 0V15h-3.5a1.5 1.5 0 0 1 0-3h3.5V8.5a1.5 1.5 0 0 1 1.5-1.5zM255.5 108a1.5 1.5 0 0 1 1.5 1.5v3.5h3.5a1.5 1.5 0 0 1 0 3H257v3.5a1.5 1.5 0 0 1-3 0V116h-3.5a1.5 1.5 0 0 1 0-3h3.5v-3.5a1.5 1.5 0 0 1 1.5-1.5zM11.828 56.328a1.5 1.5 0 0 1-1.5 1.5h-2.5v2.5a1.5 1.5 0 1 1-3 0v-2.5h-2.5a1.5 1.5 0 1 1 0-3h2.5v-2.5a1.5 1.5 0 0 1 3 0v2.5h2.5a1.5 1.5 0 0 1 1.5 1.5z" fill="#A3B1BF" fill-rule="nonzero"/><path d="M224.15 21.99c-.166 0-.336-.027-.502-.087a284.33 284.33 0 0 0-2.815-.985 1.5 1.5 0 0 1-.932-1.907 1.507 1.507 0 0 1 1.906-.931c.972.334 1.92.667 2.847.997a1.5 1.5 0 0 1-.503 2.912m8.399 3.226a1.5 1.5 0 0 1-.574-.114c-.888-.37-1.806-.74-2.755-1.111a1.501 1.501 0 0 1 1.098-2.793c.966.38 1.902.758 2.808 1.133a1.5 1.5 0 0 1-.577 2.886m8.174 3.76a1.47 1.47 0 0 1-.69-.168 84.745 84.745 0 0 0-2.64-1.31 1.5 1.5 0 0 1 1.287-2.709 87.46 87.46 0 0 1 2.735 1.356 1.499 1.499 0 0 1-.692 2.832m7.617 4.76a1.49 1.49 0 0 1-.931-.325 33.978 33.978 0 0 0-2.326-1.677 1.499 1.499 0 0 1-.424-2.078 1.496 1.496 0 0 1 2.078-.424 36.294 36.294 0 0 1 2.537 1.83 1.5 1.5 0 0 1-.934 2.674m5.012 7.185a1.5 1.5 0 0 1-1.49-1.348c-.072-.709-.331-1.453-.77-2.21a1.5 1.5 0 0 1 2.596-1.503c.653 1.128 1.043 2.275 1.158 3.41a1.5 1.5 0 0 1-1.494 1.651m-4.476 7.242a1.5 1.5 0 0 1-.874-2.72 15.119 15.119 0 0 0 2.07-1.753 1.5 1.5 0 1 1 2.16 2.082c-.687.714-1.523 1.424-2.484 2.112-.265.189-.57.28-.872.28m-7.945 4.166a1.5 1.5 0 0 1-.57-2.888 57.387 57.387 0 0 0 2.676-1.174 1.5 1.5 0 0 1 1.277 2.715c-.877.414-1.824.829-2.814 1.235a1.488 1.488 0 0 1-.57.112m-8.491 2.97a1.501 1.501 0 0 1-.435-2.936c.976-.296 1.917-.595 2.825-.895a1.5 1.5 0 0 1 .94 2.849c-.928.307-1.892.613-2.893.917a1.508 1.508 0 0 1-.437.066m-8.68 2.373a1.501 1.501 0 0 1-.36-2.956c.987-.245 1.949-.49 2.886-.736a1.496 1.496 0 0 1 1.833 1.068 1.5 1.5 0 0 1-1.068 1.832c-.952.252-1.927.5-2.93.748a1.5 1.5 0 0 1-.361.044m-8.773 2.002a1.502 1.502 0 0 1-.31-2.968c.993-.21 1.965-.42 2.918-.632.81-.183 1.61.33 1.789 1.14a1.5 1.5 0 0 1-1.138 1.788c-.963.214-1.946.426-2.947.639a1.511 1.511 0 0 1-.312.032m-8.83 1.743a1.5 1.5 0 0 1-.27-2.974c.994-.184 1.973-.37 2.936-.556a1.5 1.5 0 1 1 .568 2.946c-.97.188-1.957.374-2.96.559a1.42 1.42 0 0 1-.273.026m-8.865 1.551a1.5 1.5 0 0 1-.245-2.978c.997-.166 1.98-.332 2.95-.498a1.5 1.5 0 0 1 .508 2.957c-.975.166-1.963.334-2.965.5a1.49 1.49 0 0 1-.248.02M81.256 77.748a1.501 1.501 0 0 1-.258-2.977c.975-.172 1.964-.345 2.965-.514a1.5 1.5 0 1 1 .503 2.957c-.995.17-1.977.34-2.947.511a1.468 1.468 0 0 1-.263.023m-8.842 1.674a1.5 1.5 0 0 1-.295-2.972c.97-.194 1.956-.39 2.955-.583a1.5 1.5 0 1 1 .57 2.945c-.991.191-1.968.385-2.931.58a1.54 1.54 0 0 1-.3.03m-8.79 1.92a1.5 1.5 0 0 1-.342-2.96c.962-.227 1.942-.453 2.94-.675a1.5 1.5 0 0 1 .655 2.928c-.987.22-1.955.442-2.908.666-.115.027-.231.04-.344.04m-8.715 2.242a1.501 1.501 0 0 1-.407-2.944 175.71 175.71 0 0 1 2.919-.796 1.5 1.5 0 0 1 .767 2.9c-.978.258-1.934.517-2.87.782a1.49 1.49 0 0 1-.41.058m-8.583 2.688a1.5 1.5 0 0 1-.496-2.916c.929-.325 1.888-.65 2.876-.97a1.502 1.502 0 0 1 .924 2.856c-.964.311-1.9.627-2.808.944a1.483 1.483 0 0 1-.496.085m-8.34 3.364a1.5 1.5 0 0 1-.639-2.858 78.402 78.402 0 0 1 2.796-1.242 1.5 1.5 0 1 1 1.164 2.767c-.933.391-1.828.79-2.684 1.192a1.504 1.504 0 0 1-.637.141m-7.757 4.515a1.5 1.5 0 0 1-.9-2.7 35.554 35.554 0 0 1 2.587-1.755 1.5 1.5 0 0 1 1.58 2.55 32.704 32.704 0 0 0-2.37 1.606 1.5 1.5 0 0 1-.897.3m-5.793 6.713a1.5 1.5 0 0 1-1.377-2.093 14.29 14.29 0 0 1 1.682-2.874 1.5 1.5 0 1 1 2.404 1.795 11.272 11.272 0 0 0-1.33 2.265 1.5 1.5 0 0 1-1.38.907m.264 8.69a1.5 1.5 0 0 1-1.371-.889 14.324 14.324 0 0 1-1.012-3.18 1.5 1.5 0 0 1 2.949-.552c.152.813.422 1.657.803 2.511a1.5 1.5 0 0 1-1.37 2.11m5.305 7.2c-.382 0-.764-.145-1.057-.436a36.945 36.945 0 0 1-2.127-2.29 1.5 1.5 0 1 1 2.287-1.94c.588.692 1.245 1.4 1.953 2.102a1.5 1.5 0 0 1-1.056 2.564m6.904 5.754c-.305 0-.612-.093-.88-.285a73.906 73.906 0 0 1-2.441-1.84 1.498 1.498 0 0 1-.252-2.106 1.496 1.496 0 0 1 2.105-.252 75.566 75.566 0 0 0 2.349 1.768 1.499 1.499 0 0 1-.881 2.715m7.523 4.933c-.263 0-.53-.07-.771-.216-.89-.533-1.75-1.064-2.583-1.591a1.502 1.502 0 0 1 1.605-2.537c.814.517 1.655 1.037 2.523 1.559a1.5 1.5 0 0 1-.774 2.784m7.843 4.41c-.237 0-.477-.054-.701-.173-.91-.482-1.796-.96-2.661-1.436a1.501 1.501 0 0 1 1.447-2.63c.852.47 1.725.942 2.618 1.414a1.498 1.498 0 0 1-.703 2.826m8.038 4.048c-.218 0-.44-.048-.65-.149a268.02 268.02 0 0 1-2.71-1.322 1.5 1.5 0 1 1 1.33-2.69c.877.435 1.77.87 2.682 1.31a1.5 1.5 0 0 1-.652 2.85m8.167 3.78c-.204 0-.412-.041-.61-.129-.93-.415-1.845-.829-2.746-1.24a1.498 1.498 0 0 1-.741-1.988 1.498 1.498 0 0 1 1.987-.74c.893.407 1.8.817 2.722 1.228a1.501 1.501 0 0 1-.612 2.87" fill="#A3B1BF"/><path d="M222.307 22.702a1.5 1.5 0 0 1-.92-.316 26.336 26.336 0 0 0-2.335-1.61 1.5 1.5 0 0 1 1.576-2.553 29.189 29.189 0 0 1 2.6 1.795 1.5 1.5 0 0 1-.921 2.684m4.92 7.259c-.74 0-1.383-.547-1.483-1.301a6.814 6.814 0 0 0-.775-2.316 1.5 1.5 0 0 1 2.64-1.424 9.757 9.757 0 0 1 1.107 3.342 1.498 1.498 0 0 1-1.488 1.699m-2.964 8.19a1.498 1.498 0 0 1-1.164-2.444 15.796 15.796 0 0 0 1.542-2.25 1.5 1.5 0 0 1 2.623 1.458 18.798 18.798 0 0 1-1.835 2.682 1.494 1.494 0 0 1-1.166.555m-6.611 6.055a1.499 1.499 0 0 1-.891-2.707c.813-.6 1.584-1.202 2.293-1.792a1.497 1.497 0 0 1 2.112.194c.53.637.444 1.582-.194 2.112a52.439 52.439 0 0 1-2.432 1.9 1.486 1.486 0 0 1-.888.293m-7.554 4.88a1.501 1.501 0 0 1-.752-2.799 95.72 95.72 0 0 0 2.537-1.515 1.504 1.504 0 0 1 2.066.488 1.502 1.502 0 0 1-.488 2.065 109.59 109.59 0 0 1-2.613 1.56 1.5 1.5 0 0 1-.75.202m-7.94 4.23a1.5 1.5 0 0 1-.667-2.843c.909-.451 1.793-.9 2.652-1.344a1.501 1.501 0 0 1 1.381 2.664c-.875.453-1.775.909-2.7 1.368a1.501 1.501 0 0 1-.665.156m-8.15 3.817a1.5 1.5 0 0 1-.608-2.872c.925-.41 1.83-.82 2.716-1.226a1.501 1.501 0 0 1 1.252 2.727c-.898.412-1.815.826-2.751 1.242a1.494 1.494 0 0 1-.608.129M83.86 96.38a1.5 1.5 0 0 1-.596-2.877c.906-.392 1.83-.785 2.774-1.181a1.497 1.497 0 0 1 1.963.803 1.499 1.499 0 0 1-.802 1.963c-.934.39-1.85.78-2.746 1.169a1.484 1.484 0 0 1-.593.123m-8.183 3.745a1.501 1.501 0 0 1-.658-2.849 179.16 179.16 0 0 1 2.73-1.3 1.5 1.5 0 1 1 1.269 2.719c-.92.429-1.815.855-2.685 1.278a1.495 1.495 0 0 1-.656.152m-7.963 4.188a1.5 1.5 0 0 1-.747-2.8c.852-.49 1.736-.982 2.654-1.478a1.503 1.503 0 0 1 2.034.607c.393.73.12 1.64-.608 2.034-.894.482-1.758.963-2.588 1.438a1.48 1.48 0 0 1-.745.199m-7.538 4.9a1.5 1.5 0 0 1-.903-2.698 59.871 59.871 0 0 1 2.505-1.784 1.5 1.5 0 0 1 1.679 2.487 56.115 56.115 0 0 0-2.38 1.693 1.499 1.499 0 0 1-.901.302m-6.435 6.23a1.499 1.499 0 0 1-1.218-2.374 23.042 23.042 0 0 1 2.055-2.455 1.5 1.5 0 1 1 2.169 2.072 20.226 20.226 0 0 0-1.787 2.132 1.499 1.499 0 0 1-1.22.626m-1.863 8.425a1.498 1.498 0 0 1-1.427-1.041 9.237 9.237 0 0 1-.424-3.526 1.509 1.509 0 0 1 1.608-1.384 1.501 1.501 0 0 1 1.384 1.608 6.268 6.268 0 0 0 .287 2.384 1.5 1.5 0 0 1-1.428 1.959m5.707 6.752c-.298 0-.6-.09-.863-.274a24.41 24.41 0 0 1-2.492-1.997 1.5 1.5 0 1 1 2.035-2.205 21.525 21.525 0 0 0 2.186 1.75 1.5 1.5 0 0 1-.866 2.726m7.898 4.279c-.2 0-.403-.04-.598-.125a63.087 63.087 0 0 1-2.787-1.29 1.499 1.499 0 1 1 1.328-2.69c.833.412 1.727.825 2.656 1.23a1.5 1.5 0 0 1-.6 2.875" fill="#A3B1BF" fill-rule="nonzero" opacity=".254"/></g></svg>