<svg width="242" height="171" viewBox="0 0 242 171" xmlns="http://www.w3.org/2000/svg" xmlns:xlink="http://www.w3.org/1999/xlink"><defs><ellipse id="a" cx="76.146" cy="4.722" rx="76.146" ry="4.722"/></defs><g fill="none" fill-rule="evenodd"><path d="M37.511 8.854c2.644 0 4.787 2.172 4.787 4.851v35.97c0 2.678 2.143 4.85 4.787 4.85s4.787-2.172 4.787-4.85V31.761c0-2.68 2.143-4.851 4.787-4.851s4.787 2.171 4.787 4.85v8.473c0 2.68 2.143 4.851 4.787 4.851s4.787-2.172 4.787-4.851V18.556c0-2.679 2.143-4.85 4.787-4.85s4.787 2.171 4.787 4.85v27.966L40.191 66.228a4 4 0 0 0-1.927 5.162l.086.187 23.094 47.35.001 2.817c0 2.68-2.143 4.851-4.787 4.851s-4.787-2.171-4.787-4.85V105.93c0-2.68-2.143-4.851-4.787-4.851s-4.787 2.172-4.787 4.85v6.154c0 2.679-2.143 4.85-4.787 4.85s-4.787-2.171-4.787-4.85v-1.078c0-2.68-2.143-4.851-4.787-4.851-2.643 0-4.787 2.172-4.787 4.85v18.138c0 2.68-2.143 4.851-4.787 4.851-2.643 0-4.787-2.172-4.787-4.851V37.961c0-2.68 2.144-4.852 4.787-4.852 2.644 0 4.787 2.172 4.787 4.852v1.617c0 2.679 2.144 4.85 4.787 4.85 2.644 0 4.787-2.171 4.787-4.85V13.705c0-2.679 2.143-4.85 4.787-4.85zm172.894 0c2.573 0 4.671 2.056 4.783 4.635l.004.216v25.873c0 2.679 2.144 4.85 4.787 4.85 2.573 0 4.671-2.055 4.783-4.634l.004-.216V37.96c0-2.68 2.144-4.852 4.787-4.852 2.573 0 4.671 2.057 4.783 4.635l.004.217v70.178c0 2.68-2.143 4.851-4.787 4.851-2.572 0-4.67-2.056-4.782-4.635l-.005-.216v-4.084c0-2.68-2.143-4.851-4.787-4.851-2.572 0-4.67 2.056-4.782 4.635l-.005.216v1.078c0 2.679-2.143 4.85-4.787 4.85a4.764 4.764 0 0 1-3.937-2.09 36.364 36.364 0 0 0-.848-5.358l-.002-3.555a4.854 4.854 0 0 0-2.923-4.47 36.605 36.605 0 0 0-3.048-5l10.133-4.941a4 4 0 0 0 1.928-5.162l-.086-.187-25.152-51.567v-.457c0-2.679 2.144-4.85 4.788-4.85 2.572 0 4.67 2.056 4.782 4.634l.005.216v4.195c0 2.68 2.143 4.851 4.786 4.851 2.573 0 4.671-2.056 4.783-4.635l.004-.216V13.705c0-2.679 2.144-4.85 4.787-4.85zM28.36 53.532c-2.722 0-4.928 2.118-4.928 4.731v26.855c0 2.612 2.206 4.73 4.928 4.73 2.721 0 4.927-2.118 4.927-4.73V58.263c0-2.613-2.206-4.73-4.927-4.73zm193.168 4.965c-2.721 0-4.928 2.118-4.928 4.73v21.514c0 2.612 2.207 4.73 4.928 4.73 2.722 0 4.928-2.118 4.928-4.73V63.227c0-2.612-2.206-4.73-4.928-4.73zM95.237 31.39c2.572 0 4.67 2.056 4.782 4.635l.004.216v.804l-9.574 4.67v-5.474c0-2.607 2.03-4.733 4.574-4.846l.214-.005zm19.147-9.046c2.573 0 4.671 2.057 4.783 4.635l.004.216v.511l-9.574 4.67v-5.18c0-2.607 2.03-4.734 4.574-4.847l.213-.005zm19.148-13.49c2.573 0 4.671 2.055 4.783 4.634l.004.216v4.664l-9.575 4.67.001-9.334c0-2.607 2.03-4.733 4.574-4.846l.213-.005z" fill="#A3B1BF" fill-rule="nonzero" opacity=".102"/><g transform="translate(60.208 146.389)"><mask id="b" fill="#fff"><use xlink:href="#a"/></mask><use fill="#A3B1BF" fill-rule="nonzero" opacity=".249" xlink:href="#a"/><path d="M48.456 7.346c1.093 0 1.978.235 1.978.524 0 .29-.885.525-1.978.525-1.092 0-1.977-.235-1.977-.525 0-.29.885-.524 1.977-.524zm59.334 0c1.093 0 1.979.235 1.979.524 0 .29-.886.525-1.979.525-1.092 0-1.977-.235-1.977-.525 0-.29.885-.524 1.977-.524zm42.523 0c1.093 0 1.979.235 1.979.524 0 .29-.886.525-1.979.525-1.092 0-1.977-.235-1.977-.525 0-.29.885-.524 1.977-.524zm-93.946 0c1.093 0 1.979.235 1.979.524 0 .29-.886.525-1.979.525-1.092 0-1.977-.235-1.977-.525 0-.29.885-.524 1.977-.524zm59.334 0c1.093 0 1.979.235 1.979.524 0 .29-.886.525-1.979.525-1.091 0-1.977-.235-1.977-.525 0-.29.886-.524 1.977-.524zm42.523 0c1.093 0 1.979.235 1.979.524 0 .29-.886.525-1.979.525-1.091 0-1.977-.235-1.977-.525 0-.29.886-.524 1.977-.524zm-118.668 0c1.093 0 1.978.235 1.978.524 0 .29-.885.525-1.978.525-1.092 0-1.978-.235-1.978-.525 0-.29.886-.524 1.978-.524zm59.334 0c1.093 0 1.979.235 1.979.524 0 .29-.886.525-1.979.525-1.092 0-1.977-.235-1.977-.525 0-.29.885-.524 1.977-.524zm42.523 0c1.093 0 1.979.235 1.979.524 0 .29-.886.525-1.979.525-1.092 0-1.977-.235-1.977-.525 0-.29.885-.524 1.977-.524zm-109.769 0c1.093 0 1.979.235 1.979.524 0 .29-.886.525-1.979.525-1.091 0-1.977-.235-1.977-.525 0-.29.886-.524 1.977-.524zm59.335 0c1.093 0 1.978.235 1.978.524 0 .29-.885.525-1.978.525-1.092 0-1.977-.235-1.977-.525 0-.29.885-.524 1.977-.524zm42.523 0c1.093 0 1.978.235 1.978.524 0 .29-.885.525-1.978.525-1.092 0-1.977-.235-1.977-.525 0-.29.885-.524 1.977-.524zm-110.758 0c1.093 0 1.979.235 1.979.524 0 .29-.886.525-1.979.525-1.092 0-1.977-.235-1.977-.525 0-.29.885-.524 1.977-.524zm59.335 0c1.093 0 1.978.235 1.978.524 0 .29-.885.525-1.978.525-1.092 0-1.978-.235-1.978-.525 0-.29.886-.524 1.978-.524zm42.523 0c1.093 0 1.978.235 1.978.524 0 .29-.885.525-1.978.525-1.092 0-1.978-.235-1.978-.525 0-.29.886-.524 1.978-.524zm-109.77 0c1.094 0 1.98.235 1.98.524 0 .29-.886.525-1.98.525-1.09 0-1.976-.235-1.976-.525 0-.29.885-.524 1.977-.524zm59.335 0c1.093 0 1.979.235 1.979.524 0 .29-.886.525-1.979.525-1.091 0-1.977-.235-1.977-.525 0-.29.886-.524 1.977-.524zm-68.234 0c1.093 0 1.978.235 1.978.524 0 .29-.885.525-1.978.525-1.092 0-1.977-.235-1.977-.525 0-.29.885-.524 1.977-.524zm59.334 0c1.093 0 1.979.235 1.979.524 0 .29-.886.525-1.979.525-1.092 0-1.977-.235-1.977-.525 0-.29.885-.524 1.977-.524zm-67.246 0C-.885 7.346 0 7.58 0 7.87c0 .29-.885.525-1.979.525-1.091 0-1.977-.235-1.977-.525 0-.29.886-.524 1.977-.524zm159.215-3.148c1.093 0 1.978.235 1.978.524 0 .29-.885.525-1.978.525-1.092 0-1.978-.235-1.978-.525 0-.29.886-.524 1.978-.524zm-16.812 0c1.093 0 1.979.235 1.979.524 0 .29-.886.525-1.979.525-1.092 0-1.977-.235-1.977-.525 0-.29.885-.524 1.977-.524zm-25.711 0c1.093 0 1.978.235 1.978.524 0 .29-.885.525-1.978.525-1.092 0-1.978-.235-1.978-.525 0-.29.886-.524 1.978-.524zm34.611 0c1.093 0 1.979.235 1.979.524 0 .29-.886.525-1.979.525-1.091 0-1.977-.235-1.977-.525 0-.29.886-.524 1.977-.524zm-17.8 0c1.093 0 1.978.235 1.978.524 0 .29-.885.525-1.978.525-1.092 0-1.977-.235-1.977-.525 0-.29.885-.524 1.977-.524zm34.612 0c1.093 0 1.978.235 1.978.524 0 .29-.885.525-1.978.525-1.092 0-1.977-.235-1.977-.525 0-.29.885-.524 1.977-.524zm-121.636 0c1.093 0 1.979.235 1.979.524 0 .29-.886.525-1.979.525-1.092 0-1.977-.235-1.977-.525 0-.29.885-.524 1.977-.524zm-16.811 0c1.093 0 1.978.235 1.978.524 0 .29-.885.525-1.978.525-1.092 0-1.977-.235-1.977-.525 0-.29.885-.524 1.977-.524zm78.123 0c1.093 0 1.979.235 1.979.524 0 .29-.886.525-1.979.525-1.091 0-1.977-.235-1.977-.525 0-.29.886-.524 1.977-.524zm16.812 0c1.093 0 1.978.235 1.978.524 0 .29-.885.525-1.978.525-1.092 0-1.977-.235-1.977-.525 0-.29.885-.524 1.977-.524zm-60.324 0c1.094 0 1.979.235 1.979.524 0 .29-.885.525-1.979.525-1.091 0-1.977-.235-1.977-.525 0-.29.886-.524 1.977-.524zm-42.523 0c1.094 0 1.979.235 1.979.524 0 .29-.885.525-1.979.525-1.091 0-1.977-.235-1.977-.525 0-.29.886-.524 1.977-.524zm78.124 0c1.093 0 1.979.235 1.979.524 0 .29-.886.525-1.979.525-1.092 0-1.977-.235-1.977-.525 0-.29.885-.524 1.977-.524zm77.135 0c1.093 0 1.978.235 1.978.524 0 .29-.885.525-1.978.525-1.092 0-1.977-.235-1.977-.525 0-.29.885-.524 1.977-.524zm-121.636 0c1.093 0 1.979.235 1.979.524 0 .29-.886.525-1.979.525-1.091 0-1.977-.235-1.977-.525 0-.29.886-.524 1.977-.524zm-42.523 0c1.093 0 1.979.235 1.979.524 0 .29-.886.525-1.979.525-1.091 0-1.977-.235-1.977-.525 0-.29.886-.524 1.977-.524zm78.124 0c1.093 0 1.978.235 1.978.524 0 .29-.885.525-1.978.525-1.092 0-1.977-.235-1.977-.525 0-.29.885-.524 1.977-.524zm-52.412 0c1.093 0 1.978.235 1.978.524 0 .29-.885.525-1.978.525-1.092 0-1.977-.235-1.977-.525 0-.29.885-.524 1.977-.524zm-34.612 0c1.093 0 1.979.235 1.979.524 0 .29-.886.525-1.979.525C.885 5.247 0 5.012 0 4.722c0-.29.885-.524 1.977-.524zm79.113 0c1.093 0 1.978.235 1.978.524 0 .29-.885.525-1.978.525-1.092 0-1.977-.235-1.977-.525 0-.29.885-.524 1.977-.524zm-88.013 0c1.093 0 1.978.235 1.978.524 0 .29-.885.525-1.978.525-1.092 0-1.977-.235-1.977-.525 0-.29.885-.524 1.977-.524zm78.124 0c1.093 0 1.978.235 1.978.524 0 .29-.885.525-1.978.525-1.092 0-1.978-.235-1.978-.525 0-.29.886-.524 1.978-.524zm56.367-3.149c1.093 0 1.979.235 1.979.525 0 .29-.886.525-1.979.525-1.091 0-1.977-.235-1.977-.525 0-.29.886-.525 1.977-.525zm-70.212 0c1.093 0 1.978.235 1.978.525 0 .29-.885.525-1.978.525-1.092 0-1.977-.235-1.977-.525 0-.29.885-.525 1.977-.525zm52.412 0c1.093 0 1.978.235 1.978.525 0 .29-.885.525-1.978.525-1.092 0-1.977-.235-1.977-.525 0-.29.885-.525 1.977-.525zm-78.124 0c1.093 0 1.979.235 1.979.525 0 .29-.886.525-1.979.525-1.091 0-1.977-.235-1.977-.525 0-.29.886-.525 1.977-.525zm70.213 0c1.093 0 1.978.235 1.978.525 0 .29-.885.525-1.978.525-1.092 0-1.977-.235-1.977-.525 0-.29.885-.525 1.977-.525zm60.323 0c1.093 0 1.979.235 1.979.525 0 .29-.886.525-1.979.525-1.092 0-1.977-.235-1.977-.525 0-.29.885-.525 1.977-.525zm-139.436 0c1.093 0 1.979.235 1.979.525 0 .29-.886.525-1.979.525-1.092 0-1.977-.235-1.977-.525 0-.29.885-.525 1.977-.525zm70.213 0c1.093 0 1.978.235 1.978.525 0 .29-.885.525-1.978.525-1.092 0-1.978-.235-1.978-.525 0-.29.886-.525 1.978-.525zm60.323 0c1.093 0 1.978.235 1.978.525 0 .29-.885.525-1.978.525-1.092 0-1.977-.235-1.977-.525 0-.29.885-.525 1.977-.525zm-138.447 0c1.093 0 1.978.235 1.978.525 0 .29-.885.525-1.978.525-1.092 0-1.977-.235-1.977-.525 0-.29.885-.525 1.977-.525zm70.212 0c1.093 0 1.979.235 1.979.525 0 .29-.886.525-1.979.525-1.091 0-1.977-.235-1.977-.525 0-.29.886-.525 1.977-.525zm60.324 0c1.093 0 1.978.235 1.978.525 0 .29-.885.525-1.978.525-1.092 0-1.977-.235-1.977-.525 0-.29.885-.525 1.977-.525zm-95.924 0c1.093 0 1.978.235 1.978.525 0 .29-.885.525-1.978.525-1.092 0-1.977-.235-1.977-.525 0-.29.885-.525 1.977-.525zm69.223 0c1.093 0 1.979.235 1.979.525 0 .29-.886.525-1.979.525-1.092 0-1.977-.235-1.977-.525 0-.29.885-.525 1.977-.525zm-111.746 0c1.093 0 1.978.235 1.978.525 0 .29-.885.525-1.978.525-1.092 0-1.977-.235-1.977-.525 0-.29.885-.525 1.977-.525zm69.223 0c1.093 0 1.979.235 1.979.525 0 .29-.886.525-1.979.525-1.092 0-1.977-.235-1.977-.525 0-.29.885-.525 1.977-.525zm60.323 0c1.094 0 1.979.235 1.979.525 0 .29-.885.525-1.979.525-1.091 0-1.977-.235-1.977-.525 0-.29.886-.525 1.977-.525zm-139.435 0c1.093 0 1.978.235 1.978.525 0 .29-.885.525-1.978.525-1.092 0-1.978-.235-1.978-.525 0-.29.886-.525 1.978-.525zm69.223 0c1.093 0 1.979.235 1.979.525 0 .29-.886.525-1.979.525-1.092 0-1.977-.235-1.977-.525 0-.29.885-.525 1.977-.525zm-26.7 0c1.093 0 1.978.235 1.978.525 0 .29-.885.525-1.978.525-1.092 0-1.978-.235-1.978-.525 0-.29.886-.525 1.978-.525z" fill="#A3B1BF" mask="url(#b)"/></g><g transform="rotate(-26 165.585 -46.266)"><path d="M148.385 1.5c.69 0 1.315.28 1.768.732.452.453.732 1.078.732 1.768v82.827c0 .69-.28 1.315-.732 1.768a2.492 2.492 0 0 1-1.768.732h-10.44c-.038-.181-.077-.362-.117-.542h9.015c.92 0 1.756-.354 2.38-.934a3.492 3.492 0 0 0 1.115-2.369l.005-79.94c0-.967-.392-1.842-1.025-2.475a3.489 3.489 0 0 0-2.475-1.025H5.542c-.92 0-1.756.354-2.38.934a3.492 3.492 0 0 0-1.115 2.369l-.005 79.94c0 .92.354 1.756.934 2.38a3.492 3.492 0 0 0 2.369 1.115l58.069.005c-.04.18-.079.361-.116.542H4c-.69 0-1.315-.28-1.768-.732a2.492 2.492 0 0 1-.732-1.768V4c0-.69.28-1.315.732-1.768A2.492 2.492 0 0 1 4 1.5z" stroke="#A3B1BF" stroke-width="3"/><path d="M146.843 3.542a2 2 0 0 1 2 2v79.743a2 2 0 0 1-2 2h-10.932c-.33-1.2-.722-2.382-1.172-3.542h8.562a2 2 0 0 0 1.995-1.85l.005-.15V9.084a2 2 0 0 0-2-2H9.083A2 2 0 0 0 7.09 8.934l-.006.15v72.66a2 2 0 0 0 1.851 1.994l.15.006 57.425-.001a36.602 36.602 0 0 0-1.177 3.542H5.542a2 2 0 0 1-2-2V5.542a2 2 0 0 1 2-2h141.301z" fill="#A3B1BF" fill-rule="nonzero" opacity=".248"/><path d="M143.301 7.083a2 2 0 0 1 2 2v72.66a2 2 0 0 1-2 2h-8.562c-3.218-8.29-9.448-15.436-18.071-19.642-18.167-8.86-40.076-1.316-48.937 16.85-.45.922-.857 1.854-1.223 2.793H9.083a2 2 0 0 1-2-2V9.084a2 2 0 0 1 2-2h134.218z" fill="#BCD8FF" fill-rule="nonzero" opacity=".102"/><rect stroke="#A3B1BF" stroke-width="3" fill="#A3B1BF" fill-rule="nonzero" x="18.322" y="17.296" width="52.413" height="2.923" rx="1.462"/><rect stroke="#A3B1BF" stroke-width="3" fill="#A3B1BF" fill-rule="nonzero" x="18.322" y="35.066" width="52.413" height="2.923" rx="1.462"/><rect stroke="#A3B1BF" stroke-width="3" fill="#A3B1BF" fill-rule="nonzero" x="18.322" y="52.837" width="52.413" height="2.923" rx="1.462"/><path d="M74.095 70.607a38.316 38.316 0 0 0-2.668 2.923H19.783a1.457 1.457 0 0 1-1.462-1.462c0-.403.164-.768.429-1.032.264-.265.63-.429 1.033-.429zm58.506 0c.404 0 .77.164 1.034.429a1.457 1.457 0 0 1 0 2.067c-.265.264-.63.428-1.033.428h-2.288a38.316 38.316 0 0 0-2.668-2.924z" stroke="#A3B1BF" stroke-width="3" fill="#A3B1BF" fill-rule="nonzero"/><path d="M110.329 13.821c7.367 0 13.36 5.977 13.36 13.33 0 7.349-5.993 13.326-13.36 13.326-1.527 0-2.996-.257-4.364-.73-.238.186-.518.33-.829.412-.547.147-12.439 3.522-11.38 16.07l.038.412c.138 1.287-.781 2.442-2.053 2.582h-.003a2.323 2.323 0 0 1-2.548-2.08c-1.21-11.469 6.07-17.842 11.82-20.454a13.27 13.27 0 0 1-4.038-9.539c0-7.352 5.993-13.329 13.357-13.329zm13.165 27.212c.274.239 6.591 5.875 6.105 15.523l-.027.448c-.09 1.26-1.088 2.232-2.29 2.23h-.086l-.086-.005c-1.265-.1-2.214-1.257-2.12-2.586v-.002c.527-7.334-4.211-11.694-4.423-11.888l-.007-.006c-.975-.852-1.11-2.373-.3-3.399.809-1.021 2.256-1.168 3.234-.315zM110.33 18.086c-5.007 0-9.082 4.065-9.082 9.064 0 4.998 4.075 9.062 9.082 9.062 5.01 0 9.085-4.064 9.085-9.062 0-5-4.075-9.064-9.085-9.064z" fill="#A3B1BF"/></g><g fill="#A3B1BF" fill-rule="nonzero"><path d="M170 74.375c20.212 0 36.597 16.385 36.597 36.597S190.212 147.57 170 147.57s-36.597-16.385-36.597-36.597S149.788 74.375 170 74.375zm0 3.542c-18.256 0-33.056 14.8-33.056 33.055 0 18.256 14.8 33.056 33.056 33.056 18.256 0 33.056-14.8 33.056-33.056 0-18.256-14.8-33.055-33.056-33.055z"/><path d="M170 77.917c18.256 0 33.056 14.8 33.056 33.055 0 18.256-14.8 33.056-33.056 33.056-18.256 0-33.056-14.8-33.056-33.056 0-18.256 14.8-33.055 33.056-33.055zm0 3.541c-16.3 0-29.514 13.214-29.514 29.514 0 16.3 13.214 29.514 29.514 29.514 16.3 0 29.514-13.214 29.514-29.514 0-16.3-13.214-29.514-29.514-29.514z" opacity=".248"/></g><path d="M45.451 132.222c.828 0 1.499.671 1.499 1.499v3.495h3.496a1.498 1.498 0 0 1 0 2.998h-3.497v3.496a1.498 1.498 0 0 1-2.996 0v-3.497h-3.496a1.498 1.498 0 1 1 0-2.996h3.495l.001-3.496c0-.828.67-1.499 1.498-1.499zM213.09 15.347c.828 0 1.499.671 1.499 1.499v3.495h3.496a1.498 1.498 0 0 1 0 2.998h-3.497v3.496a1.498 1.498 0 1 1-2.996 0v-3.497h-3.496a1.498 1.498 0 1 1 0-2.996h3.495v-3.496c0-.828.672-1.499 1.5-1.499z" fill="#A3B1BF" fill-rule="nonzero"/><circle stroke="#A3B1BF" stroke-width="3" cx="60.799" cy="28.924" r="7.354"/><circle stroke="#A3B1BF" stroke-width="3" cx="145.799" cy="164.688" r="3.813"/><circle stroke="#A3B1BF" stroke-width="3" cx="234.34" cy="158.785" r="1.451"/><circle stroke="#A3B1BF" stroke-width="3" cx="11.215" cy="72.604" r="1.451"/><path d="M170 132.222c-4.035 0-7.32-3.343-7.32-7.453 0-2.689 1.405-5.05 3.507-6.36-1.503-2.01-2.325-5.193-2.986-8.249-.876-4.046-1.465-8.674-1.465-10.459 0-4.85 3.707-8.798 8.264-8.798 4.557 0 8.264 3.948 8.264 8.798 0 1.788-.59 6.417-1.464 10.46-.662 3.057-1.484 6.24-2.987 8.248a7.483 7.483 0 0 1 3.506 6.36c0 4.11-3.283 7.453-7.319 7.453" fill="#A3B1BF" fill-rule="nonzero" opacity=".248"/><path d="M166.223 124.769c0-2.162 1.691-3.913 3.777-3.913 2.086 0 3.778 1.751 3.778 3.913 0 2.16-1.692 3.911-3.778 3.911-2.086 0-3.777-1.75-3.777-3.911M170 94.444c2.61 0 4.723 2.352 4.723 5.258 0 2.907-2.117 17.24-4.723 17.24-2.605 0-4.722-14.34-4.722-17.24 0-2.9 2.111-5.258 4.722-5.258" fill="#A3B1BF"/><path d="M222.67 33.218c-.52 0-1.036-.228-1.385-.666-.601-.752-1.357-1.52-2.247-2.284a1.77 1.77 0 1 1 2.307-2.688c1.057.908 1.969 1.838 2.707 2.762a1.772 1.772 0 0 1-1.383 2.876m.967 9.833a1.771 1.771 0 0 1-1.54-2.64c.51-.905.828-1.803.945-2.668.131-.967 1.03-1.656 1.992-1.517a1.77 1.77 0 0 1 1.518 1.992c-.177 1.311-.639 2.635-1.37 3.932-.325.577-.926.9-1.545.9m-7.506 7.358a1.772 1.772 0 0 1-1-3.235 37.273 37.273 0 0 0 2.706-2.018 1.77 1.77 0 1 1 2.252 2.733 41.292 41.292 0 0 1-2.96 2.212 1.772 1.772 0 0 1-.998.308m-9.233 5.226a1.769 1.769 0 0 1-.774-3.363 97.811 97.811 0 0 0 3.1-1.571 1.772 1.772 0 0 1 1.661 3.128c-1.021.54-2.092 1.085-3.216 1.63-.248.12-.512.176-.77.176M43.84 102.6a1.773 1.773 0 0 1-.722-3.389c1.059-.471 2.159-.942 3.302-1.414a1.771 1.771 0 0 1 1.349 3.275c-1.11.456-2.18.915-3.208 1.375-.234.104-.479.153-.72.153m-9.424 4.88a1.77 1.77 0 0 1-.933-3.278 65.178 65.178 0 0 1 3.151-1.819 1.771 1.771 0 0 1 1.69 3.113 62.034 62.034 0 0 0-2.98 1.72 1.77 1.77 0 0 1-.928.264m-8.063 6.81a1.77 1.77 0 0 1-1.417-2.832c.71-.95 1.586-1.906 2.597-2.844a1.772 1.772 0 0 1 2.405 2.6 17.833 17.833 0 0 0-2.166 2.366c-.349.465-.88.71-1.42.71m-1.127 9.905c-.64 0-1.258-.346-1.573-.954-.686-1.32-1.096-2.673-1.216-4.017a1.77 1.77 0 1 1 3.527-.317c.08.883.359 1.793.831 2.702a1.771 1.771 0 0 1-1.569 2.586m7.42 7.45c-.342 0-.687-.099-.992-.305a38.027 38.027 0 0 1-2.975-2.223 1.771 1.771 0 0 1 2.266-2.722c.804.669 1.71 1.347 2.695 2.015a1.77 1.77 0 0 1-.994 3.236" fill="#A3B1BF" fill-rule="nonzero" opacity=".254"/><path d="M223.893 30.823c-.227 0-.457-.043-.679-.135-1.03-.429-2.112-.859-3.243-1.29a1.772 1.772 0 0 1 1.264-3.309c1.164.446 2.278.887 3.338 1.329a1.771 1.771 0 0 1-.68 3.405m9.502 4.724c-.32 0-.643-.086-.934-.268a45.604 45.604 0 0 0-2.963-1.684 1.77 1.77 0 1 1 1.643-3.139 49.57 49.57 0 0 1 3.193 1.817 1.77 1.77 0 0 1-.939 3.274m6.81 7.725a1.77 1.77 0 0 1-1.757-1.561c-.086-.73-.445-1.514-1.067-2.33a1.772 1.772 0 0 1 2.818-2.146c1.01 1.327 1.604 2.693 1.767 4.058a1.77 1.77 0 0 1-1.761 1.98m-6.113 7.877a1.77 1.77 0 0 1-.884-3.306c1.042-.6 1.95-1.21 2.693-1.814.76-.618 1.875-.5 2.491.261.617.76.5 1.874-.26 2.49-.89.721-1.953 1.44-3.158 2.133-.28.16-.582.236-.882.236m-9.73 4.217a1.77 1.77 0 0 1-.576-3.445 81.543 81.543 0 0 0 3.253-1.194 1.772 1.772 0 0 1 2.295 1.002 1.77 1.77 0 0 1-1.002 2.295 85.16 85.16 0 0 1-3.393 1.245 1.764 1.764 0 0 1-.577.097m-10.18 3.03a1.77 1.77 0 0 1-.447-3.483c1.168-.305 2.295-.61 3.383-.919a1.772 1.772 0 0 1 .965 3.409c-1.11.314-2.262.625-3.453.937-.15.039-.3.057-.448.057m-10.34 2.442a1.77 1.77 0 0 1-.372-3.502c1.175-.253 2.321-.507 3.438-.762a1.771 1.771 0 1 1 .786 3.454c-1.13.258-2.289.514-3.476.77-.125.027-.252.04-.376.04M35.752 85.358a1.77 1.77 0 0 1-.45-3.483c1.127-.297 2.281-.59 3.463-.88a1.77 1.77 0 1 1 .843 3.44 203.16 203.16 0 0 0-3.403.865c-.152.04-.303.058-.453.058m-10.18 3.019a1.771 1.771 0 0 1-.565-3.45c1.1-.37 2.238-.735 3.414-1.098a1.772 1.772 0 0 1 1.043 3.386c-1.147.352-2.255.708-3.327 1.07a1.776 1.776 0 0 1-.565.092m-9.867 3.914a1.77 1.77 0 0 1-.76-3.37 74.56 74.56 0 0 1 3.313-1.472 1.772 1.772 0 0 1 1.362 3.269c-1.094.455-2.156.929-3.155 1.402a1.76 1.76 0 0 1-.76.171M6.73 97.892a1.772 1.772 0 0 1-1.165-3.105 30.514 30.514 0 0 1 2.982-2.277 1.77 1.77 0 1 1 1.98 2.935 26.725 26.725 0 0 0-2.632 2.009 1.772 1.772 0 0 1-1.165.438m-4.958 8.99l-.048-.001A1.77 1.77 0 0 1 0 105.065c.037-1.374.324-2.735.855-4.043a1.766 1.766 0 0 1 2.307-.975 1.77 1.77 0 0 1 .975 2.305 7.999 7.999 0 0 0-.596 2.805 1.77 1.77 0 0 1-1.769 1.725m4.037 9.565a1.763 1.763 0 0 1-1.367-.644 25.01 25.01 0 0 1-2.208-3.099 1.77 1.77 0 0 1 .614-2.427c.84-.5 1.928-.228 2.427.613a21.493 21.493 0 0 0 1.897 2.659 1.77 1.77 0 1 1-1.364 2.898m7.785 7.185a1.76 1.76 0 0 1-1.064-.357 66.287 66.287 0 0 1-2.846-2.268 1.772 1.772 0 0 1 2.287-2.704 62.256 62.256 0 0 0 2.692 2.145 1.771 1.771 0 0 1-1.069 3.184m8.838 5.888c-.31 0-.624-.081-.909-.252a127.262 127.262 0 0 1-3.055-1.888 1.771 1.771 0 0 1 1.905-2.986c.952.607 1.941 1.219 2.972 1.836a1.772 1.772 0 0 1-.913 3.29m9.29 5.151c-.274 0-.553-.064-.812-.198a215.9 215.9 0 0 1-3.16-1.668 1.77 1.77 0 0 1-.716-2.4 1.77 1.77 0 0 1 2.399-.718 214.61 214.61 0 0 0 3.106 1.64 1.77 1.77 0 0 1-.817 3.344" fill="#A3B1BF"/></g></svg>