<svg class="icon" viewBox="0 0 1024 1024" xmlns="http://www.w3.org/2000/svg" width="200" height="200"><path d="M970.667 213.333h-424.08a10.573 10.573 0 0 1-7.54-3.126L429.793 100.953a52.987 52.987 0 0 0-37.713-15.62H96a53.393 53.393 0 0 0-53.333 53.334v704A53.393 53.393 0 0 0 96 896h874.667A53.393 53.393 0 0 0 1024 842.667v-576a53.393 53.393 0 0 0-53.333-53.334zm10.666 629.334a10.667 10.667 0 0 1-10.666 10.666H96a10.667 10.667 0 0 1-10.667-10.666v-704A10.667 10.667 0 0 1 96 128h296.08a10.573 10.573 0 0 1 7.54 3.127L508.873 240.38A52.987 52.987 0 0 0 546.587 256h424.08a10.667 10.667 0 0 1 10.666 10.667zM682.667 533.333a21.333 21.333 0 0 1-21.334 21.334h-256a21.333 21.333 0 0 1 0-42.667h256a21.333 21.333 0 0 1 21.334 21.333z" /></svg>
