<svg class="icon" viewBox="0 0 1024 1024" xmlns="http://www.w3.org/2000/svg" width="200" height="200"><path d="M494 530v215c0 118.741-96.259 215-215 215S64 863.741 64 745s96.259-215 215-215h215zm251 0c118.741 0 215 96.259 215 215s-96.259 215-215 215-215-96.259-215-215V530zm-311 60H279c-85.604 0-155 69.396-155 155s69.396 155 155 155l2.563-.02C365.985 898.61 434 829.747 434 745V590zm311 0H590v155c0 84.748 68.015 153.61 152.437 154.98L745 900c85.604 0 155-69.396 155-155s-69.396-155-155-155zM279 64c118.741 0 215 96.259 215 215v215H279c-118.741 0-215-96.259-215-215S160.259 64 279 64zm466 0c118.741 0 215 96.259 215 215s-96.259 215-215 215H530V279c0-118.741 96.259-215 215-215zm-466 60c-85.604 0-155 69.396-155 155s69.396 155 155 155h155V279c0-84.748-68.015-153.61-152.437-154.98zm466 0l-2.563.02C658.015 125.39 590 194.253 590 279v155h155c85.604 0 155-69.396 155-155s-69.396-155-155-155z"/></svg>