<svg class="icon" viewBox="0 0 1024 1024" xmlns="http://www.w3.org/2000/svg" width="200" height="200"><path d="M1009.195 5.118a32.054 32.054 0 0 0-35.126.256L14.36 645.18A31.83 31.83 0 0 0 .317 675.123a31.83 31.83 0 0 0 19.93 26.36l250.292 100.162 117.692 205.953a31.99 31.99 0 0 0 27.416 16.123h.352c11.228 0 21.657-5.95 27.415-15.547l66.444-110.782 310.146 124.026a31.734 31.734 0 0 0 27.544-1.855c8.445-4.735 14.235-13.052 15.867-22.618l159.951-959.708a32.054 32.054 0 0 0-14.171-32.119zM100.446 664.662L841.821 170.38 302.785 747.39c-2.847-1.696-5.374-3.936-8.51-5.183l-193.829-77.545zm225.628 105.216l-.224-.32 605.992-648.603-516.611 804.94-89.157-156.017zm480.75 177.323l-273.23-109.28a63.565 63.565 0 0 0-19.929-3.806l420.736-652.218L806.824 947.2z" /></svg>
