<svg class="icon" viewBox="0 0 1024 1024" xmlns="http://www.w3.org/2000/svg" width="200" height="200"><path d="M423.586 436.574h479.532c4.396 0 7.992-3.597 7.992-7.993v-47.953c0-4.395-3.596-7.992-7.992-7.992H423.586c-4.395 0-7.992 3.597-7.992 7.992v47.953c0 4.396 3.597 7.993 7.992 7.993zm-7.992 205.799c0 4.395 3.597 7.992 7.992 7.992h479.532c4.396 0 7.992-3.597 7.992-7.992V594.42c0-4.396-3.596-7.993-7.992-7.993H423.586c-4.395 0-7.992 3.597-7.992 7.993v47.953zm487.524-482.53H119.883c-4.396 0-7.992 3.597-7.992 7.993v47.953c0 4.396 3.596 7.992 7.992 7.992h783.235c4.396 0 7.992-3.596 7.992-7.992v-47.953c0-4.396-3.596-7.992-7.992-7.992zm0 639.377H119.883c-4.396 0-7.992 3.596-7.992 7.992v47.953c0 4.396 3.596 7.992 7.992 7.992h783.235c4.396 0 7.992-3.596 7.992-7.992v-47.953c0-4.396-3.596-7.992-7.992-7.992zM282.424 518.333l-156.147 122.98c-5.795 4.595-14.386.5-14.386-6.894V388.46c0-7.392 8.491-11.488 14.386-6.893l156.147 122.98c4.496 3.497 4.496 10.29 0 13.787z"/></svg>
