<svg class="icon" viewBox="0 0 1024 1024" xmlns="http://www.w3.org/2000/svg" width="128" height="128"><path d="M1021.25 530.295c0 25.997-21.36 47.083-47.741 47.083-12.583 0-23.946-4.898-32.45-12.742l-.125.123-427.716-421.71v-.025l-1.217-1.13v-.013L84.036 563.826l-.023-.013c-8.616 8.379-20.452 13.564-33.52 13.564-26.371 0-47.742-21.084-47.742-47.083 0-13.327 5.632-25.363 14.671-33.917L477.587 42.664c8.677-8.901 20.887-14.46 34.414-14.46h.024c.845 0 1.69.025 2.511.075.123 0 .275.025.398.025.722.049 1.418.099 2.139.174.05 0 .1.012.15.012 11.661 1.255 22.106 6.664 29.69 14.696l.023-.025 168.765 163.282v-50.926c0-33.134 48.066-25.462 50.926-25.462 41.4 0 50.925-.522 50.925 25.462v152.774l190.894 189.888-.1.112c7.955 8.406 12.904 19.608 12.904 32.004zm-76.387 83.55v331.023c0 25.986-24.54 50.926-50.9 50.926H766.649l-.023-381.95H588.387v381.95H130.064c-26.372 0-50.926-24.94-50.926-50.926V613.845l432.861-413.046 432.864 413.046zm-483.787 0H231.913v203.7h229.163v-203.7z"/></svg>