<svg class="icon" viewBox="0 0 1024 1024" xmlns="http://www.w3.org/2000/svg" width="200" height="200"><path d="M831.5 864H192c-53 0-96-43.1-96-96V128.1c0-53 43.1-96 96-96h640c53 0 96 43.1 96 96l-.1 639.5c0 53.2-43.2 96.4-96.4 96.4zM192 96c-17.7 0-32 14.4-32 32v640c0 17.7 14.4 32 32 32h639.5c17.9 0 32.4-14.5 32.4-32.4l.1-639.5c0-17.7-14.4-32-32-32H192z"/><path d="M128 672c-8.2 0-16.4-3.1-22.6-9.4-12.5-12.5-12.5-32.8 0-45.3L264.8 458c29.2-29.2 73.7-36.5 110.7-18l173.6 86.8c12.3 6.2 27.1 3.8 36.8-6l287.4-287.4c12.5-12.5 32.8-12.5 45.3 0s12.5 32.8 0 45.3L631.2 566.1c-29.2 29.2-73.7 36.5-110.7 18l-173.6-86.8c-12.3-6.2-27.1-3.8-36.8 6L150.6 662.6c-6.2 6.3-14.4 9.4-22.6 9.4zM384 352c-52.9 0-96-43.1-96-96s43.1-96 96-96 96 43.1 96 96-43.1 96-96 96zm0-128c-17.6 0-32 14.4-32 32s14.4 32 32 32 32-14.4 32-32-14.4-32-32-32z"/></svg>