<svg class="icon" viewBox="0 0 1024 1024" xmlns="http://www.w3.org/2000/svg" width="200" height="200"><defs><style>@font-face{font-family:feedback-iconfont;src:url("//at.alicdn.com/t/font_1031158_u69w8yhxdu.woff2?t=1630033759944") format("woff2"),url("//at.alicdn.com/t/font_1031158_u69w8yhxdu.woff?t=1630033759944") format("woff"),url("//at.alicdn.com/t/font_1031158_u69w8yhxdu.ttf?t=1630033759944") format("truetype")}</style></defs><path d="M64 480h352V128H64v352zm64-288h224v224H128V192zM64 928h352V576H64v352zm64-288h224v224H128V640zm398.848-416H928a32 32 0 1 0 0-64H526.848a32 32 0 0 0 0 64zM928 608H526.848a32 32 0 1 0 0 64H928a32 32 0 1 0 0-64zm0-224H526.848a32 32 0 0 0 0 64H928a32 32 0 1 0 0-64zm0 448H526.848a32 32 0 1 0 0 64H928a32 32 0 1 0 0-64z"/></svg>