<svg class="icon" viewBox="0 0 1024 1024" xmlns="http://www.w3.org/2000/svg" width="200" height="200"><path d="M862.8 62.4H178.7c-46.5 0-84.4 37.9-84.4 84.4V874c0 46.5 37.9 84.3 84.4 84.3h684.1c46.5 0 84.3-37.8 84.3-84.3V146.8c0-46.5-37.8-84.4-84.3-84.4zm-684.1 39.7h684.1c24.6 0 44.7 20 44.7 44.7v132.4H134V146.8c0-24.7 20.1-44.7 44.7-44.7zm684.1 816.6H178.7c-24.6 0-44.7-20-44.7-44.7V318.8h773.4V874c0 24.7-20 44.7-44.6 44.7zm-223-258.2H237.5c-11 0-19.8-8.9-19.8-19.8 0-11 8.9-19.8 19.8-19.8h402.3c11 0 19.8 8.9 19.8 19.8.1 10.9-8.8 19.8-19.8 19.8zm160.5-162.1H237.5c-11 0-19.8-8.9-19.8-19.8 0-11 8.9-19.8 19.8-19.8h562.7c11 0 19.8 8.9 19.8 19.8.1 11-8.8 19.8-19.7 19.8zM447.1 796.1H237.5c-11 0-19.8-8.9-19.8-19.8 0-11 8.9-19.8 19.8-19.8H447c11 0 19.8 8.9 19.8 19.8.1 11-8.8 19.8-19.7 19.8zM206.5 216.3c-2.4 0-5.2-.4-7.6-1.2-2.4-1.2-4.7-2.8-6.3-4.4-3.6-4-6-8.7-6-14.3 0-2.4.8-5.2 1.6-7.5 1.2-2.4 2.4-4.4 4.4-6.3 1.6-2 4-3.2 6.3-4.4 4.8-2 10.3-2 15.1 0 2.4 1.2 4.7 2.8 6.3 4.4 2 2 3.6 4 4.4 6.3 1.2 2.4 1.6 5.2 1.6 7.5 0 5.6-2 10.7-6 14.3-3.5 3.6-8.7 5.6-13.8 5.6zm73 0c-5.2 0-10.3-2-13.9-5.5-4-4-6-8.7-6-14.3 0-2.4.4-5.2 1.6-7.5.8-2.4 2.4-4.4 4.4-6.3 7.5-7.2 20.6-7.2 27.8 0 2 2 3.6 4 4.4 6.3 1.2 2.4 1.6 5.2 1.6 7.5 0 5.6-2 10.3-6 14.3-3.6 3.5-8.8 5.5-13.9 5.5zm73 0c-2.8 0-5.2-.4-7.5-1.2-2.4-1.2-4.8-2.8-6.7-4.4-3.6-4-5.6-8.7-5.6-14.3 0-2.4.4-5.2 1.6-7.5.8-2.4 2.4-4.4 4-6.3 2-2 4.4-3.2 6.7-4.4 7.2-2.8 15.9-1.2 21.4 4.4 2 2 3.6 4 4.4 6.3 1.2 2.4 1.6 5.2 1.6 7.5 0 5.6-2 10.3-6 14.3-3.6 3.6-8.7 5.6-13.9 5.6z"/></svg>
