<svg class="icon" viewBox="0 0 1024 1024" xmlns="http://www.w3.org/2000/svg" width="200" height="200"><path d="M480 992c-6.4 0-16-3.2-22.4-9.6-3.2 0-172.8-163.2-233.6-217.6-80-73.6-128-176-128-284.8C96 268.8 268.8 96 480 96s384 172.8 384 384c0 108.8-48 214.4-128 284.8-60.8 54.4-233.6 214.4-233.6 217.6-6.4 6.4-16 9.6-22.4 9.6zm0-832c-176 0-320 144-320 320 0 89.6 38.4 179.2 105.6 240 48 44.8 163.2 153.6 214.4 198.4 48-44.8 163.2-153.6 214.4-198.4C761.6 659.2 800 572.8 800 480c0-176-144-320-320-320z" /><path d="M480 640c-89.6 0-160-70.4-160-160s70.4-160 160-160 160 70.4 160 160-70.4 160-160 160zm0-256c-54.4 0-96 41.6-96 96s41.6 96 96 96 96-41.6 96-96-41.6-96-96-96z"/></svg>
