<svg class="icon" viewBox="0 0 1027 1024" xmlns="http://www.w3.org/2000/svg" width="128.375" height="128"><path d="M0 320.853l3.413-10.24c6.827-23.893 30.72-40.96 58.027-44.373 23.893-3.413 47.787 13.653 61.44 34.133 10.24 23.894 6.827 51.2-10.24 71.68l-6.827 6.827c47.787 30.72 95.574 58.027 143.36 85.333 17.067 10.24 34.134 20.48 54.614 34.134 10.24 6.826 17.066 3.413 23.893-6.827l163.84-296.96c-23.893-13.653-37.547-30.72-40.96-58.027 0-20.48 6.827-34.133 20.48-47.786 27.307-27.307 71.68-23.894 95.573 6.826 27.307 34.134 17.067 71.68-23.893 102.4 13.653 23.894 27.307 51.2 40.96 78.507 40.96 71.68 78.507 143.36 116.053 215.04 10.24 17.067 13.654 17.067 30.72 6.827 61.44-37.547 122.88-75.094 180.907-112.64 3.413-3.414 6.827-3.414 10.24-6.827-13.653-13.653-20.48-27.307-20.48-44.373-3.413-34.134 20.48-61.44 51.2-68.267 34.133-6.827 64.853 13.653 71.68 44.373 0 3.414 3.413 3.414 3.413 6.827v23.893c-10.24 34.134-30.72 51.2-68.266 51.2 0 3.414-3.414 6.827-3.414 10.24C921.6 525.653 884.053 645.12 849.92 768c-3.413 17.067-10.24 20.48-27.307 20.48H204.8c-17.067 0-23.893-3.413-27.307-20.48-27.306-98.987-58.026-197.973-85.333-296.96-6.827-27.307-17.067-54.613-23.893-81.92-27.307 0-47.787-10.24-61.44-34.133-3.414 0-3.414-6.827-6.827-13.654v-20.48zm512 535.894h286.72c23.893 0 44.373 17.066 47.787 40.96s-13.654 47.786-37.547 51.2H225.28c-20.48 0-40.96-13.654-47.787-34.134s0-40.96 17.067-54.613c10.24-6.827 20.48-10.24 30.72-10.24 95.573 6.827 191.147 6.827 286.72 6.827z"/></svg>