<svg class="icon" viewBox="0 0 1049 1024" xmlns="http://www.w3.org/2000/svg" width="131.125" height="128"><path d="M64.503 345.915A67.354 67.354 0 0 0 5.756 373.1c-23.082 31.275 31.418 75.117 31.418 75.117l324.852 327.78 119.388-246.38zm0 0M531.397 544.364L347.025 959.828a66.813 66.813 0 0 0 27.187 58.461c31.418 23.082 75.403-31.275 75.403-31.275l328.798-323.548-246.969-119.102zm0 0M1012.766 575.925L688.247 248.002l-119.403 246.38 416.784 183.846a67.354 67.354 0 0 0 58.747-27.186c22.939-31.275-31.561-75.117-31.561-75.117zm0 0M675.935 5.71c-31.418-23.081-75.403 31.276-75.403 31.276L271.718 360.677 518.83 479.636l184.275-415.32A67.035 67.035 0 0 0 675.92 5.71zm0 0"/></svg>