<svg class="icon" viewBox="0 0 1024 1024" xmlns="http://www.w3.org/2000/svg" width="128" height="128"><path d="M65.30600000000008 231.84300000000007c0-61.609 49.941-111.55 111.55-111.55h185.917c61.609 0 111.55 49.941 111.55 111.55v241.678H176.856c-61.609 0-111.55-49.94-111.55-111.551V231.843zm483.381 0c0-61.609 49.94-111.55 111.552-111.55h185.917c61.606 0 111.549 49.941 111.549 111.55v130.128c0 61.611-49.943 111.55-111.549 111.55H548.687V231.844zM65.306 659.468c0-61.612 49.941-111.548 111.55-111.548h297.467v241.703c0 61.61-49.941 111.549-111.55 111.549H176.856c-61.609 0-111.55-49.939-111.55-111.549V659.468zm894.691-98.794L862.784 903.85c-.917 3.736-3.397 6.557-6.543 8.22-.407.745-.657 1.548-1.234 2.216-4.615 5.43-12.759 6.07-18.201 1.445l-104.793-89.318c-5.43-4.619-6.072-12.775-1.455-18.192 1.627-1.914 3.724-3.083 5.954-3.764.746-1.537 1.742-3.213 3.316-5.258l85.463-111.824-102.8 94.802c-3.092 2.176-5.861 3.32-8.366 3.618-.013.052.013.095 0 .131l-27.75 106.001c-1.442 5.495-8.196 8.472-15.093 6.66-6.897-1.807-11.318-7.708-9.888-13.203l26.019-99.405H563.016c-7.135 0-12.906-5.78-12.906-12.905-3.2-6.242.382-14.723 8.957-20.063l378.806-204.81c.552-.17 1-.249 1.535-.409 3.043-2.503 7.03-3.748 11.147-2.739 1.154.288 2.098.904 3.096 1.457 2.269.656 4.22 1.77 5.467 4.05 1.09 2.007 1.273 4.278 1.036 6.597.039 1.168.144 2.321-.143 3.516h-.014zm-39.276 43.995l-.157.208.144-.142.013-.066z"/></svg>