<svg class="icon" viewBox="0 0 1024 1024" xmlns="http://www.w3.org/2000/svg" width="200" height="200"><path d="M192.032 631.403V404.725c0-176.394 143.253-319.392 319.968-319.392s319.968 142.998 319.968 319.392v226.678l60.608 121.013c10.645 21.237-4.832 46.219-28.619 46.219H160.043c-23.787 0-39.254-24.982-28.619-46.219l60.608-121.013zm620.16 103.36l-40.843-81.536a31.893 31.893 0 0 1-3.381-14.283V404.725c0-141.12-114.603-255.509-255.968-255.509s-255.968 114.39-255.968 255.51v234.207a32.01 32.01 0 0 1-3.381 14.294l-40.843 81.525h600.384zm-443.307 152.32a31.893 31.893 0 0 1-4.149-44.982 32.032 32.032 0 0 1 45.056-4.138A159.36 159.36 0 0 0 512 874.773a159.36 159.36 0 0 0 102.187-36.8 32.032 32.032 0 0 1 45.056 4.139 31.893 31.893 0 0 1-4.16 44.981A223.403 223.403 0 0 1 512 938.667c-52.981 0-103.2-18.454-143.115-51.595z"/></svg>
