<svg class="icon" viewBox="0 0 1024 1024" xmlns="http://www.w3.org/2000/svg" width="128" height="128"><path d="M673.348 377.02a33.57 33.57 0 0 0-47.496 0l-3.704 3.703c-87.859 87.825-203.008 59.972-281.497 4.608l-32.598-22.989a33.604 33.604 0 0 1-4.386-51.217l128.12-128.12a33.587 33.587 0 0 0 0-47.513l-2.629-2.628a252.86 252.86 0 0 0-190.566-73.353c-71.97 3.414-136.875 35.823-182.767 91.273-81.937 99.055-72.704 250.06 21.043 343.808l53.555 53.555c8.704 8.704 8.704 22.801 0 31.505l-29.132 29.133a46.507 46.507 0 0 0-13.534 34.816c.563 13.158 6.468 25.105 16.623 33.621 18.176 15.275 46.54 13.159 64.546-4.847l27.119-27.118a22.272 22.272 0 1 1 31.505 31.505l-29.133 29.132a46.592 46.592 0 0 0-13.55 34.816c.562 13.159 6.467 25.105 16.622 33.622 18.176 15.274 46.54 13.175 64.546-4.847l27.12-27.12a22.272 22.272 0 1 1 31.504 31.506l-29.133 29.133a46.54 46.54 0 0 0-13.55 34.833c.563 13.158 6.468 25.088 16.622 33.604 18.193 15.275 46.558 13.176 64.564-4.847l27.119-27.119a22.272 22.272 0 1 1 31.505 31.505l-27.12 27.12c-18.005 18.005-20.12 46.37-4.846 64.545 8.533 10.172 20.463 16.077 33.604 16.64a45.653 45.653 0 0 0 34.833-13.55l44.117-44.118a1.075 1.075 0 0 1 1.536 0l30.737 30.737 2.543 2.543 8.926 8.926c16.214 16.213 42.223 20.48 61.03 7.339a46.473 46.473 0 0 0 6.503-71.049l-29.235-29.235a22.272 22.272 0 1 1 31.505-31.505l27.324 27.324c16.213 16.213 42.223 20.48 61.03 7.338a46.473 46.473 0 0 0 6.502-71.048L681.54 773.75a22.272 22.272 0 1 1 31.505-31.505l27.324 27.324c16.23 16.213 42.24 20.48 61.03 7.339a46.455 46.455 0 0 0 6.486-71.049l-29.133-29.167a22.272 22.272 0 1 1 31.505-31.505l27.324 27.324c16.213 16.23 42.223 20.48 61.03 7.339a46.49 46.49 0 0 0 6.503-71.066L673.348 377.02z"/><path d="M932.437 100.42v-.017C833.4 18.5 682.394 27.7 588.647 121.43l-21.812 21.812-.136-.137-156.212 156.228c-16.861 16.862-11.161 45.107 10.667 54.733 41.745 18.38 102.605 30.02 153.48-20.855l51.337-51.337a33.57 33.57 0 0 1 47.497 0L884.105 492.51a33.587 33.587 0 0 0 47.513 0l18.773-18.773c49.955-49.972 76.698-119.433 73.336-190.567-3.413-71.97-35.823-136.875-91.29-182.75z"/></svg>