<svg class="icon" viewBox="0 0 1024 1024" xmlns="http://www.w3.org/2000/svg" width="200" height="200"><path d="M508.765 548.913c-45.569 0-82.642 37.073-82.642 82.643 0 18.12 5.76 35.32 16.66 49.74.234.31.476.61.728.904 20.418 23.794 21.9 40.78 21.996 42.337v47.198c0 23.853 19.406 43.258 43.26 43.258s43.259-19.406 43.259-43.258v-48.089c0-.54-.023-1.081-.07-1.619-.004-.041.108-.01.113-.05.118-1.084.482-3.402 1.586-6.76 2.22-6.751 7.442-17.813 19.729-32.179.178-.207.351-.42.52-.635 11.454-14.647 17.509-32.229 17.509-50.846-.001-45.57-37.076-82.644-82.648-82.644zm35.907 110.166c-28.9 33.943-30.313 58.253-30.039 65.054v47.603c0 3.234-2.632 5.865-5.867 5.865s-5.865-2.63-5.865-5.865v-47.423c.002-3.492-.961-31.194-30.593-65.974-5.753-7.792-8.791-17.04-8.791-26.783 0-24.951 20.3-45.25 45.25-45.25 24.953 0 45.254 20.299 45.254 45.25-.002 10.065-3.233 19.573-9.349 27.523z"/><path d="M822.68 390.412h-45.819V270.364c0-.793-.05-1.586-.15-2.374-8.165-63.781-39.283-122.509-87.623-165.367C640.325 59.39 577.543 35.58 512.31 35.58c-71.204 0-138.146 27.729-188.494 78.077-50.35 50.348-78.077 117.29-78.077 188.496v88.23l-50.884.029c-35.176 0-63.793 28.618-63.793 63.793v452.057c0 35.176 28.617 63.792 63.793 63.792h389.76c.568 0 1.13-.024 1.684-.074h234.698c.555.05 1.117.074 1.684.074 35.175 0 63.792-28.616 63.792-63.792V454.205c0-35.175-28.617-63.793-63.792-63.793zm26.4 515.85c0 13.887-10.778 25.304-24.409 26.325H578.914c-.568 0-1.13.025-1.684.075H194.854c-14.558 0-26.4-11.843-26.4-26.4V454.205c0-14.558 11.843-26.4 26.4-26.4l69.59-.042a18.805 18.805 0 0 0 2.798-.233c1.003.167 2.028.275 3.08.275H623.25c.336.008.857.015 1.547.015 9.41 0 50.318-1.432 85.969-24.945 8.62-5.686 10.998-17.282 5.313-25.902-5.687-8.62-17.284-10.998-25.902-5.313-29.552 19.492-65.778 18.771-66.081 18.762-.205-.007-.41-.01-.617-.01H283.131v-88.26c0-61.217 23.84-118.768 67.125-162.055C393.542 96.81 451.094 72.973 512.31 72.973c56.083 0 110.054 20.466 151.971 57.63 41.277 36.594 67.947 86.618 75.189 140.975v136.275c0 1.673.225 3.34.667 4.952l.345 1.254a18.697 18.697 0 0 0 18.028 13.744h64.172c14.556 0 26.4 11.843 26.4 26.4v452.06z"/></svg>
