<svg class="icon" viewBox="0 0 1024 1024" xmlns="http://www.w3.org/2000/svg" width="200" height="200"><path d="M950.667 734.409a31.97 31.97 0 0 0-45.213 0l-60.985 60.96a15.086 15.086 0 0 1-10.75 4.425 15.086 15.086 0 0 1-10.751-4.429l-85.546-85.553 71.725-71.722a31.97 31.97 0 1 0-45.214-45.206l-71.721 71.722-177.898-177.938A254.991 254.991 0 0 0 576 320c0-141.384-114.616-256-256-256s-255.998 114.612-255.998 256S178.617 576 320 576a254.821 254.821 0 0 0 146.9-46.319l202.032 202.08c.217.231.43.466.658.69s.455.433.683.65l107.484 107.474a78.592 78.592 0 0 0 55.953 23.16 78.603 78.603 0 0 0 55.964-23.153l60.985-60.97a31.952 31.952 0 0 0 .007-45.203zM394.738 496.992a191.723 191.723 0 0 1-182.066-17.7 192.803 192.803 0 0 1-69.656-84.557 191.723 191.723 0 0 1 17.701-182.067 192.803 192.803 0 0 1 84.542-69.662 191.723 191.723 0 0 1 182.067 17.7 192.807 192.807 0 0 1 69.655 84.557 191.723 191.723 0 0 1-17.7 182.067 192.807 192.807 0 0 1-84.543 69.662z"/></svg>
