<svg class="icon" viewBox="0 0 1024 1024" xmlns="http://www.w3.org/2000/svg" width="200" height="200"><path d="M820.41 797.228q0 25.197-10.08 46.866t-27.716 38.3-41.323 26.204-50.897 9.575H332.598q-27.212 0-50.897-9.575t-41.323-26.204-27.717-38.3-10.078-46.866V121.953q0-25.197 10.078-47.37t27.717-38.803 41.323-26.205T332.598 0h357.796q27.212 0 50.897 9.575t41.323 26.205 27.717 38.803 10.078 47.37v675.275zm-81.638-626.897h-455.56v577.512h455.56V170.33zm-227.78 605.732q-21.165 0-36.787 15.118t-15.622 37.291q0 21.166 15.622 36.788t36.787 15.622q22.173 0 37.291-15.622t15.119-36.788q0-22.173-15.119-37.29t-37.29-15.119zm80.63-691.402q0-8.063-5.04-12.598t-11.086-4.535h-128q-5.04 0-10.583 4.535t-5.543 12.598 5.04 12.599 11.086 4.535h128q6.047 0 11.087-4.535t5.039-12.599z"/></svg>

