<svg class="icon" viewBox="0 0 1024 1024" xmlns="http://www.w3.org/2000/svg" width="200" height="200"><path d="M848.457 128s-58.514 0-153.6-36.571c-102.4-36.572-164.571-76.8-164.571-76.8L501.029 0l-25.6 14.629s-65.829 40.228-164.572 76.8C212.114 124.343 157.257 128 157.257 128l-47.543 3.657v504.686C109.714 822.857 457.143 1024 501.03 1024c40.228 0 391.314-201.143 391.314-387.657V131.657L848.457 128zM475.43 709.486L292.57 541.257l54.858-69.486L464.457 577.83l219.429-274.286 65.828 62.171L475.43 709.486z"/></svg>

