<svg class="icon" viewBox="0 0 1024 1024" xmlns="http://www.w3.org/2000/svg" width="200" height="200"><path d="M848.203 624.638c61.767 0 111.993-50.254 111.993-111.993 0-61.766-50.227-111.995-111.993-111.995h-19.414a336.741 336.741 0 0 0-13.478-32.701l13.67-13.698c21.081-21.08 32.703-49.217 32.703-79.183 0-29.995-11.622-58.103-32.703-79.184-21.08-21.11-49.216-32.703-79.184-32.703-29.97 0-58.104 11.593-79.181 32.703l-13.67 13.672a336.735 336.735 0 0 0-32.732-13.481v-19.413c0-61.766-50.23-111.994-111.995-111.994-61.763 0-111.993 50.228-111.993 111.994v19.413a336.435 336.435 0 0 0-32.732 13.48l-13.671-13.67c-21.077-21.11-49.213-32.704-79.183-32.704-29.966 0-58.099 11.593-79.184 32.703-21.076 21.08-32.701 49.19-32.701 79.184 0 29.968 11.625 58.103 32.701 79.183l13.671 13.67a337.606 337.606 0 0 0-13.477 32.73h-19.414c-61.764 0-111.993 50.228-111.993 111.994 0 61.74 50.229 111.993 111.993 111.993h19.414a337.17 337.17 0 0 0 13.477 32.73l-13.67 13.67c-21.077 21.082-32.702 49.192-32.702 79.186 0 29.996 11.625 58.102 32.701 79.182 21.085 21.078 49.218 32.704 79.184 32.704 29.971 0 58.106-11.626 79.183-32.704l13.671-13.67c10.61 5.03 21.52 9.512 32.732 13.479v19.416c0 61.736 50.23 111.993 111.993 111.993 61.766 0 111.995-50.257 111.995-111.993v-19.416c11.21-3.967 22.12-8.448 32.731-13.505l13.67 13.695c21.078 21.078 49.213 32.704 79.182 32.704 29.968 0 58.104-11.626 79.184-32.704 21.081-21.08 32.703-49.186 32.703-79.182 0-29.994-11.622-58.104-32.703-79.185l-13.67-13.698a339.43 339.43 0 0 0 13.478-32.703h19.414zm-58.816 85.991c10.528 10.5 16.297 24.556 16.297 39.594 0 15.011-5.769 29.068-16.297 39.591-21.05 21.028-58.13 21.028-79.18 0l-43.12-43.145-18.483 10.363c-18.647 10.417-38.826 18.756-60.018 24.77l-20.37 5.772v61.057c0 30.867-25.127 55.993-55.998 55.993s-55.998-25.126-55.998-55.993v-61.057l-20.368-5.772c-21.218-6.042-41.426-14.354-60.015-24.77l-18.486-10.336-43.12 43.117c-21.054 21.028-58.13 21.028-79.183 0-10.527-10.523-16.294-24.58-16.294-39.59 0-15.04 5.767-29.094 16.294-39.595l43.118-43.116-10.36-18.485c-10.39-18.591-18.705-38.77-24.745-60.042l-5.774-20.344h-61.053c-30.87 0-55.996-25.128-55.996-55.997 0-30.87 25.125-55.998 55.996-55.998h61.053l5.774-20.37c6.04-21.245 14.354-41.451 24.746-60.016l10.359-18.483-43.118-43.119c-10.527-10.528-16.294-24.581-16.294-39.592 0-15.04 5.767-29.094 16.294-39.592 21.054-21.028 58.13-21.028 79.183 0l43.12 43.118 18.486-10.361c18.59-10.39 38.798-18.731 60.015-24.746l20.368-5.77v-61.056c0-30.895 25.127-55.997 55.998-55.997s55.999 25.102 55.999 55.997v61.056l20.369 5.77c21.192 6.016 41.37 14.328 60.018 24.772l18.484 10.335 43.119-43.118c21.052-21.028 58.131-21.028 79.18 0 10.528 10.498 16.297 24.553 16.297 39.592 0 15.01-5.769 29.064-16.297 39.592l-43.09 43.119 10.307 18.483c10.448 18.673 18.783 38.881 24.77 60.015l5.774 20.37h61.054c30.87 0 55.997 25.129 55.997 56 0 30.868-25.128 55.996-55.997 55.996h-61.054l-5.773 20.345c-5.989 21.16-14.323 41.342-24.771 60.04l-10.308 18.486 43.091 43.117zM512.218 344.653c-92.637 0-167.991 75.355-167.991 167.992 0 92.635 75.354 167.991 167.991 167.991S680.21 605.28 680.21 512.646c0-92.638-75.354-167.993-167.99-167.993zm0 279.985c-61.763 0-111.993-50.254-111.993-111.993 0-61.766 50.23-111.995 111.993-111.995 61.766 0 111.995 50.229 111.995 111.995 0 61.74-50.228 111.993-111.995 111.993z"/></svg>
