<svg class="icon" viewBox="0 0 1024 1024" xmlns="http://www.w3.org/2000/svg" width="128" height="128"><path d="M512 231c-80 0-145.1 65.1-145.1 145.1S432 521.2 512 521.2s145.1-65.1 145.1-145.1S592 231 512 231z"/><path d="M556.8 660.4c9.6-5.5 21.8-2.2 27.3 7.4L717.4 901l51.8-97.5c3.4-6.5 10.2-10.6 17.5-10.6l125.4-.9-146.6-256.3c-5.5-9.6-2.2-21.8 7.4-27.3 7-4 15.4-3.3 21.6 1.1 19.2-40.5 30-85.7 30-133.5 0-172.3-140.2-312.5-312.5-312.5S199.5 203.7 199.5 376c0 47.4 10.6 92.3 29.5 132.5 6.2-4.7 14.8-5.5 22-1.4 9.6 5.5 12.9 17.7 7.4 27.3L111.9 790.8l125.4.9c7.3.1 14.1 4.1 17.5 10.6l51.8 97.5L440 666.6c5.5-9.6 17.7-12.9 27.3-7.4 9.6 5.5 12.9 17.6 7.5 27.2 12.2 1.5 24.7 2.2 37.3 2.2 12.4 0 24.6-.7 36.7-2.2-4.6-9.3-1.2-20.7 8-26zM322.3 376.1c0-104.6 85.1-189.7 189.7-189.7s189.7 85.1 189.7 189.7-85 189.7-189.7 189.7c-104.6 0-189.7-85.1-189.7-189.7z"/><path d="M963.8 801.9l-163.6-286c-1.5-2.6-3.4-4.7-5.7-6.3-6.2-4.4-14.6-5.2-21.6-1.1-9.6 5.5-12.9 17.7-7.4 27.3L912.1 792l-125.4.9c-7.3.1-14.1 4.1-17.5 10.6L717.4 901 584 667.8c-5.5-9.6-17.7-12.9-27.3-7.4-9.2 5.3-12.6 16.7-8.1 26l.6 1.2 151.4 264.7c3.6 6.2 10.2 10.1 17.4 10.1h.3c7.3-.1 13.9-4.2 17.4-10.6l63.3-119 147.7-1.1c7.1-.1 13.6-3.9 17.2-10s3.5-13.7-.1-19.8zM467.2 659.2c-9.6-5.5-21.8-2.2-27.3 7.4L306.6 899.8l-51.8-97.5c-3.4-6.5-10.2-10.6-17.5-10.6l-125.4-.9 146.6-256.3c5.5-9.6 2.2-21.8-7.4-27.3-7.2-4.1-15.8-3.3-22 1.4-2.1 1.6-3.9 3.6-5.3 6l-163.6 286c-3.5 6.2-3.5 13.7 0 19.9 3.5 6.2 10.1 10 17.2 10l147.7 1.1 63.3 119c3.4 6.4 10.1 10.5 17.4 10.6h.3c7.2 0 13.8-3.8 17.4-10.1l151.4-264.7s0-.1.1-.1c5.1-9.5 1.8-21.6-7.8-27.1z"/></svg>