<svg class="icon" viewBox="0 0 1024 1024" xmlns="http://www.w3.org/2000/svg" width="200" height="200"><path d="M512 199.107c-172.524 0-312.893 140.36-312.893 312.893S339.477 824.893 512 824.893 824.893 684.523 824.893 512 684.523 199.107 512 199.107zM512 768c-141.169 0-256-114.831-256-256s114.831-256 256-256 256 114.831 256 256-114.831 256-256 256zM170.67 512a28.426 28.426 0 0 0-28.447-28.447H28.447a28.447 28.447 0 0 0 0 56.894h113.776A28.426 28.426 0 0 0 170.67 512zm824.883-28.447H881.777a28.447 28.447 0 1 0 0 56.894h113.776a28.447 28.447 0 0 0 0-56.894zM230.472 753.306l-80.497 80.496a28.442 28.442 0 1 0 40.223 40.223l80.496-80.497a28.442 28.442 0 1 0-40.222-40.222zM773.417 279.03a28.355 28.355 0 0 0 20.111-8.336l80.497-80.496a28.442 28.442 0 1 0-40.223-40.223l-80.496 80.497a28.447 28.447 0 0 0 20.111 48.558zM512 853.33a28.426 28.426 0 0 0-28.447 28.447v113.776a28.447 28.447 0 1 0 56.894 0V881.777A28.426 28.426 0 0 0 512 853.33zm0-682.66a28.426 28.426 0 0 0 28.447-28.447V28.447a28.447 28.447 0 0 0-56.894 0v113.776A28.426 28.426 0 0 0 512 170.67zm281.528 582.636a28.442 28.442 0 0 0-40.222 40.222l80.496 80.497a28.442 28.442 0 1 0 40.223-40.223z"/><path d="M230.472 270.694a28.442 28.442 0 1 0 40.222-40.222l-80.496-80.497a28.442 28.442 0 0 0-40.223 40.223z"/></svg>