<svg class="icon" viewBox="0 0 1024 1024" xmlns="http://www.w3.org/2000/svg" width="200" height="200"><path d="M823.296 60.416q65.536 0 99.328 38.4t33.792 93.696v543.744q0 25.6-21.504 46.08l-171.008 163.84q-13.312 11.264-22.528 14.336t-23.552 3.072H258.048q-23.552 0-47.104-9.728t-41.984-27.648-30.208-43.008-11.776-55.808v-634.88q0-60.416 33.28-96.256t94.72-35.84h568.32zm-215.04 642.048q13.312 0 22.528-9.216T640 670.72q0-14.336-9.216-23.04t-22.528-8.704H287.744q-13.312 0-22.528 8.704T256 670.72q0 13.312 9.216 22.528t22.528 9.216h320.512zm128-192.512q13.312 0 22.528-9.216T768 478.208t-9.216-22.528-22.528-9.216H287.744q-13.312 0-22.528 9.216T256 478.208t9.216 22.528 22.528 9.216h448.512zm63.488-191.488q13.312 0 22.528-9.216t9.216-23.552q0-13.312-9.216-22.528t-22.528-9.216h-512q-13.312 0-22.528 9.216T256 285.696q0 14.336 9.216 23.552t22.528 9.216h512z"/></svg>

