<svg class="icon" viewBox="0 0 1107 1024" xmlns="http://www.w3.org/2000/svg" width="138.375" height="128"><path d="M957.742 776.024a572.382 572.382 0 0 0-298.538-159.576c59.04-36.83 98.438-101.175 98.438-174.466 0-114.05-95.114-206.966-212.135-206.966-117.005 0-212.12 92.798-212.12 206.983 0 73.274 39.4 137.619 98.439 174.449a572.483 572.483 0 0 0-298.42 159.576 55.145 55.145 0 0 0 0 77.472C242.553 963.483 388.85 1024 545.64 1024c156.773 0 303.07-60.517 412.118-170.504a55.145 55.145 0 0 0 0-77.472zM415.408 442c0-70.035 58.452-127.06 130.233-127.06s130.216 57.025 130.216 127.076c0 70.035-58.435 127.06-130.216 127.06S415.408 512.168 415.408 442zm130.233 502.095c-126.187 0-244.518-45.744-335.822-129.376 91.32-83.616 209.635-129.377 335.822-129.377 126.17 0 244.383 45.761 335.805 129.377C790.126 898.35 671.81 944.11 545.64 944.11z"/><path d="M1067.126 537.18c-21.051 0-38.677-15.662-40.34-35.907-19.036-236.107-223.769-422.61-472.819-422.61-249.067 0-453.783 186.503-472.82 422.61-1.661 20.363-19.287 35.907-40.355 35.907-23.87 0-42.555-19.775-40.658-42.756C22.713 218.162 262.446 0 553.967 0s531.255 218.162 553.833 494.424c1.897 22.981-16.787 42.756-40.674 42.756z"/></svg>