<svg class="icon" viewBox="0 0 1024 1024" xmlns="http://www.w3.org/2000/svg" width="200" height="200"><defs><style>@font-face{font-family:feedback-iconfont;src:url("//at.alicdn.com/t/font_1031158_u69w8yhxdu.woff2?t=1630033759944") format("woff2"),url("//at.alicdn.com/t/font_1031158_u69w8yhxdu.woff?t=1630033759944") format("woff"),url("//at.alicdn.com/t/font_1031158_u69w8yhxdu.ttf?t=1630033759944") format("truetype")}</style></defs><path d="M467.2 748.8A44.8 44.8 0 1 0 512 704a44.8 44.8 0 0 0-44.8 44.8zM512 640a40.107 40.107 0 0 1-40.107-40.107V230.827a40.107 40.107 0 0 1 80.214 0v369.066A40.107 40.107 0 0 1 512 640zm0-640a512 512 0 1 0 512 512A512 512 0 0 0 512 0zm0 72.107a439.893 439.893 0 0 1 170.667 845.226A439.893 439.893 0 0 1 200.96 200.96 439.04 439.04 0 0 1 512 72.96z" fill="#5E5C5C"/></svg>