<svg class="icon" viewBox="0 0 1024 1024" xmlns="http://www.w3.org/2000/svg" width="200" height="200"><path d="M895.969 336.015v575.953c0 26.497-21.498 47.995-47.998 47.995H176.028c-26.498 0-47.996-21.498-47.996-47.995V112.033c0-26.498 21.499-47.996 47.996-47.996H623.99c26.498 0 63.494 15.499 81.994 33.997L861.97 254.021c18.499 18.499 33.999 55.496 33.999 81.994zm-63.996 47.996H623.99c-26.498 0-47.996-21.499-47.996-47.996V128.032H192.026v767.936h639.946V384.011zM639.99 320.016h187.984c-3-8.5-7.5-16.999-11-20.499L660.488 143.03c-3.5-3.5-12-7.999-20.498-10.999v187.985z"/><path d="M438.647 800H238.732v-55.179l125.904-204.513H247.709v-59.121h187.872v51.019L307.268 740.88h131.379V800zM472.368 800V481.188h62.404V800h-62.404zM650.386 800H587.98V481.188h79.265c20.145 0 36.021 1.095 47.624 3.285 11.605 2.19 20.984 5.693 28.138 10.51 13.138 8.906 23.463 20.658 30.983 35.253 7.517 14.599 11.277 30.217 11.277 46.858 0 30.511-10.072 54.888-30.218 73.134-20.145 18.249-47.296 27.371-81.454 27.371h-23.21V800zm0-176.266h16.422c17.369 0 30.689-3.757 39.961-11.277 9.269-7.516 13.904-18.283 13.904-32.297 0-14.452-4.489-25.215-13.467-32.297-8.978-7.079-22.591-10.62-40.837-10.62h-15.983v86.491z"/></svg>
