<?xml version="1.0" encoding="iso-8859-1"?>
<!-- Generator: Adobe Illustrator 19.0.0, SVG Export Plug-In . SVG Version: 6.00 Build 0)  -->
<svg version="1.1" id="Layer_1" xmlns="http://www.w3.org/2000/svg" xmlns:xlink="http://www.w3.org/1999/xlink" x="0px" y="0px"
     viewBox="0 0 512 512" style="enable-background:new 0 0 512 512;" xml:space="preserve">
<g>
	<g>
		<path d="M256,111.304c-79.785,0-144.696,64.91-144.696,144.696S176.215,400.696,256,400.696S400.696,335.785,400.696,256
			S335.785,111.304,256,111.304z M256,378.435c-67.51,0-122.435-54.924-122.435-122.435S188.49,133.565,256,133.565
			S378.435,188.49,378.435,256S323.511,378.435,256,378.435z"/>
	</g>
</g>
  <g>
	<g>
		<path d="M256,155.826c-30.337,0-58.709,13.527-77.837,37.112c-3.872,4.774-3.141,11.784,1.633,15.656
			c2.062,1.673,4.541,2.487,7.004,2.487c3.239,0,6.451-1.407,8.651-4.119c14.885-18.351,36.953-28.875,60.55-28.875
			c6.147,0,11.13-4.983,11.13-11.13S262.147,155.826,256,155.826z"/>
	</g>
</g>
  <g>
	<g>
		<path d="M172.533,222.851c-5.946-1.514-12.003,2.104-13.532,8.045c-0.006,0.02-0.028,0.108-0.033,0.129
			c-1.496,5.949,2.113,11.954,8.058,13.467c0.916,0.233,1.833,0.344,2.737,0.344c4.965,0,9.502-3.362,10.795-8.389
			c0.006-0.02,0.028-0.108,0.033-0.129C182.087,230.368,178.479,224.364,172.533,222.851z"/>
	</g>
</g>
  <g>
	<g>
		<path d="M256,0c-6.147,0-11.13,4.983-11.13,11.13v66.783c0,6.147,4.983,11.13,11.13,11.13s11.13-4.983,11.13-11.13V11.13
			C267.13,4.983,262.147,0,256,0z"/>
	</g>
</g>
  <g>
	<g>
		<path d="M256,422.957c-6.147,0-11.13,4.983-11.13,11.13v66.783c0,6.147,4.983,11.13,11.13,11.13s11.13-4.983,11.13-11.13v-66.783
			C267.13,427.94,262.147,422.957,256,422.957z"/>
	</g>
</g>
  <g>
	<g>
		<path d="M137.944,122.203L90.722,74.98c-4.346-4.346-11.394-4.346-15.742,0c-4.346,4.346-4.346,11.394,0,15.741l47.223,47.223
			c2.174,2.174,5.022,3.26,7.87,3.26s5.698-1.086,7.87-3.26C142.29,133.598,142.29,126.55,137.944,122.203z"/>
	</g>
</g>
  <g>
	<g>
		<path d="M437.018,421.278l-47.221-47.222c-4.346-4.346-11.394-4.346-15.742,0c-4.346,4.346-4.346,11.394,0,15.741l47.222,47.222
			c2.174,2.174,5.022,3.26,7.87,3.26s5.698-1.086,7.87-3.26C441.364,432.672,441.364,425.625,437.018,421.278z"/>
	</g>
</g>
  <g>
	<g>
		<path d="M77.913,244.87H11.13C4.983,244.87,0,249.853,0,256s4.983,11.13,11.13,11.13h66.783c6.147,0,11.13-4.983,11.13-11.13
			S84.06,244.87,77.913,244.87z"/>
	</g>
</g>
  <g>
	<g>
		<path d="M500.87,244.87h-66.783c-6.147,0-11.13,4.983-11.13,11.13s4.983,11.13,11.13,11.13h66.783
			c6.147,0,11.13-4.983,11.13-11.13S507.017,244.87,500.87,244.87z"/>
	</g>
</g>
  <g>
	<g>
		<path d="M137.944,374.056c-4.346-4.346-11.394-4.346-15.741,0l-47.222,47.222c-4.346,4.346-4.346,11.394,0,15.741
			c2.174,2.174,5.022,3.26,7.87,3.26s5.698-1.086,7.87-3.26l47.222-47.222C142.29,385.45,142.29,378.403,137.944,374.056z"/>
	</g>
</g>
  <g>
	<g>
		<path d="M437.019,74.981c-4.346-4.346-11.394-4.346-15.742,0l-47.222,47.222c-4.346,4.346-4.346,11.394,0,15.741
			c2.175,2.173,5.023,3.26,7.871,3.26s5.698-1.086,7.87-3.26l47.222-47.222C441.365,86.376,441.365,79.328,437.019,74.981z"/>
	</g>
</g>
  <g>
</g>
  <g>
</g>
  <g>
</g>
  <g>
</g>
  <g>
</g>
  <g>
</g>
  <g>
</g>
  <g>
</g>
  <g>
</g>
  <g>
</g>
  <g>
</g>
  <g>
</g>
  <g>
</g>
  <g>
</g>
  <g>
</g>
</svg>
